Grotesk-Hairline.ufo
<glyph name="exclam" format="2">
	<advance width="370"/>
	<unicode hex="0021"/>
	<guideline x="150" y="213" angle="0"/>
	<note>
		exclam
	</note>
	<outline>
		<contour>
			<point x="179" y="160" type="line"/>
			<point x="191" y="160" type="line"/>
			<point x="191" y="701" type="line"/>
			<point x="179" y="701" type="line"/>
		</contour>
		<contour>
			<point x="185" y="-5" type="curve" smooth="yes"/>
			<point x="213" y="-5"/>
			<point x="235" y="18"/>
			<point x="235" y="45" type="curve" smooth="yes"/>
			<point x="235" y="73"/>
			<point x="213" y="95"/>
			<point x="185" y="95" type="curve" smooth="yes"/>
			<point x="158" y="95"/>
			<point x="135" y="73"/>
			<point x="135" y="45" type="curve" smooth="yes"/>
			<point x="135" y="18"/>
			<point x="158" y="-5"/>
		</contour>
	</outline>
</glyph>
<glyph name="quotedbl" format="2">
	<advance width="455"/>
	<unicode hex="0022"/>
	<outline>
		<contour>
			<point x="141" y="425" type="line"/>
			<point x="153" y="425" type="line"/>
			<point x="153" y="649" type="line"/>
			<point x="141" y="649" type="line"/>
		</contour>
		<contour>
			<point x="301" y="425" type="line"/>
			<point x="313" y="425" type="line"/>
			<point x="313" y="649" type="line"/>
			<point x="301" y="649" type="line"/>
		</contour>
	</outline>
</glyph>
<glyph name="numbersign" format="2">
	<advance width="770"/>
	<unicode hex="0023"/>
	<outline>
		<contour>
			<point x="150" y="438" type="line"/>
			<point x="680" y="438" type="line"/>
			<point x="680" y="450" type="line"/>
			<point x="150" y="450" type="line"/>
		</contour>
		<contour>
			<point x="90" y="199" type="line"/>
			<point x="620" y="199" type="line"/>
			<point x="620" y="211" type="line"/>
			<point x="90" y="211" type="line"/>
		</contour>
		<contour>
			<point x="153" y="0" type="line"/>
			<point x="166" y="0" type="line"/>
			<point x="366" y="649" type="line"/>
			<point x="353" y="649" type="line"/>
		</contour>
		<contour>
			<point x="403" y="0" type="line"/>
			<point x="416" y="0" type="line"/>
			<point x="616" y="649" type="line"/>
			<point x="603" y="649" type="line"/>
		</contour>
	</outline>
</glyph>
<glyph name="dollar" format="2">
	<advance width="561"/>
	<unicode hex="0024"/>
	<anchor x="281" y="0" name="bottom"/>
	<anchor x="281" y="650" name="top"/>
	<outline>
		<contour>
			<point x="287" y="639" type="line"/>
			<point x="287" y="739" type="line"/>
			<point x="275" y="739" type="line"/>
			<point x="275" y="639" type="line"/>
		</contour>
		<contour>
			<point x="287" y="10" type="line"/>
			<point x="275" y="10" type="line"/>
			<point x="275" y="-90" type="line"/>
			<point x="287" y="-90" type="line"/>
		</contour>
		<contour>
			<point x="137" y="0" type="line"/>
			<point x="266" y="0" type="line" smooth="yes"/>
			<point x="408" y="0"/>
			<point x="481" y="97"/>
			<point x="481" y="193" type="curve" smooth="yes"/>
			<point x="481" y="288"/>
			<point x="410" y="382"/>
			<point x="266" y="382" type="curve" smooth="yes"/>
			<point x="259" y="382" type="line"/>
			<point x="259" y="370" type="line"/>
			<point x="266" y="370" type="line" smooth="yes"/>
			<point x="402" y="370"/>
			<point x="469" y="281"/>
			<point x="469" y="192" type="curve" smooth="yes"/>
			<point x="469" y="102"/>
			<point x="401" y="12"/>
			<point x="266" y="12" type="curve" smooth="yes"/>
			<point x="137" y="12" type="line"/>
		</contour>
		<contour>
			<point x="295" y="268" type="curve" smooth="yes"/>
			<point x="302" y="268" type="line"/>
			<point x="302" y="280" type="line"/>
			<point x="295" y="280" type="line" smooth="yes"/>
			<point x="160" y="280"/>
			<point x="92" y="369"/>
			<point x="92" y="458" type="curve" smooth="yes"/>
			<point x="92" y="548"/>
			<point x="160" y="638"/>
			<point x="295" y="638" type="curve" smooth="yes"/>
			<point x="393" y="638" type="line"/>
			<point x="393" y="650" type="line"/>
			<point x="295" y="650" type="line" smooth="yes"/>
			<point x="152" y="650"/>
			<point x="80" y="553"/>
			<point x="80" y="457" type="curve" smooth="yes"/>
			<point x="80" y="362"/>
			<point x="152" y="268"/>
		</contour>
	</outline>
</glyph>
<glyph name="percent" format="2">
	<advance width="848"/>
	<unicode hex="0025"/>
	<outline>
		<contour>
			<point x="268" y="0" type="line"/>
			<point x="281" y="0" type="line"/>
			<point x="580" y="649" type="line"/>
			<point x="567" y="649" type="line"/>
		</contour>
		<contour>
			<point x="639" y="-10" type="curve" smooth="yes"/>
			<point x="711" y="-10"/>
			<point x="768" y="47"/>
			<point x="768" y="119" type="curve" smooth="yes"/>
			<point x="768" y="191"/>
			<point x="711" y="248"/>
			<point x="639" y="248" type="curve" smooth="yes"/>
			<point x="567" y="248"/>
			<point x="510" y="191"/>
			<point x="510" y="119" type="curve" smooth="yes"/>
			<point x="510" y="47"/>
			<point x="567" y="-10"/>
		</contour>
		<contour>
			<point x="638" y="3" type="curve" smooth="yes"/>
			<point x="573" y="3"/>
			<point x="523" y="54"/>
			<point x="523" y="119" type="curve" smooth="yes"/>
			<point x="523" y="184"/>
			<point x="573" y="235"/>
			<point x="638" y="235" type="curve" smooth="yes"/>
			<point x="702" y="235"/>
			<point x="754" y="184"/>
			<point x="755" y="119" type="curve" smooth="yes"/>
			<point x="754" y="54"/>
			<point x="702" y="3"/>
		</contour>
		<contour>
			<point x="209" y="401" type="curve" smooth="yes"/>
			<point x="281" y="401"/>
			<point x="338" y="458"/>
			<point x="338" y="530" type="curve" smooth="yes"/>
			<point x="338" y="602"/>
			<point x="281" y="659"/>
			<point x="209" y="659" type="curve" smooth="yes"/>
			<point x="137" y="659"/>
			<point x="80" y="602"/>
			<point x="80" y="530" type="curve" smooth="yes"/>
			<point x="80" y="458"/>
			<point x="137" y="401"/>
		</contour>
		<contour>
			<point x="208" y="414" type="curve" smooth="yes"/>
			<point x="143" y="414"/>
			<point x="93" y="465"/>
			<point x="93" y="530" type="curve" smooth="yes"/>
			<point x="93" y="595"/>
			<point x="143" y="646"/>
			<point x="208" y="646" type="curve" smooth="yes"/>
			<point x="272" y="646"/>
			<point x="324" y="595"/>
			<point x="325" y="530" type="curve" smooth="yes"/>
			<point x="324" y="465"/>
			<point x="272" y="414"/>
		</contour>
	</outline>
</glyph>
<glyph name="ampersand" format="2">
	<advance width="660"/>
	<unicode hex="0026"/>
	<guideline x="610" y="467" angle="90"/>
	<outline>
		<contour>
			<point x="240" y="0" type="curve" smooth="yes"/>
			<point x="610" y="0" type="line"/>
			<point x="610" y="12" type="line"/>
			<point x="240" y="12" type="line" smooth="yes"/>
			<point x="140" y="12"/>
			<point x="62" y="87"/>
			<point x="62" y="182" type="curve" smooth="yes"/>
			<point x="62" y="277"/>
			<point x="140" y="352"/>
			<point x="240" y="352" type="curve" smooth="yes"/>
			<point x="610" y="352" type="line"/>
			<point x="610" y="364" type="line"/>
			<point x="240" y="364" type="line" smooth="yes"/>
			<point x="134" y="364"/>
			<point x="50" y="284"/>
			<point x="50" y="182" type="curve" smooth="yes"/>
			<point x="50" y="80"/>
			<point x="134" y="0"/>
		</contour>
		<contour>
			<point x="270" y="637" type="curve" smooth="yes"/>
			<point x="465" y="637" type="line"/>
			<point x="465" y="649" type="line"/>
			<point x="270" y="649" type="line" smooth="yes"/>
			<point x="173" y="649"/>
			<point x="116" y="583"/>
			<point x="116" y="500" type="curve" smooth="yes"/>
			<point x="116" y="415"/>
			<point x="173" y="351"/>
			<point x="270" y="352" type="curve"/>
			<point x="270" y="364" type="line"/>
			<point x="179" y="362"/>
			<point x="128" y="422"/>
			<point x="128" y="500" type="curve" smooth="yes"/>
			<point x="128" y="577"/>
			<point x="179" y="637"/>
		</contour>
		<contour>
			<point x="463" y="0" type="line"/>
			<point x="475" y="0" type="line"/>
			<point x="475" y="650" type="line"/>
			<point x="463" y="650" type="line"/>
		</contour>
	</outline>
</glyph>
<glyph name="quotesingle" format="2">
	<advance width="285"/>
	<unicode hex="0027"/>
	<outline>
		<contour>
			<point x="136" y="425" type="line"/>
			<point x="148" y="425" type="line"/>
			<point x="148" y="649" type="line"/>
			<point x="136" y="649" type="line"/>
		</contour>
	</outline>
</glyph>
<glyph name="parenleft" format="2">
	<advance width="379"/>
	<unicode hex="0028"/>
	<outline>
		<contour>
			<point x="156" y="324" type="curve" smooth="yes"/>
			<point x="156" y="209"/>
			<point x="179" y="100"/>
			<point x="220" y="0" type="curve"/>
			<point x="232" y="0" type="line"/>
			<point x="191" y="100"/>
			<point x="168" y="209"/>
			<point x="168" y="324" type="curve" smooth="yes"/>
			<point x="168" y="439"/>
			<point x="191" y="549"/>
			<point x="232" y="649" type="curve"/>
			<point x="220" y="649" type="line"/>
			<point x="179" y="553"/>
			<point x="156" y="440"/>
		</contour>
	</outline>
</glyph>
<glyph name="parenright" format="2">
	<advance width="369"/>
	<unicode hex="0029"/>
	<outline>
		<contour>
			<point x="213" y="324" type="curve" smooth="yes"/>
			<point x="213" y="440"/>
			<point x="190" y="553"/>
			<point x="149" y="649" type="curve"/>
			<point x="137" y="649" type="line"/>
			<point x="178" y="549"/>
			<point x="201" y="439"/>
			<point x="201" y="324" type="curve" smooth="yes"/>
			<point x="201" y="209"/>
			<point x="178" y="100"/>
			<point x="137" y="0" type="curve"/>
			<point x="149" y="0" type="line"/>
			<point x="190" y="100"/>
			<point x="213" y="209"/>
		</contour>
	</outline>
</glyph>
<glyph name="asterisk" format="2">
	<advance width="516"/>
	<unicode hex="002A"/>
	<outline>
		<contour>
			<point x="252" y="709" type="line"/>
			<point x="252" y="374" type="line"/>
			<point x="264" y="374" type="line"/>
			<point x="264" y="709" type="line"/>
		</contour>
		<contour>
			<point x="372" y="664" type="line"/>
			<point x="135" y="427" type="line"/>
			<point x="144" y="420" type="line"/>
			<point x="381" y="657" type="line"/>
		</contour>
		<contour>
			<point x="425" y="548" type="line"/>
			<point x="90" y="548" type="line"/>
			<point x="91" y="536" type="line"/>
			<point x="426" y="536" type="line"/>
		</contour>
		<contour>
			<point x="380" y="428" type="line"/>
			<point x="143" y="665" type="line"/>
			<point x="136" y="656" type="line"/>
			<point x="373" y="419" type="line"/>
		</contour>
	</outline>
</glyph>
<glyph name="plus" format="2">
	<advance width="630"/>
	<unicode hex="002B"/>
	<outline>
		<contour>
			<point x="100" y="274" type="line"/>
			<point x="530" y="274" type="line"/>
			<point x="530" y="286" type="line"/>
			<point x="100" y="286" type="line"/>
		</contour>
		<contour>
			<point x="309" y="495" type="line"/>
			<point x="309" y="65" type="line"/>
			<point x="321" y="65" type="line"/>
			<point x="321" y="495" type="line"/>
		</contour>
	</outline>
</glyph>
<glyph name="comma" format="2">
	<advance width="250"/>
	<unicode hex="002C"/>
	<outline>
		<contour>
			<point x="20" y="-200" type="line"/>
			<point x="33" y="-200" type="line"/>
			<point x="135" y="0" type="line"/>
			<point x="135" y="122" type="line"/>
			<point x="123" y="122" type="line"/>
			<point x="123" y="4" type="line"/>
		</contour>
	</outline>
</glyph>
<glyph name="hyphen" format="2">
	<advance width="530"/>
	<unicode hex="002D"/>
	<note>
		hyphen
	</note>
	<outline>
		<contour>
			<point x="100" y="274" type="line"/>
			<point x="430" y="274" type="line"/>
			<point x="430" y="286" type="line"/>
			<point x="100" y="286" type="line"/>
		</contour>
	</outline>
</glyph>
<glyph name="period" format="2">
	<advance width="270"/>
	<unicode hex="002E"/>
	<note>
		period
	</note>
	<outline>
		<contour>
			<point x="135" y="-5" type="curve" smooth="yes"/>
			<point x="163" y="-5"/>
			<point x="185" y="18"/>
			<point x="185" y="45" type="curve" smooth="yes"/>
			<point x="185" y="73"/>
			<point x="163" y="95"/>
			<point x="135" y="95" type="curve" smooth="yes"/>
			<point x="108" y="95"/>
			<point x="85" y="73"/>
			<point x="85" y="45" type="curve" smooth="yes"/>
			<point x="85" y="18"/>
			<point x="108" y="-5"/>
		</contour>
	</outline>
</glyph>
<glyph name="slash" format="2">
	<advance width="500"/>
	<unicode hex="002F"/>
	<outline>
		<contour>
			<point x="143" y="0" type="line"/>
			<point x="156" y="0" type="line"/>
			<point x="356" y="649" type="line"/>
			<point x="343" y="649" type="line"/>
		</contour>
	</outline>
</glyph>
<glyph name="zero" format="2">
	<advance width="620"/>
	<unicode hex="0030"/>
	<guideline x="766" y="-15" angle="0"/>
	<guideline x="500" y="665" angle="0"/>
	<note>
		zero
	</note>
	<outline>
		<contour>
			<point x="100" y="455" type="curve" smooth="yes"/>
			<point x="100" y="269" type="line"/>
			<point x="112" y="269" type="line"/>
			<point x="112" y="455" type="line" smooth="yes"/>
			<point x="112" y="575"/>
			<point x="190" y="653"/>
			<point x="310" y="653" type="curve" smooth="yes"/>
			<point x="430" y="653"/>
			<point x="508" y="575"/>
			<point x="508" y="455" type="curve" smooth="yes"/>
			<point x="508" y="269" type="line"/>
			<point x="520" y="269" type="line"/>
			<point x="520" y="455" type="line" smooth="yes"/>
			<point x="520" y="581"/>
			<point x="436" y="665"/>
			<point x="310" y="665" type="curve" smooth="yes"/>
			<point x="184" y="665"/>
			<point x="100" y="581"/>
		</contour>
		<contour>
			<point x="310" y="-15" type="curve" smooth="yes"/>
			<point x="436" y="-15"/>
			<point x="520" y="69"/>
			<point x="520" y="195" type="curve" smooth="yes"/>
			<point x="520" y="281" type="line"/>
			<point x="508" y="281" type="line"/>
			<point x="508" y="195" type="line" smooth="yes"/>
			<point x="508" y="75"/>
			<point x="430" y="-3"/>
			<point x="310" y="-3" type="curve" smooth="yes"/>
			<point x="190" y="-3"/>
			<point x="112" y="75"/>
			<point x="112" y="195" type="curve" smooth="yes"/>
			<point x="112" y="281" type="line"/>
			<point x="100" y="281" type="line"/>
			<point x="100" y="195" type="line" smooth="yes"/>
			<point x="100" y="69"/>
			<point x="184" y="-15"/>
		</contour>
	</outline>
</glyph>
<glyph name="one" format="2">
	<advance width="387"/>
	<unicode hex="0031"/>
	<note>
		one
	</note>
	<outline>
		<contour>
			<point x="50" y="478" type="line"/>
			<point x="69" y="478" type="line"/>
			<point x="267" y="649" type="line"/>
			<point x="248" y="649" type="line"/>
		</contour>
		<contour>
			<point x="255" y="0" type="line"/>
			<point x="267" y="0" type="line"/>
			<point x="267" y="650" type="line"/>
			<point x="255" y="650" type="line"/>
		</contour>
	</outline>
</glyph>
<glyph name="two" format="2">
	<advance width="600"/>
	<unicode hex="0032"/>
	<guideline x="224" y="330" angle="0"/>
	<note>
		two
	</note>
	<outline>
		<contour>
			<point x="192" y="230" type="line"/>
			<point x="270" y="230" type="line" smooth="yes"/>
			<point x="396" y="230"/>
			<point x="480" y="314"/>
			<point x="480" y="440" type="curve" smooth="yes"/>
			<point x="480" y="566"/>
			<point x="396" y="650"/>
			<point x="270" y="650" type="curve" smooth="yes"/>
			<point x="150" y="650" type="line"/>
			<point x="150" y="638" type="line"/>
			<point x="270" y="638" type="line" smooth="yes"/>
			<point x="389" y="638"/>
			<point x="468" y="559"/>
			<point x="468" y="440" type="curve" smooth="yes"/>
			<point x="468" y="316"/>
			<point x="385" y="242"/>
			<point x="270" y="242" type="curve" smooth="yes"/>
			<point x="192" y="242" type="line"/>
		</contour>
		<contour>
			<point x="100" y="0" type="line"/>
			<point x="113" y="0" type="line"/>
			<point x="201" y="242" type="line"/>
			<point x="188" y="242" type="line"/>
		</contour>
		<contour>
			<point x="112" y="0" type="line"/>
			<point x="480" y="0" type="line"/>
			<point x="480" y="12" type="line"/>
			<point x="112" y="12" type="line"/>
		</contour>
	</outline>
</glyph>
<glyph name="three" format="2">
	<advance width="605"/>
	<unicode hex="0033"/>
	<guideline x="315" y="160" angle="90"/>
	<note>
		three
	</note>
	<outline>
		<contour>
			<point x="100" y="0" type="line"/>
			<point x="325" y="0" type="line" smooth="yes"/>
			<point x="431" y="0"/>
			<point x="515" y="80"/>
			<point x="515" y="182" type="curve" smooth="yes"/>
			<point x="515" y="284"/>
			<point x="431" y="364"/>
			<point x="325" y="364" type="curve" smooth="yes"/>
			<point x="130" y="364" type="line"/>
			<point x="130" y="352" type="line"/>
			<point x="325" y="352" type="line" smooth="yes"/>
			<point x="425" y="352"/>
			<point x="503" y="277"/>
			<point x="503" y="182" type="curve" smooth="yes"/>
			<point x="503" y="87"/>
			<point x="425" y="12"/>
			<point x="325" y="12" type="curve" smooth="yes"/>
			<point x="100" y="12" type="line"/>
		</contour>
		<contour>
			<point x="100" y="637" type="line"/>
			<point x="295" y="637" type="line" smooth="yes"/>
			<point x="386" y="637"/>
			<point x="437" y="577"/>
			<point x="437" y="500" type="curve" smooth="yes"/>
			<point x="437" y="422"/>
			<point x="386" y="362"/>
			<point x="295" y="364" type="curve"/>
			<point x="295" y="352" type="line"/>
			<point x="392" y="351"/>
			<point x="449" y="415"/>
			<point x="449" y="500" type="curve" smooth="yes"/>
			<point x="449" y="583"/>
			<point x="392" y="649"/>
			<point x="295" y="649" type="curve" smooth="yes"/>
			<point x="100" y="649" type="line"/>
		</contour>
	</outline>
</glyph>
<glyph name="four" format="2">
	<advance width="638"/>
	<unicode hex="0034"/>
	<note>
		four
	</note>
	<outline>
		<contour>
			<point x="120" y="145" type="line"/>
			<point x="132" y="145" type="line"/>
			<point x="239" y="649" type="line"/>
			<point x="227" y="649" type="line"/>
		</contour>
		<contour>
			<point x="126" y="145" type="line"/>
			<point x="518" y="145" type="line"/>
			<point x="518" y="157" type="line"/>
			<point x="126" y="157" type="line"/>
		</contour>
		<contour>
			<point x="422" y="0" type="line"/>
			<point x="434" y="0" type="line"/>
			<point x="434" y="490" type="line"/>
			<point x="422" y="490" type="line"/>
		</contour>
	</outline>
</glyph>
<glyph name="five" format="2">
	<advance width="565"/>
	<unicode hex="0035"/>
	<guideline x="430" y="-151" angle="90"/>
	<note>
		five
	</note>
	<outline>
		<contour>
			<point x="100" y="0" type="line"/>
			<point x="275" y="0" type="line" smooth="yes"/>
			<point x="401" y="0"/>
			<point x="485" y="84"/>
			<point x="485" y="210" type="curve" smooth="yes"/>
			<point x="485" y="336"/>
			<point x="401" y="420"/>
			<point x="275" y="420" type="curve" smooth="yes"/>
			<point x="100" y="420" type="line"/>
			<point x="100" y="408" type="line"/>
			<point x="275" y="408" type="line" smooth="yes"/>
			<point x="395" y="408"/>
			<point x="473" y="330"/>
			<point x="473" y="210" type="curve" smooth="yes"/>
			<point x="473" y="90"/>
			<point x="395" y="12"/>
			<point x="275" y="12" type="curve" smooth="yes"/>
			<point x="100" y="12" type="line"/>
		</contour>
		<contour>
			<point x="100" y="408" type="line"/>
			<point x="112" y="408" type="line"/>
			<point x="112" y="649" type="line"/>
			<point x="100" y="649" type="line"/>
		</contour>
		<contour>
			<point x="100" y="637" type="line"/>
			<point x="430" y="637" type="line"/>
			<point x="430" y="649" type="line"/>
			<point x="100" y="649" type="line"/>
		</contour>
	</outline>
</glyph>
<glyph name="six" format="2">
	<advance width="620"/>
	<unicode hex="0036"/>
	<guideline x="520" y="448" angle="0"/>
	<guideline x="220" y="665" angle="0"/>
	<guideline x="310" y="163" angle="90"/>
	<guideline x="299" y="221" angle="0"/>
	<guideline x="236" y="195" angle="0"/>
	<note>
		six
	</note>
	<outline>
		<contour>
			<point x="100" y="455" type="curve" smooth="yes"/>
			<point x="100" y="269" type="line"/>
			<point x="112" y="269" type="line"/>
			<point x="112" y="455" type="line" smooth="yes"/>
			<point x="112" y="573"/>
			<point x="196" y="653"/>
			<point x="313" y="653" type="curve" smooth="yes"/>
			<point x="427" y="653"/>
			<point x="508" y="576"/>
			<point x="508" y="465" type="curve"/>
			<point x="520" y="465" type="line"/>
			<point x="520" y="598"/>
			<point x="417" y="665"/>
			<point x="313" y="665" type="curve" smooth="yes"/>
			<point x="207" y="665"/>
			<point x="100" y="596"/>
		</contour>
		<contour>
			<point x="310" y="-15" type="curve" smooth="yes"/>
			<point x="436" y="-15"/>
			<point x="520" y="69"/>
			<point x="520" y="195" type="curve" smooth="yes"/>
			<point x="520" y="221" type="line"/>
			<point x="508" y="221" type="line"/>
			<point x="508" y="195" type="line" smooth="yes"/>
			<point x="508" y="76"/>
			<point x="429" y="-3"/>
			<point x="310" y="-3" type="curve" smooth="yes"/>
			<point x="192" y="-3"/>
			<point x="112" y="76"/>
			<point x="112" y="195" type="curve" smooth="yes"/>
			<point x="112" y="281" type="line"/>
			<point x="100" y="281" type="line"/>
			<point x="100" y="195" type="line" smooth="yes"/>
			<point x="100" y="69"/>
			<point x="184" y="-15"/>
		</contour>
		<contour>
			<point x="100" y="221" type="curve" smooth="yes"/>
			<point x="100" y="205" type="line"/>
			<point x="112" y="205" type="line"/>
			<point x="112" y="221" type="line" smooth="yes"/>
			<point x="112" y="338"/>
			<point x="194" y="420"/>
			<point x="310" y="420" type="curve" smooth="yes"/>
			<point x="426" y="420"/>
			<point x="508" y="337"/>
			<point x="508" y="221" type="curve" smooth="yes"/>
			<point x="508" y="205" type="line"/>
			<point x="520" y="205" type="line"/>
			<point x="520" y="221" type="line" smooth="yes"/>
			<point x="520" y="362"/>
			<point x="413" y="432"/>
			<point x="310" y="432" type="curve" smooth="yes"/>
			<point x="206" y="432"/>
			<point x="100" y="362"/>
		</contour>
	</outline>
</glyph>
<glyph name="seven" format="2">
	<advance width="524"/>
	<unicode hex="0037"/>
	<note>
		seven
	</note>
	<outline>
		<contour>
			<point x="175" y="0" type="line"/>
			<point x="188" y="0" type="line"/>
			<point x="474" y="649" type="line"/>
			<point x="461" y="649" type="line"/>
		</contour>
		<contour>
			<point x="50" y="637" type="line"/>
			<point x="465" y="637" type="line"/>
			<point x="465" y="649" type="line"/>
			<point x="50" y="649" type="line"/>
		</contour>
	</outline>
</glyph>
<glyph name="eight" format="2">
	<advance width="620"/>
	<unicode hex="0038"/>
	<guideline x="500" y="665" angle="0"/>
	<guideline x="191" y="128" angle="90"/>
	<guideline x="429" y="112" angle="90"/>
	<note>
		eight
	</note>
	<outline>
		<contour>
			<point x="100" y="445" type="curve" smooth="yes"/>
			<point x="100" y="433" type="line"/>
			<point x="100" y="386"/>
			<point x="110" y="345"/>
			<point x="122" y="307" type="curve"/>
			<point x="130" y="326" type="line"/>
			<point x="120" y="354"/>
			<point x="112" y="388"/>
			<point x="112" y="433" type="curve" smooth="yes"/>
			<point x="112" y="445" type="line" smooth="yes"/>
			<point x="112" y="564"/>
			<point x="191" y="653"/>
			<point x="310" y="653" type="curve"/>
			<point x="310" y="665" type="line"/>
			<point x="184" y="665"/>
			<point x="100" y="571"/>
		</contour>
		<contour>
			<point x="520" y="433" type="curve" smooth="yes"/>
			<point x="520" y="445" type="line" smooth="yes"/>
			<point x="520" y="571"/>
			<point x="436" y="665"/>
			<point x="310" y="665" type="curve"/>
			<point x="310" y="653" type="line"/>
			<point x="429" y="653"/>
			<point x="508" y="564"/>
			<point x="508" y="445" type="curve" smooth="yes"/>
			<point x="508" y="433" type="line" smooth="yes"/>
			<point x="508" y="388"/>
			<point x="500" y="354"/>
			<point x="490" y="326" type="curve"/>
			<point x="498" y="307" type="line"/>
			<point x="510" y="345"/>
			<point x="520" y="386"/>
		</contour>
		<contour>
			<point x="100" y="217" type="curve" smooth="yes"/>
			<point x="100" y="205" type="line"/>
			<point x="100" y="79"/>
			<point x="184" y="-15"/>
			<point x="310" y="-15" type="curve" smooth="yes"/>
			<point x="436" y="-15"/>
			<point x="520" y="79"/>
			<point x="520" y="205" type="curve" smooth="yes"/>
			<point x="520" y="217" type="line" smooth="yes"/>
			<point x="520" y="343"/>
			<point x="436" y="437"/>
			<point x="310" y="437" type="curve" smooth="yes"/>
			<point x="184" y="437"/>
			<point x="100" y="343"/>
		</contour>
		<contour>
			<point x="112" y="205" type="curve" smooth="yes"/>
			<point x="112" y="217" type="line" smooth="yes"/>
			<point x="112" y="336"/>
			<point x="191" y="425"/>
			<point x="310" y="425" type="curve" smooth="yes"/>
			<point x="429" y="425"/>
			<point x="508" y="336"/>
			<point x="508" y="217" type="curve" smooth="yes"/>
			<point x="508" y="205" type="line" smooth="yes"/>
			<point x="508" y="86"/>
			<point x="429" y="-3"/>
			<point x="310" y="-3" type="curve" smooth="yes"/>
			<point x="191" y="-3"/>
			<point x="112" y="86"/>
		</contour>
	</outline>
</glyph>
<glyph name="nine" format="2">
	<advance width="620"/>
	<unicode hex="0039"/>
	<note>
		nine
	</note>
	<outline>
		<contour>
			<point x="520" y="195" type="curve" smooth="yes"/>
			<point x="520" y="381" type="line"/>
			<point x="508" y="381" type="line"/>
			<point x="508" y="195" type="line" smooth="yes"/>
			<point x="508" y="77"/>
			<point x="424" y="-3"/>
			<point x="307" y="-3" type="curve" smooth="yes"/>
			<point x="193" y="-3"/>
			<point x="112" y="74"/>
			<point x="112" y="185" type="curve"/>
			<point x="100" y="185" type="line"/>
			<point x="100" y="52"/>
			<point x="203" y="-15"/>
			<point x="307" y="-15" type="curve" smooth="yes"/>
			<point x="413" y="-15"/>
			<point x="520" y="54"/>
		</contour>
		<contour>
			<point x="310" y="665" type="curve" smooth="yes"/>
			<point x="184" y="665"/>
			<point x="100" y="581"/>
			<point x="100" y="455" type="curve" smooth="yes"/>
			<point x="100" y="429" type="line"/>
			<point x="112" y="429" type="line"/>
			<point x="112" y="455" type="line" smooth="yes"/>
			<point x="112" y="574"/>
			<point x="191" y="653"/>
			<point x="310" y="653" type="curve" smooth="yes"/>
			<point x="428" y="653"/>
			<point x="508" y="574"/>
			<point x="508" y="455" type="curve" smooth="yes"/>
			<point x="508" y="369" type="line"/>
			<point x="520" y="369" type="line"/>
			<point x="520" y="455" type="line" smooth="yes"/>
			<point x="520" y="581"/>
			<point x="436" y="665"/>
		</contour>
		<contour>
			<point x="520" y="429" type="curve" smooth="yes"/>
			<point x="520" y="445" type="line"/>
			<point x="508" y="445" type="line"/>
			<point x="508" y="429" type="line" smooth="yes"/>
			<point x="508" y="312"/>
			<point x="426" y="230"/>
			<point x="310" y="230" type="curve" smooth="yes"/>
			<point x="194" y="230"/>
			<point x="112" y="313"/>
			<point x="112" y="429" type="curve" smooth="yes"/>
			<point x="112" y="445" type="line"/>
			<point x="100" y="445" type="line"/>
			<point x="100" y="429" type="line" smooth="yes"/>
			<point x="100" y="288"/>
			<point x="207" y="218"/>
			<point x="310" y="218" type="curve" smooth="yes"/>
			<point x="414" y="218"/>
			<point x="520" y="288"/>
		</contour>
	</outline>
</glyph>
<glyph name="colon" format="2">
	<advance width="370"/>
	<unicode hex="003A"/>
	<note>
		colon
	</note>
	<outline>
		<contour>
			<point x="185" y="-5" type="curve" smooth="yes"/>
			<point x="213" y="-5"/>
			<point x="235" y="18"/>
			<point x="235" y="45" type="curve" smooth="yes"/>
			<point x="235" y="73"/>
			<point x="213" y="95"/>
			<point x="185" y="95" type="curve" smooth="yes"/>
			<point x="158" y="95"/>
			<point x="135" y="73"/>
			<point x="135" y="45" type="curve" smooth="yes"/>
			<point x="135" y="18"/>
			<point x="158" y="-5"/>
		</contour>
		<contour>
			<point x="185" y="280" type="curve" smooth="yes"/>
			<point x="213" y="280"/>
			<point x="235" y="303"/>
			<point x="235" y="330" type="curve" smooth="yes"/>
			<point x="235" y="358"/>
			<point x="213" y="380"/>
			<point x="185" y="380" type="curve" smooth="yes"/>
			<point x="158" y="380"/>
			<point x="135" y="358"/>
			<point x="135" y="330" type="curve" smooth="yes"/>
			<point x="135" y="303"/>
			<point x="158" y="280"/>
		</contour>
	</outline>
</glyph>
<glyph name="semicolon" format="2">
	<advance width="370"/>
	<unicode hex="003B"/>
	<guideline x="185" y="278" angle="0"/>
	<note>
		semicolon
	</note>
	<outline>
		<contour>
			<point x="76" y="-200" type="line"/>
			<point x="89" y="-200" type="line"/>
			<point x="191" y="0" type="line"/>
			<point x="191" y="122" type="line"/>
			<point x="179" y="122" type="line"/>
			<point x="179" y="4" type="line"/>
		</contour>
		<contour>
			<point x="185" y="280" type="curve" smooth="yes"/>
			<point x="213" y="280"/>
			<point x="235" y="303"/>
			<point x="235" y="330" type="curve" smooth="yes"/>
			<point x="235" y="358"/>
			<point x="213" y="380"/>
			<point x="185" y="380" type="curve" smooth="yes"/>
			<point x="158" y="380"/>
			<point x="135" y="358"/>
			<point x="135" y="330" type="curve" smooth="yes"/>
			<point x="135" y="303"/>
			<point x="158" y="280"/>
		</contour>
	</outline>
</glyph>
<glyph name="equal" format="2">
	<advance width="530"/>
	<unicode hex="003D"/>
	<outline>
		<contour>
			<point x="100" y="174" type="line"/>
			<point x="430" y="174" type="line"/>
			<point x="430" y="186" type="line"/>
			<point x="100" y="186" type="line"/>
		</contour>
		<contour>
			<point x="100" y="374" type="line"/>
			<point x="430" y="374" type="line"/>
			<point x="430" y="386" type="line"/>
			<point x="100" y="386" type="line"/>
		</contour>
	</outline>
</glyph>
<glyph name="question" format="2">
	<advance width="575"/>
	<unicode hex="003F"/>
	<guideline x="100" y="160" angle="0"/>
	<note>
		question
	</note>
	<outline>
		<contour>
			<point x="473" y="486" type="curve"/>
			<point x="485" y="486" type="line"/>
			<point x="485" y="615"/>
			<point x="399" y="701"/>
			<point x="270" y="701" type="curve" smooth="yes"/>
			<point x="120" y="701" type="line"/>
			<point x="120" y="689" type="line"/>
			<point x="270" y="689" type="line" smooth="yes"/>
			<point x="392" y="689"/>
			<point x="473" y="608"/>
		</contour>
		<contour>
			<point x="203" y="160" type="line"/>
			<point x="215" y="160" type="line"/>
			<point x="215" y="278" type="line"/>
			<point x="203" y="278" type="line"/>
		</contour>
		<contour>
			<point x="203" y="271" type="line"/>
			<point x="270" y="271" type="line" smooth="yes"/>
			<point x="399" y="271"/>
			<point x="485" y="357"/>
			<point x="485" y="486" type="curve"/>
			<point x="473" y="486" type="line"/>
			<point x="473" y="364"/>
			<point x="392" y="283"/>
			<point x="270" y="283" type="curve" smooth="yes"/>
			<point x="203" y="283" type="line"/>
		</contour>
		<contour>
			<point x="209" y="-5" type="curve" smooth="yes"/>
			<point x="237" y="-5"/>
			<point x="259" y="18"/>
			<point x="259" y="45" type="curve" smooth="yes"/>
			<point x="259" y="73"/>
			<point x="237" y="95"/>
			<point x="209" y="95" type="curve" smooth="yes"/>
			<point x="182" y="95"/>
			<point x="159" y="73"/>
			<point x="159" y="45" type="curve" smooth="yes"/>
			<point x="159" y="18"/>
			<point x="182" y="-5"/>
		</contour>
	</outline>
</glyph>
<glyph name="at" format="2">
	<advance width="1192"/>
	<unicode hex="0040"/>
	<outline>
		<contour>
			<point x="379" y="89" type="line"/>
			<point x="796" y="89" type="line" smooth="yes"/>
			<point x="951" y="89"/>
			<point x="1072" y="216"/>
			<point x="1072" y="377" type="curve" smooth="yes"/>
			<point x="1072" y="600"/>
			<point x="863" y="776"/>
			<point x="598" y="776" type="curve" smooth="yes"/>
			<point x="330" y="776"/>
			<point x="120" y="558"/>
			<point x="120" y="281" type="curve" smooth="yes"/>
			<point x="120" y="33"/>
			<point x="353" y="-160"/>
			<point x="649" y="-158" type="curve"/>
			<point x="649" y="-146" type="line"/>
			<point x="356" y="-146"/>
			<point x="132" y="41"/>
			<point x="132" y="281" type="curve" smooth="yes"/>
			<point x="132" y="551"/>
			<point x="337" y="764"/>
			<point x="598" y="764" type="curve" smooth="yes"/>
			<point x="857" y="764"/>
			<point x="1060" y="594"/>
			<point x="1060" y="377" type="curve" smooth="yes"/>
			<point x="1060" y="222"/>
			<point x="944" y="101"/>
			<point x="796" y="101" type="curve" smooth="yes"/>
			<point x="395" y="101" type="line"/>
			<point x="546" y="563" type="line"/>
			<point x="641" y="563" type="line"/>
			<point x="829" y="0" type="line"/>
			<point x="840" y="0" type="line"/>
			<point x="651" y="575" type="line"/>
			<point x="537" y="575" type="line"/>
		</contour>
	</outline>
</glyph>
<glyph name="A" format="2">
	<advance width="640"/>
	<unicode hex="0041"/>
	<anchor x="320" y="0" name="bottom"/>
	<anchor x="583" y="0" name="ogonek"/>
	<anchor x="320" y="650" name="top"/>
	<note>
		A
	</note>
	<outline>
		<contour>
			<point x="135" y="210" type="line"/>
			<point x="505" y="210" type="line"/>
			<point x="505" y="222" type="line"/>
			<point x="135" y="222" type="line"/>
		</contour>
		<contour>
			<point x="590" y="0" type="line"/>
			<point x="360" y="650" type="line"/>
			<point x="280" y="650" type="line"/>
			<point x="50" y="0" type="line"/>
			<point x="63" y="0" type="line"/>
			<point x="289" y="638" type="line"/>
			<point x="352" y="638" type="line"/>
			<point x="577" y="0" type="line"/>
		</contour>
	</outline>
</glyph>
<glyph name="B" format="2">
	<advance width="582"/>
	<unicode hex="0042"/>
	<anchor x="318" y="0" name="bottom"/>
	<anchor x="115" y="0" name="ogonek"/>
	<anchor x="318" y="649" name="top"/>
	<anchor x="-24" y="649" name="topleft"/>
	<note>
		B
	</note>
	<outline>
		<contour>
			<point x="120" y="0" type="line"/>
			<point x="315" y="0" type="line" smooth="yes"/>
			<point x="443" y="0"/>
			<point x="532" y="93"/>
			<point x="532" y="218" type="curve" smooth="yes"/>
			<point x="532" y="297"/>
			<point x="495" y="375"/>
			<point x="419" y="413" type="curve"/>
			<point x="418" y="400" type="line"/>
			<point x="473" y="372"/>
			<point x="520" y="306"/>
			<point x="520" y="218" type="curve" smooth="yes"/>
			<point x="520" y="100"/>
			<point x="436" y="12"/>
			<point x="315" y="12" type="curve" smooth="yes"/>
			<point x="120" y="12" type="line"/>
		</contour>
		<contour>
			<point x="120" y="220" type="line"/>
			<point x="215" y="220" type="line" smooth="yes"/>
			<point x="344" y="220"/>
			<point x="430" y="306"/>
			<point x="430" y="435" type="curve" smooth="yes"/>
			<point x="430" y="564"/>
			<point x="344" y="650"/>
			<point x="215" y="650" type="curve" smooth="yes"/>
			<point x="120" y="650" type="line"/>
			<point x="120" y="638" type="line"/>
			<point x="215" y="638" type="line" smooth="yes"/>
			<point x="338" y="638"/>
			<point x="418" y="558"/>
			<point x="418" y="435" type="curve" smooth="yes"/>
			<point x="418" y="312"/>
			<point x="338" y="232"/>
			<point x="215" y="232" type="curve" smooth="yes"/>
			<point x="120" y="232" type="line"/>
		</contour>
		<contour>
			<point x="120" y="0" type="line"/>
			<point x="132" y="0" type="line"/>
			<point x="132" y="650" type="line"/>
			<point x="120" y="650" type="line"/>
		</contour>
	</outline>
</glyph>
<glyph name="C" format="2">
	<advance width="565"/>
	<unicode hex="0043"/>
	<anchor x="410" y="0" name="bottom"/>
	<anchor x="410" y="650" name="top"/>
	<note>
		C
	</note>
	<outline>
		<contour>
			<point x="395" y="0" type="curve" smooth="yes"/>
			<point x="515" y="0" type="line"/>
			<point x="515" y="12" type="line"/>
			<point x="395" y="12" type="line" smooth="yes"/>
			<point x="213" y="12"/>
			<point x="92" y="137"/>
			<point x="92" y="325" type="curve"/>
			<point x="80" y="325" type="line"/>
			<point x="80" y="130"/>
			<point x="206" y="0"/>
		</contour>
		<contour>
			<point x="80" y="325" type="curve"/>
			<point x="92" y="325" type="line"/>
			<point x="92" y="515"/>
			<point x="214" y="638"/>
			<point x="395" y="638" type="curve" smooth="yes"/>
			<point x="515" y="638" type="line"/>
			<point x="515" y="650" type="line"/>
			<point x="395" y="650" type="line" smooth="yes"/>
			<point x="206" y="650"/>
			<point x="80" y="519"/>
		</contour>
	</outline>
</glyph>
<glyph name="D" format="2">
	<advance width="635"/>
	<unicode hex="0044"/>
	<anchor x="323" y="0" name="bottom"/>
	<anchor x="323" y="325" name="center"/>
	<anchor x="220" y="649" name="top"/>
	<note>
		D
	</note>
	<outline>
		<contour>
			<point x="132" y="0" type="line"/>
			<point x="132" y="650" type="line"/>
			<point x="120" y="650" type="line"/>
			<point x="120" y="0" type="line"/>
		</contour>
		<contour>
			<point x="240" y="0" type="line"/>
			<point x="429" y="0"/>
			<point x="555" y="130"/>
			<point x="555" y="325" type="curve"/>
			<point x="543" y="325" type="line"/>
			<point x="543" y="137"/>
			<point x="422" y="12"/>
			<point x="240" y="12" type="curve" smooth="yes"/>
			<point x="120" y="12" type="line"/>
			<point x="120" y="0" type="line"/>
		</contour>
		<contour>
			<point x="543" y="325" type="curve"/>
			<point x="555" y="325" type="line"/>
			<point x="555" y="519"/>
			<point x="429" y="650"/>
			<point x="240" y="650" type="curve" smooth="yes"/>
			<point x="120" y="650" type="line"/>
			<point x="120" y="638" type="line"/>
			<point x="240" y="638" type="line" smooth="yes"/>
			<point x="421" y="638"/>
			<point x="543" y="515"/>
		</contour>
	</outline>
</glyph>
<glyph name="E" format="2">
	<advance width="520"/>
	<unicode hex="0045"/>
	<guideline x="408" y="330" angle="0"/>
	<anchor x="275" y="0" name="bottom"/>
	<anchor x="403" y="0" name="ogonek"/>
	<anchor x="237" y="712" name="placement accent"/>
	<anchor x="275" y="650" name="top"/>
	<anchor x="40" y="650" name="topleft"/>
	<note>
		E
	</note>
	<outline>
		<contour>
			<point x="120" y="638" type="line"/>
			<point x="420" y="638" type="line"/>
			<point x="420" y="650" type="line"/>
			<point x="120" y="650" type="line"/>
		</contour>
		<contour>
			<point x="120" y="0" type="line"/>
			<point x="420" y="0" type="line"/>
			<point x="420" y="12" type="line"/>
			<point x="120" y="12" type="line"/>
		</contour>
		<contour>
			<point x="120" y="318" type="line"/>
			<point x="370" y="318" type="line"/>
			<point x="370" y="330" type="line"/>
			<point x="120" y="330" type="line"/>
		</contour>
		<contour>
			<point x="120" y="0" type="line"/>
			<point x="132" y="0" type="line"/>
			<point x="132" y="650" type="line"/>
			<point x="120" y="650" type="line"/>
		</contour>
	</outline>
</glyph>
<glyph name="F" format="2">
	<advance width="520"/>
	<unicode hex="0046"/>
	<guideline x="444" y="122" angle="0"/>
	<anchor x="260" y="0" name="bottom"/>
	<anchor x="260" y="650" name="top"/>
	<note>
		F
	</note>
	<outline>
		<contour>
			<point x="120" y="638" type="line"/>
			<point x="420" y="638" type="line"/>
			<point x="420" y="650" type="line"/>
			<point x="120" y="650" type="line"/>
		</contour>
		<contour>
			<point x="120" y="314" type="line"/>
			<point x="420" y="314" type="line"/>
			<point x="420" y="326" type="line"/>
			<point x="120" y="326" type="line"/>
		</contour>
		<contour>
			<point x="120" y="0" type="line"/>
			<point x="132" y="0" type="line"/>
			<point x="132" y="650" type="line"/>
			<point x="120" y="650" type="line"/>
		</contour>
	</outline>
</glyph>
<glyph name="H" format="2">
	<advance width="635"/>
	<unicode hex="0048"/>
	<anchor x="318" y="0" name="bottom"/>
	<anchor x="318" y="325" name="center"/>
	<anchor x="318" y="650" name="top"/>
	<anchor x="20" y="650" name="topleft"/>
	<note>
		H
	</note>
	<outline>
		<contour>
			<point x="120" y="320" type="line"/>
			<point x="515" y="320" type="line"/>
			<point x="515" y="332" type="line"/>
			<point x="120" y="332" type="line"/>
		</contour>
		<contour>
			<point x="120" y="0" type="line"/>
			<point x="132" y="0" type="line"/>
			<point x="132" y="650" type="line"/>
			<point x="120" y="650" type="line"/>
		</contour>
		<contour>
			<point x="503" y="0" type="line"/>
			<point x="515" y="0" type="line"/>
			<point x="515" y="650" type="line"/>
			<point x="503" y="650" type="line"/>
		</contour>
	</outline>
</glyph>
<glyph name="J" format="2">
	<advance width="486"/>
	<unicode hex="004A"/>
	<guideline x="544" y="-10" angle="0"/>
	<anchor x="218" y="0" name="bottom"/>
	<anchor x="360" y="650" name="top"/>
	<note>
		J
	</note>
	<outline>
		<contour>
			<point x="218" y="-10" type="curve" smooth="yes"/>
			<point x="299" y="-10"/>
			<point x="366" y="54"/>
			<point x="366" y="150" type="curve" smooth="yes"/>
			<point x="366" y="650" type="line"/>
			<point x="354" y="650" type="line"/>
			<point x="354" y="150" type="line" smooth="yes"/>
			<point x="354" y="60"/>
			<point x="293" y="2"/>
			<point x="218" y="2" type="curve" smooth="yes"/>
			<point x="143" y="2"/>
			<point x="82" y="60"/>
			<point x="82" y="150" type="curve" smooth="yes"/>
			<point x="82" y="276" type="line"/>
			<point x="70" y="276" type="line"/>
			<point x="70" y="150" type="line" smooth="yes"/>
			<point x="70" y="54"/>
			<point x="137" y="-10"/>
		</contour>
	</outline>
</glyph>
<glyph name="K" format="2">
	<advance width="590"/>
	<unicode hex="004B"/>
	<guideline x="370" y="318" angle="0"/>
	<guideline x="517" y="649" angle="90"/>
	<anchor x="308" y="0" name="bottom"/>
	<anchor x="308" y="649" name="top"/>
	<note>
		K
	</note>
	<outline>
		<contour>
			<point x="366" y="306" type="line"/>
			<point x="379" y="306" type="line"/>
			<point x="522" y="650" type="line"/>
			<point x="509" y="650" type="line"/>
		</contour>
		<contour>
			<point x="120" y="306" type="line"/>
			<point x="378" y="306" type="line"/>
			<point x="378" y="318" type="line"/>
			<point x="120" y="318" type="line"/>
		</contour>
		<contour>
			<point x="529" y="0" type="line"/>
			<point x="540" y="0" type="line"/>
			<point x="384" y="318" type="line"/>
			<point x="379" y="318" type="line"/>
			<point x="370" y="318" type="line"/>
		</contour>
		<contour>
			<point x="120" y="0" type="line"/>
			<point x="132" y="0" type="line"/>
			<point x="132" y="650" type="line"/>
			<point x="120" y="650" type="line"/>
		</contour>
	</outline>
</glyph>
<glyph name="L" format="2">
	<advance width="535"/>
	<unicode hex="004C"/>
	<anchor x="283" y="0" name="bottom"/>
	<anchor x="283" y="325" name="center"/>
	<anchor x="126" y="649" name="top"/>
	<anchor x="545" y="649" name="topright"/>
	<note>
		L
	</note>
	<outline>
		<contour>
			<point x="120" y="0" type="line"/>
			<point x="485" y="0" type="line"/>
			<point x="485" y="12" type="line"/>
			<point x="120" y="12" type="line"/>
		</contour>
		<contour>
			<point x="120" y="0" type="line"/>
			<point x="132" y="0" type="line"/>
			<point x="132" y="650" type="line"/>
			<point x="120" y="650" type="line"/>
		</contour>
	</outline>
</glyph>
<glyph name="M" format="2">
	<advance width="836"/>
	<unicode hex="004D"/>
	<guideline x="119" y="546" angle="0"/>
	<guideline x="592" y="310" angle="0"/>
	<anchor x="418" y="0" name="bottom"/>
	<anchor x="699" y="0" name="ogonek"/>
	<anchor x="418" y="650" name="top"/>
	<anchor x="560" y="649" name="topleft"/>
	<note>
		M
	</note>
	<outline>
		<contour>
			<point x="378" y="311" type="line"/>
			<point x="435" y="311" type="line"/>
			<point x="435" y="323" type="line"/>
			<point x="385" y="323" type="line"/>
			<point x="201" y="650" type="line"/>
			<point x="120" y="650" type="line"/>
			<point x="120" y="638" type="line"/>
			<point x="194" y="638" type="line"/>
		</contour>
		<contour>
			<point x="458" y="311" type="line"/>
			<point x="642" y="638" type="line"/>
			<point x="716" y="638" type="line"/>
			<point x="716" y="650" type="line"/>
			<point x="635" y="650" type="line"/>
			<point x="451" y="323" type="line"/>
			<point x="401" y="323" type="line"/>
			<point x="401" y="311" type="line"/>
		</contour>
		<contour>
			<point x="120" y="0" type="line"/>
			<point x="132" y="0" type="line"/>
			<point x="132" y="650" type="line"/>
			<point x="120" y="650" type="line"/>
		</contour>
		<contour>
			<point x="704" y="0" type="line"/>
			<point x="716" y="0" type="line"/>
			<point x="716" y="650" type="line"/>
			<point x="704" y="650" type="line"/>
		</contour>
	</outline>
</glyph>
<glyph name="N" format="2">
	<advance width="635"/>
	<unicode hex="004E"/>
	<anchor x="318" y="0" name="bottom"/>
	<anchor x="318" y="650" name="top"/>
	<note>
		N
	</note>
	<outline>
		<contour>
			<point x="435" y="311" type="line"/>
			<point x="515" y="311" type="line"/>
			<point x="515" y="323" type="line"/>
			<point x="441" y="323" type="line"/>
			<point x="200" y="650" type="line"/>
			<point x="120" y="650" type="line"/>
			<point x="120" y="638" type="line"/>
			<point x="194" y="638" type="line"/>
		</contour>
		<contour>
			<point x="120" y="0" type="line"/>
			<point x="132" y="0" type="line"/>
			<point x="132" y="650" type="line"/>
			<point x="120" y="650" type="line"/>
		</contour>
		<contour>
			<point x="503" y="0" type="line"/>
			<point x="515" y="0" type="line"/>
			<point x="515" y="650" type="line"/>
			<point x="503" y="650" type="line"/>
		</contour>
	</outline>
</glyph>
<glyph name="Q" format="2">
	<advance width="875"/>
	<unicode hex="0051"/>
	<anchor x="420" y="-16" name="bottom"/>
	<anchor x="420" y="664" name="top"/>
	<note>
		Q
	</note>
	<outline>
		<contour>
			<point x="712" y="0" type="line"/>
			<point x="727" y="0" type="line"/>
			<point x="515" y="219" type="line"/>
			<point x="507" y="210" type="line"/>
		</contour>
		<contour>
			<point x="420" y="-16" type="curve" smooth="yes"/>
			<point x="608" y="-16"/>
			<point x="760" y="136"/>
			<point x="760" y="324" type="curve" smooth="yes"/>
			<point x="760" y="512"/>
			<point x="608" y="664"/>
			<point x="420" y="664" type="curve" smooth="yes"/>
			<point x="232" y="664"/>
			<point x="80" y="512"/>
			<point x="80" y="324" type="curve" smooth="yes"/>
			<point x="80" y="136"/>
			<point x="232" y="-16"/>
		</contour>
		<contour>
			<point x="420" y="-4" type="curve" smooth="yes"/>
			<point x="238" y="-4"/>
			<point x="92" y="142"/>
			<point x="92" y="324" type="curve" smooth="yes"/>
			<point x="92" y="506"/>
			<point x="238" y="652"/>
			<point x="420" y="652" type="curve" smooth="yes"/>
			<point x="602" y="652"/>
			<point x="748" y="506"/>
			<point x="748" y="324" type="curve" smooth="yes"/>
			<point x="748" y="142"/>
			<point x="599" y="-4"/>
		</contour>
	</outline>
</glyph>
<glyph name="R" format="2">
	<advance width="617"/>
	<unicode hex="0052"/>
	<anchor x="319" y="0" name="bottom"/>
	<anchor x="289" y="649" name="top"/>
	<note>
		R
	</note>
	<outline>
		<contour>
			<point x="456" y="0" type="line"/>
			<point x="469" y="0" type="line"/>
			<point x="360" y="221" type="line"/>
			<point x="347" y="221" type="line"/>
		</contour>
		<contour>
			<point x="120" y="214" type="line"/>
			<point x="312" y="214" type="line" smooth="yes"/>
			<point x="441" y="214"/>
			<point x="527" y="301"/>
			<point x="527" y="432" type="curve" smooth="yes"/>
			<point x="527" y="563"/>
			<point x="441" y="650"/>
			<point x="312" y="650" type="curve" smooth="yes"/>
			<point x="120" y="650" type="line"/>
			<point x="120" y="638" type="line"/>
			<point x="312" y="638" type="line" smooth="yes"/>
			<point x="435" y="638"/>
			<point x="515" y="557"/>
			<point x="515" y="432" type="curve" smooth="yes"/>
			<point x="515" y="307"/>
			<point x="435" y="226"/>
			<point x="312" y="226" type="curve" smooth="yes"/>
			<point x="120" y="226" type="line"/>
		</contour>
		<contour>
			<point x="120" y="0" type="line"/>
			<point x="132" y="0" type="line"/>
			<point x="132" y="650" type="line"/>
			<point x="120" y="650" type="line"/>
		</contour>
	</outline>
</glyph>
<glyph name="S" format="2">
	<advance width="560"/>
	<unicode hex="0053"/>
	<guideline x="276" y="637" angle="90"/>
	<anchor x="280" y="0" name="bottom"/>
	<anchor x="280" y="650" name="top"/>
	<note>
		S
	</note>
	<outline>
		<contour>
			<point x="136" y="0" type="line"/>
			<point x="265" y="0" type="line" smooth="yes"/>
			<point x="407" y="0"/>
			<point x="480" y="97"/>
			<point x="480" y="193" type="curve" smooth="yes"/>
			<point x="480" y="288"/>
			<point x="409" y="382"/>
			<point x="265" y="382" type="curve" smooth="yes"/>
			<point x="258" y="382" type="line"/>
			<point x="258" y="370" type="line"/>
			<point x="265" y="370" type="line" smooth="yes"/>
			<point x="401" y="370"/>
			<point x="468" y="281"/>
			<point x="468" y="192" type="curve" smooth="yes"/>
			<point x="468" y="102"/>
			<point x="400" y="12"/>
			<point x="265" y="12" type="curve" smooth="yes"/>
			<point x="136" y="12" type="line"/>
		</contour>
		<contour>
			<point x="295" y="268" type="curve" smooth="yes"/>
			<point x="302" y="268" type="line"/>
			<point x="302" y="280" type="line"/>
			<point x="295" y="280" type="line" smooth="yes"/>
			<point x="160" y="280"/>
			<point x="92" y="369"/>
			<point x="92" y="458" type="curve" smooth="yes"/>
			<point x="92" y="548"/>
			<point x="160" y="638"/>
			<point x="295" y="638" type="curve" smooth="yes"/>
			<point x="393" y="638" type="line"/>
			<point x="393" y="650" type="line"/>
			<point x="295" y="650" type="line" smooth="yes"/>
			<point x="152" y="650"/>
			<point x="80" y="553"/>
			<point x="80" y="457" type="curve" smooth="yes"/>
			<point x="80" y="362"/>
			<point x="152" y="268"/>
		</contour>
	</outline>
</glyph>
<glyph name="T" format="2">
	<advance width="535"/>
	<unicode hex="0054"/>
	<anchor x="268" y="0" name="bottom"/>
	<anchor x="268" y="325" name="center"/>
	<anchor x="268" y="650" name="top"/>
	<note>
		T
	</note>
	<outline>
		<contour>
			<point x="50" y="638" type="line"/>
			<point x="485" y="638" type="line"/>
			<point x="485" y="650" type="line"/>
			<point x="50" y="650" type="line"/>
		</contour>
		<contour>
			<point x="262" y="0" type="line"/>
			<point x="274" y="0" type="line"/>
			<point x="274" y="650" type="line"/>
			<point x="262" y="650" type="line"/>
		</contour>
	</outline>
</glyph>
<glyph name="U" format="2">
	<advance width="690"/>
	<unicode hex="0055"/>
	<anchor x="345" y="0" name="bottom"/>
	<anchor x="397" y="0" name="ogonek"/>
	<anchor x="345" y="649" name="top"/>
	<anchor x="670" y="649" name="topright"/>
	<note>
		U
	</note>
	<outline>
		<contour>
			<point x="345" y="2" type="curve"/>
			<point x="345" y="-10" type="line"/>
			<point x="472" y="-10"/>
			<point x="570" y="64"/>
			<point x="570" y="205" type="curve" smooth="yes"/>
			<point x="570" y="650" type="line"/>
			<point x="558" y="650" type="line"/>
			<point x="558" y="205" type="line" smooth="yes"/>
			<point x="558" y="81"/>
			<point x="475" y="2"/>
		</contour>
		<contour>
			<point x="345" y="-10" type="curve"/>
			<point x="345" y="2" type="line"/>
			<point x="215" y="2"/>
			<point x="132" y="81"/>
			<point x="132" y="205" type="curve" smooth="yes"/>
			<point x="132" y="650" type="line"/>
			<point x="120" y="650" type="line"/>
			<point x="120" y="205" type="line" smooth="yes"/>
			<point x="120" y="64"/>
			<point x="218" y="-10"/>
		</contour>
	</outline>
</glyph>
<glyph name="V" format="2">
	<advance width="640"/>
	<unicode hex="0056"/>
	<anchor x="320" y="0" name="bottom"/>
	<anchor x="320" y="650" name="top"/>
	<note>
		V
	</note>
	<outline>
		<contour>
			<point x="590" y="650" type="line"/>
			<point x="577" y="650" type="line"/>
			<point x="352" y="12" type="line"/>
			<point x="289" y="12" type="line"/>
			<point x="63" y="650" type="line"/>
			<point x="50" y="650" type="line"/>
			<point x="280" y="0" type="line"/>
			<point x="360" y="0" type="line"/>
		</contour>
	</outline>
</glyph>
<glyph name="W" format="2">
	<advance width="880"/>
	<unicode hex="0057"/>
	<anchor x="440" y="0" name="bottom"/>
	<anchor x="440" y="650" name="top"/>
	<note>
		W
	</note>
	<outline>
		<contour>
			<point x="280" y="0" type="line"/>
			<point x="360" y="0" type="line"/>
			<point x="570" y="650" type="line"/>
			<point x="557" y="650" type="line"/>
			<point x="352" y="12" type="line"/>
			<point x="288" y="12" type="line"/>
			<point x="62" y="650" type="line"/>
			<point x="50" y="650" type="line"/>
		</contour>
		<contour>
			<point x="519" y="0" type="line"/>
			<point x="600" y="0" type="line"/>
			<point x="830" y="650" type="line"/>
			<point x="817" y="650" type="line"/>
			<point x="592" y="12" type="line"/>
			<point x="528" y="12" type="line"/>
			<point x="322" y="650" type="line"/>
			<point x="309" y="650" type="line"/>
		</contour>
	</outline>
</glyph>
<glyph name="X" format="2">
	<advance width="538"/>
	<unicode hex="0058"/>
	<guideline x="287" y="325" angle="0"/>
	<anchor x="269" y="0" name="bottom"/>
	<anchor x="269" y="650" name="top"/>
	<note>
		X
	</note>
	<outline>
		<contour>
			<point x="276" y="325" type="line"/>
			<point x="64" y="650" type="line"/>
			<point x="50" y="650" type="line"/>
			<point x="262" y="325" type="line"/>
		</contour>
		<contour>
			<point x="262" y="325" type="line"/>
			<point x="276" y="325" type="line"/>
			<point x="488" y="650" type="line"/>
			<point x="474" y="650" type="line"/>
		</contour>
		<contour>
			<point x="276" y="325" type="line"/>
			<point x="262" y="325" type="line"/>
			<point x="50" y="0" type="line"/>
			<point x="64" y="0" type="line"/>
		</contour>
		<contour>
			<point x="262" y="325" type="line"/>
			<point x="474" y="0" type="line"/>
			<point x="488" y="0" type="line"/>
			<point x="276" y="325" type="line"/>
		</contour>
	</outline>
</glyph>
<glyph name="Y" format="2">
	<advance width="517"/>
	<unicode hex="0059"/>
	<anchor x="259" y="0" name="bottom"/>
	<anchor x="259" y="650" name="top"/>
	<anchor x="20" y="650" name="topleft"/>
	<note>
		Y
	</note>
	<outline>
		<contour>
			<point x="253" y="0" type="line"/>
			<point x="265" y="0" type="line"/>
			<point x="265" y="298" type="line"/>
			<point x="253" y="298" type="line"/>
		</contour>
		<contour>
			<point x="40" y="650" type="line"/>
			<point x="218" y="286" type="line"/>
			<point x="299" y="286" type="line"/>
			<point x="477" y="650" type="line"/>
			<point x="464" y="650" type="line"/>
			<point x="291" y="298" type="line"/>
			<point x="226" y="298" type="line"/>
			<point x="53" y="650" type="line"/>
		</contour>
	</outline>
</glyph>
<glyph name="Z" format="2">
	<advance width="544"/>
	<unicode hex="005A"/>
	<guideline x="524" y="104" angle="90"/>
	<anchor x="272" y="0" name="bottom"/>
	<anchor x="272" y="325" name="center"/>
	<anchor x="272" y="650" name="top"/>
	<note>
		Z
	</note>
	<outline>
		<contour>
			<point x="60" y="0" type="line"/>
			<point x="74" y="0" type="line"/>
			<point x="474" y="650" type="line"/>
			<point x="460" y="650" type="line"/>
		</contour>
		<contour>
			<point x="70" y="0" type="line"/>
			<point x="484" y="0" type="line"/>
			<point x="484" y="12" type="line"/>
			<point x="70" y="12" type="line"/>
		</contour>
		<contour>
			<point x="70" y="638" type="line"/>
			<point x="464" y="638" type="line"/>
			<point x="464" y="650" type="line"/>
			<point x="70" y="650" type="line"/>
		</contour>
	</outline>
</glyph>
<glyph name="bracketleft" format="2">
	<advance width="460"/>
	<unicode hex="005B"/>
	<outline>
		<contour>
			<point x="120" y="683" type="line"/>
			<point x="340" y="683" type="line"/>
			<point x="340" y="695" type="line"/>
			<point x="120" y="695" type="line"/>
		</contour>
		<contour>
			<point x="120" y="-47" type="line"/>
			<point x="340" y="-47" type="line"/>
			<point x="340" y="-35" type="line"/>
			<point x="120" y="-35" type="line"/>
		</contour>
		<contour>
			<point x="120" y="-47" type="line"/>
			<point x="132" y="-47" type="line"/>
			<point x="132" y="695" type="line"/>
			<point x="120" y="695" type="line"/>
		</contour>
	</outline>
</glyph>
<glyph name="backslash" format="2">
	<advance width="500"/>
	<unicode hex="005C"/>
	<outline>
		<contour>
			<point x="357" y="0" type="line"/>
			<point x="157" y="649" type="line"/>
			<point x="144" y="649" type="line"/>
			<point x="344" y="0" type="line"/>
		</contour>
	</outline>
</glyph>
<glyph name="bracketright" format="2">
	<advance width="460"/>
	<unicode hex="005D"/>
	<outline>
		<contour>
			<point x="340" y="683" type="line"/>
			<point x="340" y="695" type="line"/>
			<point x="120" y="695" type="line"/>
			<point x="120" y="683" type="line"/>
		</contour>
		<contour>
			<point x="340" y="-47" type="line"/>
			<point x="340" y="-35" type="line"/>
			<point x="120" y="-35" type="line"/>
			<point x="120" y="-47" type="line"/>
		</contour>
		<contour>
			<point x="340" y="-47" type="line"/>
			<point x="340" y="695" type="line"/>
			<point x="328" y="695" type="line"/>
			<point x="328" y="-47" type="line"/>
		</contour>
	</outline>
</glyph>
<glyph name="asciicircum" format="2">
	<advance width="590"/>
	<unicode hex="005E"/>
	<outline>
		<contour>
			<point x="50" y="354" type="line"/>
			<point x="64" y="354" type="line"/>
			<point x="263" y="637" type="line"/>
			<point x="327" y="637" type="line"/>
			<point x="526" y="354" type="line"/>
			<point x="540" y="354" type="line"/>
			<point x="335" y="649" type="line"/>
			<point x="255" y="649" type="line"/>
		</contour>
	</outline>
</glyph>
<glyph name="grave" format="2">
	<advance width="530"/>
	<unicode hex="0060"/>
	<anchor x="205" y="649" name="_top"/>
	<anchor x="205" y="800" name="top"/>
	<outline>
		<contour>
			<point x="210" y="700" type="line"/>
			<point x="154" y="800" type="line"/>
			<point x="140" y="800" type="line"/>
			<point x="196" y="700" type="line"/>
		</contour>
	</outline>
</glyph>
<glyph name="c" format="2">
	<advance width="440"/>
	<unicode hex="0063"/>
	<anchor x="281" y="0" name="bottom"/>
	<anchor x="281" y="520" name="top"/>
	<outline>
		<contour>
			<point x="380" y="12" type="line"/>
			<point x="281" y="12" type="line" smooth="yes"/>
			<point x="156" y="12"/>
			<point x="72" y="105"/>
			<point x="72" y="260" type="curve"/>
			<point x="60" y="260" type="line"/>
			<point x="61" y="93"/>
			<point x="153" y="0"/>
			<point x="281" y="0" type="curve" smooth="yes"/>
			<point x="380" y="0" type="line"/>
		</contour>
		<contour>
			<point x="281" y="508" type="curve" smooth="yes"/>
			<point x="380" y="508" type="line"/>
			<point x="380" y="520" type="line"/>
			<point x="281" y="520" type="line" smooth="yes"/>
			<point x="153" y="520"/>
			<point x="61" y="427"/>
			<point x="60" y="260" type="curve"/>
			<point x="72" y="260" type="line"/>
			<point x="72" y="415"/>
			<point x="156" y="508"/>
		</contour>
	</outline>
</glyph>
<glyph name="d" format="2">
	<advance width="560"/>
	<unicode hex="0064"/>
	<outline>
		<contour>
			<point x="281" y="508" type="curve" smooth="yes"/>
			<point x="470" y="508" type="line"/>
			<point x="470" y="520" type="line"/>
			<point x="281" y="520" type="line" smooth="yes"/>
			<point x="153" y="520"/>
			<point x="61" y="427"/>
			<point x="60" y="260" type="curve"/>
			<point x="72" y="260" type="line"/>
			<point x="72" y="416"/>
			<point x="156" y="508"/>
		</contour>
		<contour>
			<point x="470" y="12" type="line"/>
			<point x="281" y="12" type="line" smooth="yes"/>
			<point x="156" y="12"/>
			<point x="72" y="105"/>
			<point x="72" y="260" type="curve"/>
			<point x="60" y="260" type="line"/>
			<point x="61" y="93"/>
			<point x="153" y="0"/>
			<point x="281" y="0" type="curve" smooth="yes"/>
			<point x="470" y="0" type="line"/>
		</contour>
		<contour>
			<point x="470" y="720" type="line"/>
			<point x="458" y="720" type="line"/>
			<point x="458" y="0" type="line"/>
			<point x="470" y="0" type="line"/>
		</contour>
	</outline>
</glyph>
<glyph name="e" format="2">
	<advance width="535"/>
	<unicode hex="0065"/>
	<guideline x="485" y="265" angle="0"/>
	<anchor x="320" y="0" name="bottom"/>
	<anchor x="373" y="0" name="ogonek"/>
	<anchor x="320" y="520" name="top"/>
	<outline>
		<contour>
			<point x="60" y="260" type="curve"/>
			<point x="72" y="260" type="line"/>
			<point x="72" y="415"/>
			<point x="156" y="508"/>
			<point x="281" y="508" type="curve" smooth="yes"/>
			<point x="455" y="508" type="line"/>
			<point x="455" y="520" type="line"/>
			<point x="281" y="520" type="line" smooth="yes"/>
			<point x="153" y="520"/>
			<point x="61" y="427"/>
		</contour>
		<contour>
			<point x="281" y="0" type="curve" smooth="yes"/>
			<point x="396" y="0" type="line"/>
			<point x="396" y="12" type="line"/>
			<point x="281" y="12" type="line" smooth="yes"/>
			<point x="156" y="12"/>
			<point x="72" y="105"/>
			<point x="72" y="260" type="curve"/>
			<point x="60" y="260" type="line"/>
			<point x="61" y="93"/>
			<point x="153" y="0"/>
		</contour>
		<contour>
			<point x="198" y="200" type="line"/>
			<point x="455" y="200" type="line"/>
			<point x="455" y="212" type="line"/>
			<point x="198" y="212" type="line"/>
		</contour>
		<contour>
			<point x="443" y="200" type="line"/>
			<point x="455" y="200" type="line"/>
			<point x="455" y="520" type="line"/>
			<point x="443" y="520" type="line"/>
		</contour>
	</outline>
</glyph>
<glyph name="f" format="2">
	<advance width="380"/>
	<unicode hex="0066"/>
	<outline>
		<contour>
			<point x="320" y="698" type="line"/>
			<point x="320" y="710" type="line"/>
			<point x="90" y="710" type="line"/>
			<point x="90" y="698" type="line"/>
		</contour>
		<contour>
			<point x="320" y="508" type="line"/>
			<point x="320" y="520" type="line"/>
			<point x="90" y="520" type="line"/>
			<point x="90" y="508" type="line"/>
		</contour>
		<contour>
			<point x="90" y="0" type="line"/>
			<point x="102" y="0" type="line"/>
			<point x="102" y="710" type="line"/>
			<point x="90" y="710" type="line"/>
		</contour>
	</outline>
</glyph>
<glyph name="g" format="2">
	<advance width="610"/>
	<unicode hex="0067"/>
	<guideline x="12" y="-175" angle="0"/>
	<guideline x="172" y="-218" angle="90"/>
	<anchor x="280" y="-175" name="bottom"/>
	<anchor x="281" y="540" name="top"/>
	<outline>
		<contour>
			<point x="72" y="345" type="curve"/>
			<point x="60" y="345" type="line"/>
			<point x="60" y="247"/>
			<point x="137" y="150"/>
			<point x="281" y="150" type="curve" smooth="yes"/>
			<point x="425" y="150"/>
			<point x="502" y="247"/>
			<point x="502" y="345" type="curve"/>
			<point x="490" y="345" type="line"/>
			<point x="490" y="243"/>
			<point x="398" y="162"/>
			<point x="281" y="162" type="curve" smooth="yes"/>
			<point x="164" y="162"/>
			<point x="72" y="243"/>
		</contour>
		<contour>
			<point x="60" y="345" type="curve"/>
			<point x="72" y="345" type="line"/>
			<point x="72" y="447"/>
			<point x="164" y="528"/>
			<point x="281" y="528" type="curve" smooth="yes"/>
			<point x="398" y="528"/>
			<point x="490" y="447"/>
			<point x="490" y="345" type="curve"/>
			<point x="502" y="345" type="line"/>
			<point x="502" y="442"/>
			<point x="425" y="540"/>
			<point x="281" y="540" type="curve" smooth="yes"/>
			<point x="137" y="540"/>
			<point x="60" y="443"/>
		</contour>
		<contour>
			<point x="490" y="620" type="line"/>
			<point x="490" y="345" type="line"/>
			<point x="502" y="345" type="line"/>
			<point x="502" y="620" type="line"/>
		</contour>
		<contour>
			<point x="192" y="0" type="line"/>
			<point x="204" y="0" type="line"/>
			<point x="204" y="170" type="line"/>
			<point x="192" y="170" type="line"/>
		</contour>
		<contour>
			<point x="72" y="12" type="line"/>
			<point x="72" y="0" type="line"/>
			<point x="540" y="0" type="line"/>
			<point x="540" y="12" type="line"/>
		</contour>
		<contour>
			<point x="528" y="12" type="line"/>
			<point x="528" y="-24" type="line" smooth="yes"/>
			<point x="528" y="-107"/>
			<point x="469" y="-163"/>
			<point x="381" y="-163" type="curve" smooth="yes"/>
			<point x="172" y="-163" type="line"/>
			<point x="172" y="-175" type="line"/>
			<point x="381" y="-175" type="line" smooth="yes"/>
			<point x="476" y="-175"/>
			<point x="540" y="-114"/>
			<point x="540" y="-24" type="curve" smooth="yes"/>
			<point x="540" y="12" type="line"/>
		</contour>
	</outline>
</glyph>
<glyph name="h" format="2">
	<advance width="540"/>
	<unicode hex="0068"/>
	<outline>
		<contour>
			<point x="90" y="508" type="line"/>
			<point x="299" y="508" type="line" smooth="yes"/>
			<point x="382" y="508"/>
			<point x="438" y="449"/>
			<point x="438" y="361" type="curve" smooth="yes"/>
			<point x="438" y="0" type="line"/>
			<point x="450" y="0" type="line"/>
			<point x="450" y="361" type="line" smooth="yes"/>
			<point x="450" y="456"/>
			<point x="389" y="520"/>
			<point x="299" y="520" type="curve" smooth="yes"/>
			<point x="90" y="520" type="line"/>
		</contour>
		<contour>
			<point x="90" y="0" type="line"/>
			<point x="102" y="0" type="line"/>
			<point x="102" y="710" type="line"/>
			<point x="90" y="710" type="line"/>
		</contour>
	</outline>
</glyph>
<glyph name="k" format="2">
	<advance width="565"/>
	<unicode hex="006B"/>
	<anchor x="283" y="0" name="bottom"/>
	<anchor x="283" y="710" name="top"/>
	<outline>
		<contour>
			<point x="372" y="249" type="line"/>
			<point x="372" y="261" type="line"/>
			<point x="110" y="261" type="line"/>
			<point x="110" y="249" type="line"/>
		</contour>
		<contour>
			<point x="492" y="520" type="line"/>
			<point x="362" y="249" type="line"/>
			<point x="375" y="249" type="line"/>
			<point x="505" y="520" type="line"/>
		</contour>
		<contour>
			<point x="492" y="0" type="line"/>
			<point x="505" y="0" type="line"/>
			<point x="377" y="266" type="line"/>
			<point x="372" y="250" type="line"/>
		</contour>
		<contour>
			<point x="110" y="0" type="line"/>
			<point x="122" y="0" type="line"/>
			<point x="122" y="710" type="line"/>
			<point x="110" y="710" type="line"/>
		</contour>
	</outline>
</glyph>
<glyph name="l" format="2">
	<advance width="390"/>
	<unicode hex="006C"/>
	<anchor x="200" y="0" name="bottom"/>
	<anchor x="96" y="400" name="center"/>
	<anchor x="96" y="710" name="top"/>
	<anchor x="366" y="800" name="topright"/>
	<outline>
		<contour>
			<point x="320" y="0" type="line"/>
			<point x="320" y="12" type="line"/>
			<point x="90" y="12" type="line"/>
			<point x="90" y="0" type="line"/>
		</contour>
		<contour>
			<point x="90" y="0" type="line"/>
			<point x="102" y="0" type="line"/>
			<point x="102" y="710" type="line"/>
			<point x="90" y="710" type="line"/>
		</contour>
	</outline>
</glyph>
<glyph name="m" format="2">
	<advance width="765"/>
	<unicode hex="006D"/>
	<outline>
		<contour>
			<point x="90" y="508" type="line"/>
			<point x="524" y="508" type="line" smooth="yes"/>
			<point x="607" y="508"/>
			<point x="663" y="449"/>
			<point x="663" y="361" type="curve" smooth="yes"/>
			<point x="663" y="0" type="line"/>
			<point x="675" y="0" type="line"/>
			<point x="675" y="361" type="line" smooth="yes"/>
			<point x="675" y="456"/>
			<point x="614" y="520"/>
			<point x="524" y="520" type="curve" smooth="yes"/>
			<point x="90" y="520" type="line"/>
		</contour>
		<contour>
			<point x="377" y="0" type="line"/>
			<point x="389" y="0" type="line"/>
			<point x="389" y="520" type="line"/>
			<point x="377" y="520" type="line"/>
		</contour>
		<contour>
			<point x="90" y="0" type="line"/>
			<point x="102" y="0" type="line"/>
			<point x="102" y="520" type="line"/>
			<point x="90" y="520" type="line"/>
		</contour>
	</outline>
</glyph>
<glyph name="n" format="2">
	<advance width="540"/>
	<unicode hex="006E"/>
	<anchor x="280" y="0" name="bottom"/>
	<anchor x="270" y="520" name="top"/>
	<outline>
		<contour>
			<point x="90" y="508" type="line"/>
			<point x="299" y="508" type="line" smooth="yes"/>
			<point x="382" y="508"/>
			<point x="438" y="449"/>
			<point x="438" y="361" type="curve" smooth="yes"/>
			<point x="438" y="0" type="line"/>
			<point x="450" y="0" type="line"/>
			<point x="450" y="361" type="line" smooth="yes"/>
			<point x="450" y="456"/>
			<point x="389" y="520"/>
			<point x="299" y="520" type="curve" smooth="yes"/>
			<point x="90" y="520" type="line"/>
		</contour>
		<contour>
			<point x="90" y="0" type="line"/>
			<point x="102" y="0" type="line"/>
			<point x="102" y="520" type="line"/>
			<point x="90" y="520" type="line"/>
		</contour>
	</outline>
</glyph>
<glyph name="o" format="2">
	<advance width="650"/>
	<unicode hex="006F"/>
	<anchor x="325" y="0" name="bottom"/>
	<anchor x="325" y="260" name="center"/>
	<anchor x="369" y="0" name="ogonek"/>
	<anchor x="325" y="520" name="top"/>
	<anchor x="650" y="520" name="topright"/>
	<outline>
		<contour>
			<point x="325" y="7" type="curve" smooth="yes"/>
			<point x="186" y="7"/>
			<point x="72" y="121"/>
			<point x="72" y="260" type="curve" smooth="yes"/>
			<point x="72" y="399"/>
			<point x="186" y="513"/>
			<point x="325" y="513" type="curve" smooth="yes"/>
			<point x="464" y="513"/>
			<point x="578" y="399"/>
			<point x="578" y="260" type="curve" smooth="yes"/>
			<point x="578" y="121"/>
			<point x="464" y="7"/>
		</contour>
		<contour>
			<point x="325" y="-5" type="curve" smooth="yes"/>
			<point x="471" y="-5"/>
			<point x="590" y="114"/>
			<point x="590" y="260" type="curve" smooth="yes"/>
			<point x="590" y="406"/>
			<point x="471" y="525"/>
			<point x="325" y="525" type="curve" smooth="yes"/>
			<point x="179" y="525"/>
			<point x="60" y="406"/>
			<point x="60" y="260" type="curve" smooth="yes"/>
			<point x="60" y="114"/>
			<point x="179" y="-5"/>
		</contour>
	</outline>
</glyph>
<glyph name="q" format="2">
	<advance width="570"/>
	<unicode hex="0071"/>
	<outline>
		<contour>
			<point x="291" y="508" type="curve" smooth="yes"/>
			<point x="480" y="508" type="line"/>
			<point x="480" y="520" type="line"/>
			<point x="291" y="520" type="line" smooth="yes"/>
			<point x="163" y="520"/>
			<point x="71" y="427"/>
			<point x="70" y="260" type="curve"/>
			<point x="82" y="260" type="line"/>
			<point x="82" y="415"/>
			<point x="166" y="508"/>
		</contour>
		<contour>
			<point x="480" y="12" type="line"/>
			<point x="291" y="12" type="line" smooth="yes"/>
			<point x="166" y="12"/>
			<point x="82" y="105"/>
			<point x="82" y="260" type="curve"/>
			<point x="70" y="260" type="line"/>
			<point x="71" y="93"/>
			<point x="163" y="0"/>
			<point x="291" y="0" type="curve" smooth="yes"/>
			<point x="480" y="0" type="line"/>
		</contour>
		<contour>
			<point x="480" y="-200" type="line"/>
			<point x="480" y="520" type="line"/>
			<point x="468" y="520" type="line"/>
			<point x="468" y="-200" type="line"/>
		</contour>
	</outline>
</glyph>
<glyph name="r" format="2">
	<advance width="380"/>
	<unicode hex="0072"/>
	<anchor x="96" y="0" name="bottom"/>
	<anchor x="200" y="520" name="top"/>
	<outline>
		<contour>
			<point x="320" y="508" type="line"/>
			<point x="320" y="520" type="line"/>
			<point x="90" y="520" type="line"/>
			<point x="90" y="508" type="line"/>
		</contour>
		<contour>
			<point x="90" y="0" type="line"/>
			<point x="102" y="0" type="line"/>
			<point x="102" y="520" type="line"/>
			<point x="90" y="520" type="line"/>
		</contour>
	</outline>
</glyph>
<glyph name="s" format="2">
	<advance width="525"/>
	<unicode hex="0073"/>
	<anchor x="259" y="0" name="bottom"/>
	<anchor x="259" y="520" name="top"/>
	<outline>
		<contour>
			<point x="72" y="350" type="curve"/>
			<point x="60" y="350" type="line"/>
			<point x="60" y="255"/>
			<point x="134" y="180"/>
			<point x="228" y="180" type="curve" smooth="yes"/>
			<point x="265" y="180" type="line"/>
			<point x="265" y="192" type="line"/>
			<point x="228" y="192" type="line" smooth="yes"/>
			<point x="141" y="192"/>
			<point x="72" y="262"/>
		</contour>
		<contour>
			<point x="60" y="350" type="curve"/>
			<point x="72" y="350" type="line"/>
			<point x="72" y="438"/>
			<point x="141" y="508"/>
			<point x="228" y="508" type="curve" smooth="yes"/>
			<point x="390" y="508" type="line"/>
			<point x="390" y="520" type="line"/>
			<point x="228" y="520" type="line" smooth="yes"/>
			<point x="134" y="520"/>
			<point x="60" y="445"/>
		</contour>
		<contour>
			<point x="453" y="170" type="curve"/>
			<point x="465" y="170" type="line"/>
			<point x="465" y="265"/>
			<point x="391" y="340"/>
			<point x="297" y="340" type="curve" smooth="yes"/>
			<point x="260" y="340" type="line"/>
			<point x="260" y="328" type="line"/>
			<point x="297" y="328" type="line" smooth="yes"/>
			<point x="384" y="328"/>
			<point x="453" y="258"/>
		</contour>
		<contour>
			<point x="465" y="170" type="curve"/>
			<point x="453" y="170" type="line"/>
			<point x="453" y="82"/>
			<point x="384" y="12"/>
			<point x="297" y="12" type="curve" smooth="yes"/>
			<point x="85" y="12" type="line"/>
			<point x="85" y="0" type="line"/>
			<point x="297" y="0" type="line" smooth="yes"/>
			<point x="391" y="0"/>
			<point x="465" y="75"/>
		</contour>
	</outline>
</glyph>
<glyph name="t" format="2">
	<advance width="490"/>
	<unicode hex="0074"/>
	<anchor x="291" y="0" name="bottom"/>
	<anchor x="240" y="260" name="center"/>
	<anchor x="146" y="650" name="top"/>
	<anchor x="470" y="520" name="topright"/>
	<outline>
		<contour>
			<point x="70" y="520" type="line"/>
			<point x="70" y="508" type="line"/>
			<point x="410" y="508" type="line"/>
			<point x="410" y="520" type="line"/>
		</contour>
		<contour>
			<point x="410" y="12" type="line"/>
			<point x="291" y="12" type="line" smooth="yes"/>
			<point x="208" y="12"/>
			<point x="152" y="71"/>
			<point x="152" y="159" type="curve" smooth="yes"/>
			<point x="152" y="650" type="line"/>
			<point x="140" y="650" type="line"/>
			<point x="140" y="159" type="line" smooth="yes"/>
			<point x="140" y="64"/>
			<point x="201" y="0"/>
			<point x="291" y="0" type="curve" smooth="yes"/>
			<point x="410" y="0" type="line"/>
		</contour>
	</outline>
</glyph>
<glyph name="u" format="2">
	<advance width="540"/>
	<unicode hex="0075"/>
	<anchor x="265" y="0" name="bottom"/>
	<anchor x="433" y="0" name="ogonek"/>
	<anchor x="265" y="510" name="top"/>
	<anchor x="510" y="510" name="topright"/>
	<outline>
		<contour>
			<point x="450" y="12" type="line"/>
			<point x="241" y="12" type="line" smooth="yes"/>
			<point x="158" y="12"/>
			<point x="102" y="71"/>
			<point x="102" y="159" type="curve" smooth="yes"/>
			<point x="102" y="520" type="line"/>
			<point x="90" y="520" type="line"/>
			<point x="90" y="159" type="line" smooth="yes"/>
			<point x="90" y="64"/>
			<point x="151" y="0"/>
			<point x="241" y="0" type="curve" smooth="yes"/>
			<point x="450" y="0" type="line"/>
		</contour>
		<contour>
			<point x="450" y="520" type="line"/>
			<point x="438" y="520" type="line"/>
			<point x="438" y="0" type="line"/>
			<point x="450" y="0" type="line"/>
		</contour>
	</outline>
</glyph>
<glyph name="v" format="2">
	<advance width="558"/>
	<unicode hex="0076"/>
	<guideline x="486" y="12" angle="0"/>
	<outline>
		<contour>
			<point x="496" y="520" type="line"/>
			<point x="332" y="12" type="line"/>
			<point x="227" y="12" type="line"/>
			<point x="62" y="520" type="line"/>
			<point x="50" y="520" type="line"/>
			<point x="218" y="0" type="line"/>
			<point x="340" y="0" type="line"/>
			<point x="508" y="520" type="line"/>
		</contour>
	</outline>
</glyph>
<glyph name="w" format="2">
	<advance width="820"/>
	<unicode hex="0077"/>
	<guideline x="457" y="12" angle="0"/>
	<anchor x="410" y="0" name="bottom"/>
	<anchor x="410" y="520" name="top"/>
	<outline>
		<contour>
			<point x="63" y="520" type="line"/>
			<point x="191" y="0" type="line"/>
			<point x="281" y="0" type="line"/>
			<point x="381" y="508" type="line"/>
			<point x="439" y="508" type="line"/>
			<point x="539" y="0" type="line"/>
			<point x="629" y="0" type="line"/>
			<point x="757" y="520" type="line"/>
			<point x="745" y="520" type="line"/>
			<point x="620" y="12" type="line"/>
			<point x="550" y="12" type="line"/>
			<point x="450" y="520" type="line"/>
			<point x="370" y="520" type="line"/>
			<point x="270" y="12" type="line"/>
			<point x="200" y="12" type="line"/>
			<point x="75" y="520" type="line"/>
		</contour>
	</outline>
</glyph>
<glyph name="x" format="2">
	<advance width="514"/>
	<unicode hex="0078"/>
	<outline>
		<contour>
			<point x="443" y="520" type="line"/>
			<point x="250" y="260" type="line"/>
			<point x="265" y="260" type="line"/>
			<point x="458" y="520" type="line"/>
		</contour>
		<contour>
			<point x="71" y="520" type="line"/>
			<point x="56" y="520" type="line"/>
			<point x="249" y="260" type="line"/>
			<point x="264" y="260" type="line"/>
		</contour>
		<contour>
			<point x="443" y="0" type="line"/>
			<point x="458" y="0" type="line"/>
			<point x="265" y="260" type="line"/>
			<point x="250" y="260" type="line"/>
		</contour>
		<contour>
			<point x="71" y="0" type="line"/>
			<point x="264" y="260" type="line"/>
			<point x="249" y="260" type="line"/>
			<point x="56" y="0" type="line"/>
		</contour>
	</outline>
</glyph>
<glyph name="y" format="2">
	<advance width="558"/>
	<unicode hex="0079"/>
	<anchor x="281" y="-200" name="bottom"/>
	<anchor x="279" y="520" name="top"/>
	<outline>
		<contour>
			<point x="496" y="520" type="line"/>
			<point x="273" y="2" type="line"/>
			<point x="277" y="2" type="line"/>
			<point x="62" y="520" type="line"/>
			<point x="50" y="520" type="line"/>
			<point x="269" y="-10" type="line"/>
			<point x="281" y="-10" type="line"/>
			<point x="508" y="520" type="line"/>
		</contour>
		<contour>
			<point x="281" y="0" type="line"/>
			<point x="269" y="0" type="line"/>
			<point x="269" y="-200" type="line"/>
			<point x="281" y="-200" type="line"/>
		</contour>
		<contour>
			<point x="114" y="-188" type="line"/>
			<point x="114" y="-200" type="line"/>
			<point x="281" y="-200" type="line"/>
			<point x="281" y="-188" type="line"/>
		</contour>
	</outline>
</glyph>
<glyph name="z" format="2">
	<advance width="495"/>
	<unicode hex="007A"/>
	<guideline x="71" y="152" angle="90"/>
	<guideline x="424" y="289" angle="90"/>
	<anchor x="248" y="0" name="bottom"/>
	<anchor x="248" y="260" name="center"/>
	<anchor x="248" y="520" name="top"/>
	<outline>
		<contour>
			<point x="420" y="520" type="line"/>
			<point x="60" y="0" type="line"/>
			<point x="75" y="0" type="line"/>
			<point x="435" y="520" type="line"/>
		</contour>
		<contour>
			<point x="71" y="0" type="line"/>
			<point x="429" y="0" type="line"/>
			<point x="429" y="12" type="line"/>
			<point x="71" y="12" type="line"/>
		</contour>
		<contour>
			<point x="66" y="508" type="line"/>
			<point x="424" y="508" type="line"/>
			<point x="424" y="520" type="line"/>
			<point x="66" y="520" type="line"/>
		</contour>
	</outline>
</glyph>
<glyph name="braceleft" format="2">
	<advance width="514"/>
	<unicode hex="007B"/>
	<outline>
		<contour>
			<point x="384" y="637" type="line"/>
			<point x="424" y="637" type="line"/>
			<point x="424" y="649" type="line"/>
			<point x="384" y="649" type="line"/>
		</contour>
		<contour>
			<point x="384" y="637" type="curve"/>
			<point x="384" y="649" type="line"/>
			<point x="278" y="649"/>
			<point x="210" y="580"/>
			<point x="210" y="474" type="curve"/>
			<point x="222" y="474" type="line"/>
			<point x="222" y="573"/>
			<point x="286" y="637"/>
		</contour>
		<contour>
			<point x="210" y="474" type="line"/>
			<point x="210" y="331" type="line"/>
			<point x="222" y="331" type="line"/>
			<point x="222" y="474" type="line"/>
		</contour>
		<contour>
			<point x="384" y="12" type="line"/>
			<point x="384" y="0" type="line"/>
			<point x="424" y="0" type="line"/>
			<point x="424" y="12" type="line"/>
		</contour>
		<contour>
			<point x="384" y="0" type="curve"/>
			<point x="384" y="12" type="line"/>
			<point x="286" y="12"/>
			<point x="222" y="76"/>
			<point x="222" y="175" type="curve"/>
			<point x="210" y="175" type="line"/>
			<point x="210" y="69"/>
			<point x="278" y="0"/>
		</contour>
		<contour>
			<point x="210" y="175" type="line"/>
			<point x="222" y="175" type="line"/>
			<point x="222" y="319" type="line"/>
			<point x="210" y="319" type="line"/>
		</contour>
		<contour>
			<point x="90" y="331" type="line"/>
			<point x="90" y="319" type="line"/>
			<point x="210" y="319" type="line"/>
			<point x="210" y="331" type="line"/>
		</contour>
	</outline>
</glyph>
<glyph name="bar" format="2">
	<advance width="310"/>
	<unicode hex="007C"/>
	<outline>
		<contour>
			<point x="149" y="-100" type="line"/>
			<point x="161" y="-100" type="line"/>
			<point x="161" y="750" type="line"/>
			<point x="149" y="750" type="line"/>
		</contour>
	</outline>
</glyph>
<glyph name="braceright" format="2">
	<advance width="562"/>
	<unicode hex="007D"/>
	<outline>
		<contour>
			<point x="178" y="637" type="line"/>
			<point x="178" y="649" type="line"/>
			<point x="138" y="649" type="line"/>
			<point x="138" y="637" type="line"/>
		</contour>
		<contour>
			<point x="178" y="649" type="curve"/>
			<point x="178" y="637" type="line"/>
			<point x="276" y="637"/>
			<point x="340" y="573"/>
			<point x="340" y="474" type="curve"/>
			<point x="352" y="474" type="line"/>
			<point x="352" y="580"/>
			<point x="284" y="649"/>
		</contour>
		<contour>
			<point x="352" y="474" type="line"/>
			<point x="340" y="474" type="line"/>
			<point x="340" y="331" type="line"/>
			<point x="352" y="331" type="line"/>
		</contour>
		<contour>
			<point x="178" y="12" type="line"/>
			<point x="138" y="12" type="line"/>
			<point x="138" y="0" type="line"/>
			<point x="178" y="0" type="line"/>
		</contour>
		<contour>
			<point x="178" y="12" type="curve"/>
			<point x="178" y="0" type="line"/>
			<point x="284" y="0"/>
			<point x="352" y="69"/>
			<point x="352" y="175" type="curve"/>
			<point x="340" y="175" type="line"/>
			<point x="340" y="76"/>
			<point x="276" y="12"/>
		</contour>
		<contour>
			<point x="352" y="175" type="line"/>
			<point x="352" y="319" type="line"/>
			<point x="340" y="319" type="line"/>
			<point x="340" y="175" type="line"/>
		</contour>
		<contour>
			<point x="472" y="331" type="line"/>
			<point x="352" y="331" type="line"/>
			<point x="352" y="319" type="line"/>
			<point x="472" y="319" type="line"/>
		</contour>
	</outline>
</glyph>
<glyph name="exclamdown" format="2">
	<advance width="370"/>
	<unicode hex="00A1"/>
	<outline>
		<contour>
			<point x="191" y="490" type="line"/>
			<point x="179" y="490" type="line"/>
			<point x="179" y="-51" type="line"/>
			<point x="191" y="-51" type="line"/>
		</contour>
		<contour>
			<point x="185" y="655" type="curve" smooth="yes"/>
			<point x="157" y="655"/>
			<point x="135" y="632"/>
			<point x="135" y="605" type="curve" smooth="yes"/>
			<point x="135" y="577"/>
			<point x="157" y="555"/>
			<point x="185" y="555" type="curve" smooth="yes"/>
			<point x="212" y="555"/>
			<point x="235" y="577"/>
			<point x="235" y="605" type="curve" smooth="yes"/>
			<point x="235" y="632"/>
			<point x="212" y="655"/>
		</contour>
	</outline>
</glyph>
<glyph name="cent" format="2">
	<advance width="550"/>
	<unicode hex="00A2"/>
	<guideline x="504" y="65" angle="0"/>
	<outline>
		<contour>
			<point x="470" y="77" type="line"/>
			<point x="301" y="77" type="line" smooth="yes"/>
			<point x="176" y="77"/>
			<point x="92" y="170"/>
			<point x="92" y="325" type="curve"/>
			<point x="80" y="325" type="line"/>
			<point x="81" y="158"/>
			<point x="173" y="65"/>
			<point x="301" y="65" type="curve" smooth="yes"/>
			<point x="470" y="65" type="line"/>
		</contour>
		<contour>
			<point x="301" y="573" type="curve" smooth="yes"/>
			<point x="470" y="573" type="line"/>
			<point x="470" y="585" type="line"/>
			<point x="301" y="585" type="line" smooth="yes"/>
			<point x="173" y="585"/>
			<point x="81" y="492"/>
			<point x="80" y="325" type="curve"/>
			<point x="92" y="325" type="line"/>
			<point x="92" y="480"/>
			<point x="176" y="573"/>
		</contour>
		<contour>
			<point x="335" y="0" type="line"/>
			<point x="347" y="0" type="line"/>
			<point x="347" y="650" type="line"/>
			<point x="335" y="650" type="line"/>
		</contour>
	</outline>
</glyph>
<glyph name="sterling" format="2">
	<advance width="685"/>
	<unicode hex="00A3"/>
	<outline>
		<contour>
			<point x="80" y="0" type="line"/>
			<point x="595" y="0" type="line"/>
			<point x="595" y="12" type="line"/>
			<point x="80" y="12" type="line"/>
		</contour>
		<contour>
			<point x="130" y="0" type="line"/>
			<point x="142" y="0" type="line"/>
			<point x="142" y="349" type="line"/>
			<point x="130" y="349" type="line"/>
		</contour>
		<contour>
			<point x="560" y="395" type="line"/>
			<point x="560" y="445" type="line" smooth="yes"/>
			<point x="560" y="565"/>
			<point x="465" y="660"/>
			<point x="345" y="660" type="curve" smooth="yes"/>
			<point x="225" y="660"/>
			<point x="130" y="565"/>
			<point x="130" y="445" type="curve" smooth="yes"/>
			<point x="130" y="325" type="line"/>
			<point x="142" y="325" type="line"/>
			<point x="142" y="445" type="line" smooth="yes"/>
			<point x="142" y="559"/>
			<point x="231" y="648"/>
			<point x="345" y="648" type="curve" smooth="yes"/>
			<point x="459" y="648"/>
			<point x="548" y="559"/>
			<point x="548" y="445" type="curve" smooth="yes"/>
			<point x="548" y="395" type="line"/>
		</contour>
		<contour>
			<point x="583" y="215" type="line"/>
			<point x="583" y="0" type="line"/>
			<point x="595" y="0" type="line"/>
			<point x="595" y="215" type="line"/>
		</contour>
		<contour>
			<point x="390" y="295" type="line"/>
			<point x="50" y="295" type="line"/>
			<point x="50" y="283" type="line"/>
			<point x="390" y="283" type="line"/>
		</contour>
	</outline>
</glyph>
<glyph name="yen" format="2">
	<advance width="600"/>
	<unicode hex="00A5"/>
	<outline>
		<contour>
			<point x="294" y="0" type="line"/>
			<point x="306" y="0" type="line"/>
			<point x="306" y="299" type="line"/>
			<point x="294" y="299" type="line"/>
		</contour>
		<contour>
			<point x="82" y="650" type="line"/>
			<point x="260" y="287" type="line"/>
			<point x="340" y="287" type="line"/>
			<point x="518" y="650" type="line"/>
			<point x="505" y="650" type="line"/>
			<point x="332" y="299" type="line"/>
			<point x="268" y="299" type="line"/>
			<point x="95" y="650" type="line"/>
		</contour>
		<contour>
			<point x="510" y="84" type="line"/>
			<point x="90" y="84" type="line"/>
			<point x="90" y="72" type="line"/>
			<point x="510" y="72" type="line"/>
		</contour>
		<contour>
			<point x="510" y="213" type="line"/>
			<point x="90" y="213" type="line"/>
			<point x="90" y="201" type="line"/>
			<point x="510" y="201" type="line"/>
		</contour>
	</outline>
</glyph>
<glyph name="brokenbar" format="2">
	<advance width="310"/>
	<unicode hex="00A6"/>
	<outline>
		<contour>
			<point x="149" y="285" type="line"/>
			<point x="149" y="-100" type="line"/>
			<point x="161" y="-100" type="line"/>
			<point x="161" y="285" type="line"/>
		</contour>
		<contour>
			<point x="161" y="365" type="line"/>
			<point x="161" y="750" type="line"/>
			<point x="149" y="750" type="line"/>
			<point x="149" y="365" type="line"/>
		</contour>
	</outline>
</glyph>
<glyph name="guillemotleft" format="2">
	<advance width="617"/>
	<unicode hex="00AB"/>
	<note>
		guillemotleft
	</note>
	<outline>
		<contour>
			<point x="472" y="130" type="line"/>
			<point x="369" y="325" type="line"/>
			<point x="472" y="520" type="line"/>
			<point x="458" y="520" type="line"/>
			<point x="355" y="325" type="line"/>
			<point x="458" y="130" type="line"/>
		</contour>
		<contour>
			<point x="262" y="130" type="line"/>
			<point x="159" y="325" type="line"/>
			<point x="262" y="520" type="line"/>
			<point x="248" y="520" type="line"/>
			<point x="145" y="325" type="line"/>
			<point x="248" y="130" type="line"/>
		</contour>
	</outline>
</glyph>
<glyph name="uni00AD" format="2">
	<advance width="530"/>
	<unicode hex="00AD"/>
	<outline>
		<contour>
			<point x="100" y="274" type="line"/>
			<point x="430" y="274" type="line"/>
			<point x="430" y="286" type="line"/>
			<point x="100" y="286" type="line"/>
		</contour>
	</outline>
</glyph>
<glyph name="macron" format="2">
	<advance width="530"/>
	<unicode hex="00AF"/>
	<anchor x="265" y="650" name="_top"/>
	<anchor x="265" y="766" name="top"/>
	<outline>
		<contour>
			<point x="100" y="754" type="line"/>
			<point x="430" y="754" type="line"/>
			<point x="430" y="766" type="line"/>
			<point x="100" y="766" type="line"/>
		</contour>
	</outline>
</glyph>
<glyph name="degree" format="2">
	<advance width="378"/>
	<unicode hex="00B0"/>
	<outline>
		<contour>
			<point x="189" y="401" type="curve" smooth="yes"/>
			<point x="261" y="401"/>
			<point x="318" y="458"/>
			<point x="318" y="530" type="curve" smooth="yes"/>
			<point x="318" y="602"/>
			<point x="261" y="659"/>
			<point x="189" y="659" type="curve" smooth="yes"/>
			<point x="117" y="659"/>
			<point x="60" y="602"/>
			<point x="60" y="530" type="curve" smooth="yes"/>
			<point x="60" y="458"/>
			<point x="117" y="401"/>
		</contour>
		<contour>
			<point x="188" y="414" type="curve" smooth="yes"/>
			<point x="123" y="414"/>
			<point x="73" y="465"/>
			<point x="73" y="530" type="curve" smooth="yes"/>
			<point x="73" y="595"/>
			<point x="123" y="646"/>
			<point x="188" y="646" type="curve" smooth="yes"/>
			<point x="252" y="646"/>
			<point x="304" y="595"/>
			<point x="305" y="530" type="curve" smooth="yes"/>
			<point x="304" y="465"/>
			<point x="252" y="414"/>
		</contour>
	</outline>
</glyph>
<glyph name="acute" format="2">
	<advance width="530"/>
	<unicode hex="00B4"/>
	<anchor x="145" y="649" name="_top"/>
	<anchor x="145" y="800" name="top"/>
	<outline>
		<contour>
			<point x="140" y="700" type="line"/>
			<point x="154" y="700" type="line"/>
			<point x="210" y="800" type="line"/>
			<point x="196" y="800" type="line"/>
		</contour>
	</outline>
</glyph>
<glyph name="periodcentered" format="2">
	<advance width="270"/>
	<unicode hex="00B7"/>
	<outline>
		<contour>
			<point x="135" y="280" type="curve" smooth="yes"/>
			<point x="163" y="280"/>
			<point x="185" y="303"/>
			<point x="185" y="330" type="curve" smooth="yes"/>
			<point x="185" y="358"/>
			<point x="163" y="380"/>
			<point x="135" y="380" type="curve" smooth="yes"/>
			<point x="108" y="380"/>
			<point x="85" y="358"/>
			<point x="85" y="330" type="curve" smooth="yes"/>
			<point x="85" y="303"/>
			<point x="108" y="280"/>
		</contour>
	</outline>
</glyph>
<glyph name="questiondown" format="2">
	<advance width="535"/>
	<unicode hex="00BF"/>
	<outline>
		<contour>
			<point x="62" y="163" type="curve"/>
			<point x="50" y="163" type="line"/>
			<point x="50" y="34"/>
			<point x="136" y="-52"/>
			<point x="265" y="-52" type="curve" smooth="yes"/>
			<point x="415" y="-52" type="line"/>
			<point x="415" y="-40" type="line"/>
			<point x="265" y="-40" type="line" smooth="yes"/>
			<point x="143" y="-40"/>
			<point x="62" y="41"/>
		</contour>
		<contour>
			<point x="332" y="489" type="line"/>
			<point x="320" y="489" type="line"/>
			<point x="320" y="371" type="line"/>
			<point x="332" y="371" type="line"/>
		</contour>
		<contour>
			<point x="332" y="378" type="line"/>
			<point x="265" y="378" type="line" smooth="yes"/>
			<point x="136" y="378"/>
			<point x="50" y="292"/>
			<point x="50" y="163" type="curve"/>
			<point x="62" y="163" type="line"/>
			<point x="62" y="285"/>
			<point x="143" y="366"/>
			<point x="265" y="366" type="curve" smooth="yes"/>
			<point x="332" y="366" type="line"/>
		</contour>
		<contour>
			<point x="326" y="654" type="curve" smooth="yes"/>
			<point x="298" y="654"/>
			<point x="276" y="631"/>
			<point x="276" y="604" type="curve" smooth="yes"/>
			<point x="276" y="576"/>
			<point x="298" y="554"/>
			<point x="326" y="554" type="curve" smooth="yes"/>
			<point x="353" y="554"/>
			<point x="376" y="576"/>
			<point x="376" y="604" type="curve" smooth="yes"/>
			<point x="376" y="631"/>
			<point x="353" y="654"/>
		</contour>
	</outline>
</glyph>
<glyph name="AE" format="2">
	<advance width="795"/>
	<unicode hex="00C6"/>
	<outline>
		<contour>
			<point x="50" y="0" type="line"/>
			<point x="63" y="0" type="line"/>
			<point x="377" y="649" type="line"/>
			<point x="362" y="638" type="line"/>
			<point x="442" y="638" type="line"/>
			<point x="442" y="650" type="line"/>
			<point x="364" y="650" type="line"/>
		</contour>
		<contour>
			<point x="162" y="210" type="line"/>
			<point x="435" y="210" type="line"/>
			<point x="435" y="222" type="line"/>
			<point x="162" y="222" type="line"/>
		</contour>
		<contour>
			<point x="435" y="0" type="line"/>
			<point x="695" y="0" type="line"/>
			<point x="695" y="12" type="line"/>
			<point x="435" y="12" type="line"/>
		</contour>
		<contour>
			<point x="435" y="318" type="line"/>
			<point x="645" y="318" type="line"/>
			<point x="645" y="330" type="line"/>
			<point x="435" y="330" type="line"/>
		</contour>
		<contour>
			<point x="385" y="638" type="line"/>
			<point x="695" y="638" type="line"/>
			<point x="695" y="650" type="line"/>
			<point x="385" y="650" type="line"/>
		</contour>
		<contour>
			<point x="429" y="0" type="line"/>
			<point x="441" y="0" type="line"/>
			<point x="441" y="650" type="line"/>
			<point x="429" y="650" type="line"/>
		</contour>
	</outline>
</glyph>
<glyph name="Eth" format="2">
	<advance width="655"/>
	<unicode hex="00D0"/>
	<outline>
		<contour>
			<point x="120" y="318" type="line"/>
			<point x="316" y="318" type="line"/>
			<point x="316" y="330" type="line"/>
			<point x="120" y="330" type="line"/>
		</contour>
		<contour>
			<point x="152" y="0" type="line"/>
			<point x="152" y="650" type="line"/>
			<point x="140" y="650" type="line"/>
			<point x="140" y="0" type="line"/>
		</contour>
		<contour>
			<point x="260" y="0" type="line"/>
			<point x="449" y="0"/>
			<point x="575" y="130"/>
			<point x="575" y="325" type="curve"/>
			<point x="563" y="325" type="line"/>
			<point x="563" y="137"/>
			<point x="442" y="12"/>
			<point x="260" y="12" type="curve" smooth="yes"/>
			<point x="140" y="12" type="line"/>
			<point x="140" y="0" type="line"/>
		</contour>
		<contour>
			<point x="563" y="325" type="curve"/>
			<point x="575" y="325" type="line"/>
			<point x="575" y="519"/>
			<point x="449" y="650"/>
			<point x="260" y="650" type="curve" smooth="yes"/>
			<point x="140" y="650" type="line"/>
			<point x="140" y="638" type="line"/>
			<point x="260" y="638" type="line" smooth="yes"/>
			<point x="441" y="638"/>
			<point x="563" y="515"/>
		</contour>
	</outline>
</glyph>
<glyph name="multiply" format="2">
	<advance width="582"/>
	<unicode hex="00D7"/>
	<outline>
		<contour>
			<point x="454" y="451" type="line"/>
			<point x="120" y="117" type="line"/>
			<point x="128" y="108" type="line"/>
			<point x="462" y="442" type="line"/>
		</contour>
		<contour>
			<point x="128" y="440" type="line"/>
			<point x="120" y="431" type="line"/>
			<point x="449" y="113" type="line"/>
			<point x="457" y="122" type="line"/>
		</contour>
	</outline>
</glyph>
<glyph name="Oslash" format="2">
	<advance width="860"/>
	<unicode hex="00D8"/>
	<guideline x="759" y="-15" angle="0"/>
	<guideline x="493" y="665" angle="0"/>
	<outline>
		<contour>
			<point x="141" y="0" type="line"/>
			<point x="157" y="0" type="line"/>
			<point x="718" y="649" type="line"/>
			<point x="702" y="649" type="line"/>
		</contour>
		<contour>
			<point x="430" y="-16" type="curve" smooth="yes"/>
			<point x="620" y="-16"/>
			<point x="770" y="134"/>
			<point x="770" y="324" type="curve" smooth="yes"/>
			<point x="770" y="514"/>
			<point x="620" y="664"/>
			<point x="430" y="664" type="curve" smooth="yes"/>
			<point x="240" y="664"/>
			<point x="90" y="514"/>
			<point x="90" y="324" type="curve" smooth="yes"/>
			<point x="90" y="134"/>
			<point x="240" y="-16"/>
		</contour>
		<contour>
			<point x="430" y="-4" type="curve" smooth="yes"/>
			<point x="246" y="-4"/>
			<point x="102" y="140"/>
			<point x="102" y="324" type="curve" smooth="yes"/>
			<point x="102" y="508"/>
			<point x="246" y="652"/>
			<point x="430" y="652" type="curve" smooth="yes"/>
			<point x="614" y="652"/>
			<point x="758" y="508"/>
			<point x="758" y="324" type="curve" smooth="yes"/>
			<point x="758" y="140"/>
			<point x="614" y="-4"/>
		</contour>
	</outline>
</glyph>
<glyph name="Thorn" format="2">
	<advance width="600"/>
	<unicode hex="00DE"/>
	<anchor x="313" y="0" name="bottom"/>
	<anchor x="313" y="649" name="top"/>
	<outline>
		<contour>
			<point x="120" y="113" type="line"/>
			<point x="320" y="113" type="line" smooth="yes"/>
			<point x="449" y="113"/>
			<point x="535" y="200"/>
			<point x="535" y="331" type="curve" smooth="yes"/>
			<point x="535" y="462"/>
			<point x="449" y="549"/>
			<point x="320" y="549" type="curve" smooth="yes"/>
			<point x="120" y="549" type="line"/>
			<point x="120" y="537" type="line"/>
			<point x="315" y="537" type="line" smooth="yes"/>
			<point x="443" y="537"/>
			<point x="523" y="458"/>
			<point x="523" y="331" type="curve" smooth="yes"/>
			<point x="523" y="204"/>
			<point x="443" y="125"/>
			<point x="315" y="125" type="curve" smooth="yes"/>
			<point x="120" y="125" type="line"/>
		</contour>
		<contour>
			<point x="120" y="0" type="line"/>
			<point x="132" y="0" type="line"/>
			<point x="132" y="701" type="line"/>
			<point x="120" y="701" type="line"/>
		</contour>
	</outline>
</glyph>
<glyph name="germandbls" format="2">
	<advance width="690"/>
	<unicode hex="00DF"/>
	<guideline x="340" y="227" angle="90"/>
	<outline>
		<contour>
			<point x="336" y="0" type="line"/>
			<point x="394" y="0" type="line" smooth="yes"/>
			<point x="515" y="0"/>
			<point x="610" y="96"/>
			<point x="610" y="218" type="curve" smooth="yes"/>
			<point x="610" y="338"/>
			<point x="520" y="434"/>
			<point x="397" y="436" type="curve"/>
			<point x="397" y="424" type="line"/>
			<point x="512" y="420"/>
			<point x="598" y="336"/>
			<point x="598" y="218" type="curve" smooth="yes"/>
			<point x="598" y="103"/>
			<point x="508" y="12"/>
			<point x="394" y="12" type="curve" smooth="yes"/>
			<point x="336" y="12" type="line"/>
		</contour>
		<contour>
			<point x="60" y="359" type="line"/>
			<point x="166" y="359" type="line"/>
			<point x="166" y="371" type="line"/>
			<point x="60" y="371" type="line"/>
		</contour>
		<contour>
			<point x="160" y="0" type="line"/>
			<point x="172" y="0" type="line"/>
			<point x="172" y="649" type="line"/>
			<point x="160" y="649" type="line"/>
		</contour>
		<contour>
			<point x="346" y="300" type="line"/>
			<point x="359" y="300" type="line"/>
			<point x="485" y="649" type="line"/>
			<point x="472" y="649" type="line"/>
		</contour>
		<contour>
			<point x="160" y="637" type="line"/>
			<point x="477" y="637" type="line"/>
			<point x="477" y="649" type="line"/>
			<point x="160" y="649" type="line"/>
		</contour>
	</outline>
</glyph>
<glyph name="ae" format="2">
	<advance width="790"/>
	<unicode hex="00E6"/>
	<outline>
		<contour>
			<point x="388" y="260" type="curve"/>
			<point x="400" y="260" type="line"/>
			<point x="400" y="415"/>
			<point x="484" y="508"/>
			<point x="609" y="508" type="curve" smooth="yes"/>
			<point x="710" y="508" type="line"/>
			<point x="710" y="520" type="line"/>
			<point x="609" y="520" type="line" smooth="yes"/>
			<point x="481" y="520"/>
			<point x="389" y="427"/>
		</contour>
		<contour>
			<point x="388" y="260" type="curve"/>
			<point x="400" y="260" type="line"/>
			<point x="399" y="427"/>
			<point x="307" y="520"/>
			<point x="179" y="520" type="curve" smooth="yes"/>
			<point x="80" y="520" type="line"/>
			<point x="80" y="508" type="line"/>
			<point x="179" y="508" type="line" smooth="yes"/>
			<point x="304" y="508"/>
			<point x="388" y="415"/>
		</contour>
		<contour>
			<point x="80" y="0" type="line"/>
			<point x="92" y="0" type="line"/>
			<point x="92" y="320" type="line"/>
			<point x="80" y="320" type="line"/>
		</contour>
		<contour>
			<point x="80" y="0" type="line"/>
			<point x="179" y="0" type="line" smooth="yes"/>
			<point x="307" y="0"/>
			<point x="399" y="93"/>
			<point x="400" y="260" type="curve"/>
			<point x="388" y="260" type="line"/>
			<point x="388" y="105"/>
			<point x="304" y="12"/>
			<point x="179" y="12" type="curve" smooth="yes"/>
			<point x="80" y="12" type="line"/>
		</contour>
		<contour>
			<point x="80" y="308" type="line"/>
			<point x="263" y="308" type="line"/>
			<point x="263" y="320" type="line"/>
			<point x="80" y="320" type="line"/>
		</contour>
		<contour>
			<point x="609" y="0" type="curve" smooth="yes"/>
			<point x="665" y="0" type="line"/>
			<point x="665" y="12" type="line"/>
			<point x="609" y="12" type="line" smooth="yes"/>
			<point x="484" y="12"/>
			<point x="400" y="105"/>
			<point x="400" y="260" type="curve"/>
			<point x="388" y="260" type="line"/>
			<point x="389" y="93"/>
			<point x="481" y="0"/>
		</contour>
		<contour>
			<point x="526" y="200" type="line"/>
			<point x="710" y="200" type="line"/>
			<point x="710" y="212" type="line"/>
			<point x="526" y="212" type="line"/>
		</contour>
		<contour>
			<point x="698" y="200" type="line"/>
			<point x="710" y="200" type="line"/>
			<point x="710" y="520" type="line"/>
			<point x="698" y="520" type="line"/>
		</contour>
	</outline>
</glyph>
<glyph name="eth" format="2">
	<advance width="595"/>
	<unicode hex="00F0"/>
	<guideline x="534" y="-5" angle="0"/>
	<outline>
		<contour>
			<point x="512" y="369" type="line"/>
			<point x="271" y="755" type="line"/>
			<point x="257" y="755" type="line"/>
			<point x="498" y="369" type="line"/>
		</contour>
		<contour>
			<point x="472" y="650" type="line"/>
			<point x="92" y="650" type="line"/>
			<point x="92" y="638" type="line"/>
			<point x="472" y="638" type="line"/>
		</contour>
		<contour>
			<point x="297" y="7" type="curve" smooth="yes"/>
			<point x="167" y="7"/>
			<point x="60" y="114"/>
			<point x="60" y="244" type="curve" smooth="yes"/>
			<point x="60" y="374"/>
			<point x="167" y="481"/>
			<point x="297" y="481" type="curve" smooth="yes"/>
			<point x="427" y="481"/>
			<point x="534" y="374"/>
			<point x="534" y="244" type="curve" smooth="yes"/>
			<point x="534" y="114"/>
			<point x="427" y="7"/>
		</contour>
		<contour>
			<point x="297" y="-5" type="curve" smooth="yes"/>
			<point x="434" y="-5"/>
			<point x="546" y="107"/>
			<point x="546" y="244" type="curve" smooth="yes"/>
			<point x="546" y="381"/>
			<point x="434" y="493"/>
			<point x="297" y="493" type="curve" smooth="yes"/>
			<point x="160" y="493"/>
			<point x="48" y="381"/>
			<point x="48" y="244" type="curve" smooth="yes"/>
			<point x="48" y="107"/>
			<point x="160" y="-5"/>
		</contour>
	</outline>
</glyph>
<glyph name="oslash" format="2">
	<advance width="650"/>
	<unicode hex="00F8"/>
	<outline>
		<contour>
			<point x="325" y="-5" type="curve" smooth="yes"/>
			<point x="471" y="-5"/>
			<point x="590" y="114"/>
			<point x="590" y="260" type="curve" smooth="yes"/>
			<point x="590" y="406"/>
			<point x="471" y="525"/>
			<point x="325" y="525" type="curve" smooth="yes"/>
			<point x="179" y="525"/>
			<point x="60" y="406"/>
			<point x="60" y="260" type="curve" smooth="yes"/>
			<point x="60" y="114"/>
			<point x="179" y="-5"/>
		</contour>
		<contour>
			<point x="119" y="0" type="line"/>
			<point x="134" y="0" type="line"/>
			<point x="532" y="520" type="line"/>
			<point x="517" y="520" type="line"/>
		</contour>
		<contour>
			<point x="325" y="7" type="curve" smooth="yes"/>
			<point x="186" y="7"/>
			<point x="72" y="121"/>
			<point x="72" y="260" type="curve" smooth="yes"/>
			<point x="72" y="399"/>
			<point x="186" y="513"/>
			<point x="325" y="513" type="curve" smooth="yes"/>
			<point x="464" y="513"/>
			<point x="578" y="399"/>
			<point x="578" y="260" type="curve" smooth="yes"/>
			<point x="578" y="121"/>
			<point x="464" y="7"/>
		</contour>
	</outline>
</glyph>
<glyph name="Dcroat" format="2">
	<advance width="655"/>
	<unicode hex="0110"/>
	<outline>
		<contour>
			<point x="120" y="318" type="line"/>
			<point x="316" y="318" type="line"/>
			<point x="316" y="330" type="line"/>
			<point x="120" y="330" type="line"/>
		</contour>
		<contour>
			<point x="152" y="0" type="line"/>
			<point x="152" y="650" type="line"/>
			<point x="140" y="650" type="line"/>
			<point x="140" y="0" type="line"/>
		</contour>
		<contour>
			<point x="260" y="0" type="line"/>
			<point x="449" y="0"/>
			<point x="575" y="130"/>
			<point x="575" y="325" type="curve"/>
			<point x="563" y="325" type="line"/>
			<point x="563" y="137"/>
			<point x="442" y="12"/>
			<point x="260" y="12" type="curve" smooth="yes"/>
			<point x="140" y="12" type="line"/>
			<point x="140" y="0" type="line"/>
		</contour>
		<contour>
			<point x="563" y="325" type="curve"/>
			<point x="575" y="325" type="line"/>
			<point x="575" y="519"/>
			<point x="449" y="650"/>
			<point x="260" y="650" type="curve" smooth="yes"/>
			<point x="140" y="650" type="line"/>
			<point x="140" y="638" type="line"/>
			<point x="260" y="638" type="line" smooth="yes"/>
			<point x="441" y="638"/>
			<point x="563" y="515"/>
		</contour>
	</outline>
</glyph>
<glyph name="dcroat" format="2">
	<advance width="565"/>
	<unicode hex="0111"/>
	<outline>
		<contour>
			<point x="525" y="621" type="line"/>
			<point x="165" y="621" type="line"/>
			<point x="165" y="609" type="line"/>
			<point x="525" y="609" type="line"/>
		</contour>
		<component base="d"/>
	</outline>
</glyph>
<glyph name="Hbar" format="2">
	<advance width="635"/>
	<unicode hex="0126"/>
	<anchor x="318" y="0" name="bottom"/>
	<anchor x="318" y="325" name="center"/>
	<anchor x="508" y="0" name="ogonek"/>
	<anchor x="318" y="650" name="top"/>
	<anchor x="30" y="650" name="topleft"/>
	<outline>
		<contour>
			<point x="30" y="532" type="line"/>
			<point x="30" y="520" type="line"/>
			<point x="605" y="520" type="line"/>
			<point x="605" y="532" type="line"/>
		</contour>
		<contour>
			<point x="120" y="320" type="line"/>
			<point x="515" y="320" type="line"/>
			<point x="515" y="332" type="line"/>
			<point x="120" y="332" type="line"/>
		</contour>
		<contour>
			<point x="120" y="0" type="line"/>
			<point x="132" y="0" type="line"/>
			<point x="132" y="650" type="line"/>
			<point x="120" y="650" type="line"/>
		</contour>
		<contour>
			<point x="503" y="0" type="line"/>
			<point x="515" y="0" type="line"/>
			<point x="515" y="650" type="line"/>
			<point x="503" y="650" type="line"/>
		</contour>
	</outline>
</glyph>
<glyph name="dotlessi" format="2">
	<advance width="295"/>
	<unicode hex="0131"/>
	<anchor x="147" y="0" name="bottom"/>
	<anchor x="146" y="0" name="ogonek"/>
	<anchor x="147" y="520" name="top"/>
	<outline>
		<contour>
			<point x="141" y="0" type="line"/>
			<point x="153" y="0" type="line"/>
			<point x="153" y="520" type="line"/>
			<point x="141" y="520" type="line"/>
		</contour>
	</outline>
</glyph>
<glyph name="IJ" format="2">
	<advance width="536"/>
	<unicode hex="0132"/>
	<unicode hex="0133"/>
	<outline>
		<contour>
			<point x="120" y="300" type="line"/>
			<point x="132" y="300" type="line"/>
			<point x="132" y="649" type="line"/>
			<point x="120" y="649" type="line"/>
		</contour>
		<contour>
			<point x="268" y="-10" type="curve" smooth="yes"/>
			<point x="349" y="-10"/>
			<point x="416" y="54"/>
			<point x="416" y="150" type="curve" smooth="yes"/>
			<point x="416" y="649" type="line"/>
			<point x="404" y="649" type="line"/>
			<point x="404" y="150" type="line" smooth="yes"/>
			<point x="404" y="60"/>
			<point x="343" y="2"/>
			<point x="268" y="2" type="curve" smooth="yes"/>
			<point x="193" y="2"/>
			<point x="132" y="60"/>
			<point x="132" y="150" type="curve" smooth="yes"/>
			<point x="132" y="181" type="line"/>
			<point x="120" y="181" type="line"/>
			<point x="120" y="150" type="line" smooth="yes"/>
			<point x="120" y="54"/>
			<point x="187" y="-10"/>
		</contour>
	</outline>
</glyph>
<glyph name="Lslash" format="2">
	<advance width="535"/>
	<unicode hex="0141"/>
	<anchor x="283" y="0" name="bottom"/>
	<anchor x="283" y="325" name="center"/>
	<anchor x="126" y="649" name="top"/>
	<anchor x="545" y="649" name="topright"/>
	<outline>
		<contour>
			<point x="50" y="224" type="line"/>
			<point x="325" y="433" type="line"/>
			<point x="325" y="448" type="line"/>
			<point x="50" y="240" type="line"/>
		</contour>
		<contour>
			<point x="120" y="0" type="line"/>
			<point x="485" y="0" type="line"/>
			<point x="485" y="12" type="line"/>
			<point x="120" y="12" type="line"/>
		</contour>
		<contour>
			<point x="120" y="0" type="line"/>
			<point x="132" y="0" type="line"/>
			<point x="132" y="650" type="line"/>
			<point x="120" y="650" type="line"/>
		</contour>
	</outline>
</glyph>
<glyph name="lslash" format="2">
	<advance width="386"/>
	<unicode hex="0142"/>
	<outline>
		<contour>
			<point x="50" y="180" type="line"/>
			<point x="285" y="359" type="line"/>
			<point x="285" y="374" type="line"/>
			<point x="50" y="196" type="line"/>
		</contour>
		<component base="l"/>
	</outline>
</glyph>
<glyph name="Eng" format="2">
	<advance width="635"/>
	<unicode hex="014A"/>
	<anchor x="126" y="0" name="bottom"/>
	<anchor x="125" y="0" name="ogonek"/>
	<anchor x="126" y="649" name="top"/>
	<anchor x="-14" y="649" name="topleft"/>
	<outline>
		<contour>
			<point x="435" y="310" type="line"/>
			<point x="515" y="310" type="line"/>
			<point x="515" y="322" type="line"/>
			<point x="441" y="322" type="line"/>
			<point x="200" y="649" type="line"/>
			<point x="120" y="649" type="line"/>
			<point x="120" y="637" type="line"/>
			<point x="194" y="637" type="line"/>
		</contour>
		<contour>
			<point x="503" y="-200" type="line"/>
			<point x="515" y="-200" type="line"/>
			<point x="515" y="649" type="line"/>
			<point x="503" y="649" type="line"/>
		</contour>
		<contour>
			<point x="359" y="-188" type="line"/>
			<point x="359" y="-200" type="line"/>
			<point x="515" y="-200" type="line"/>
			<point x="515" y="-188" type="line"/>
		</contour>
		<contour>
			<point x="120" y="0" type="line"/>
			<point x="132" y="0" type="line"/>
			<point x="132" y="650" type="line"/>
			<point x="120" y="650" type="line"/>
		</contour>
	</outline>
</glyph>
<glyph name="eng" format="2">
	<advance width="540"/>
	<unicode hex="014B"/>
	<outline>
		<contour>
			<point x="438" y="-200" type="line"/>
			<point x="450" y="-200" type="line"/>
			<point x="450" y="120" type="line"/>
			<point x="438" y="120" type="line"/>
		</contour>
		<contour>
			<point x="284" y="-188" type="line"/>
			<point x="284" y="-200" type="line"/>
			<point x="450" y="-200" type="line"/>
			<point x="450" y="-188" type="line"/>
		</contour>
		<component base="n"/>
	</outline>
</glyph>
<glyph name="OE" format="2">
	<advance width="825"/>
	<unicode hex="0152"/>
	<outline>
		<contour>
			<point x="469" y="638" type="line"/>
			<point x="725" y="638" type="line"/>
			<point x="725" y="650" type="line"/>
			<point x="469" y="650" type="line"/>
		</contour>
		<contour>
			<point x="469" y="0" type="line"/>
			<point x="725" y="0" type="line"/>
			<point x="725" y="12" type="line"/>
			<point x="469" y="12" type="line"/>
		</contour>
		<contour>
			<point x="469" y="318" type="line"/>
			<point x="675" y="318" type="line"/>
			<point x="675" y="330" type="line"/>
			<point x="469" y="330" type="line"/>
		</contour>
		<contour>
			<point x="469" y="0" type="line"/>
			<point x="481" y="0" type="line"/>
			<point x="481" y="650" type="line"/>
			<point x="469" y="650" type="line"/>
		</contour>
		<contour>
			<point x="395" y="0" type="curve" smooth="yes"/>
			<point x="515" y="0" type="line"/>
			<point x="515" y="12" type="line"/>
			<point x="395" y="12" type="line" smooth="yes"/>
			<point x="213" y="12"/>
			<point x="92" y="137"/>
			<point x="92" y="325" type="curve"/>
			<point x="80" y="325" type="line"/>
			<point x="80" y="130"/>
			<point x="206" y="0"/>
		</contour>
		<contour>
			<point x="80" y="325" type="curve"/>
			<point x="92" y="325" type="line"/>
			<point x="92" y="515"/>
			<point x="214" y="638"/>
			<point x="395" y="638" type="curve" smooth="yes"/>
			<point x="515" y="638" type="line"/>
			<point x="515" y="650" type="line"/>
			<point x="395" y="650" type="line" smooth="yes"/>
			<point x="206" y="650"/>
			<point x="80" y="519"/>
		</contour>
	</outline>
</glyph>
<glyph name="oe" format="2">
	<advance width="881"/>
	<unicode hex="0153"/>
	<outline>
		<contour>
			<point x="278" y="7" type="curve" smooth="yes"/>
			<point x="161" y="7"/>
			<point x="72" y="118"/>
			<point x="72" y="260" type="curve" smooth="yes"/>
			<point x="72" y="402"/>
			<point x="161" y="513"/>
			<point x="278" y="513" type="curve" smooth="yes"/>
			<point x="392" y="513"/>
			<point x="479" y="402"/>
			<point x="479" y="260" type="curve" smooth="yes"/>
			<point x="479" y="118"/>
			<point x="392" y="7"/>
		</contour>
		<contour>
			<point x="278" y="-5" type="curve" smooth="yes"/>
			<point x="399" y="-5"/>
			<point x="491" y="112"/>
			<point x="491" y="260" type="curve" smooth="yes"/>
			<point x="491" y="408"/>
			<point x="399" y="525"/>
			<point x="278" y="525" type="curve" smooth="yes"/>
			<point x="155" y="525"/>
			<point x="60" y="408"/>
			<point x="60" y="260" type="curve" smooth="yes"/>
			<point x="60" y="112"/>
			<point x="155" y="-5"/>
		</contour>
		<contour>
			<point x="479" y="260" type="curve"/>
			<point x="491" y="260" type="line"/>
			<point x="491" y="415"/>
			<point x="575" y="508"/>
			<point x="700" y="508" type="curve" smooth="yes"/>
			<point x="801" y="508" type="line"/>
			<point x="801" y="520" type="line"/>
			<point x="700" y="520" type="line" smooth="yes"/>
			<point x="572" y="520"/>
			<point x="480" y="427"/>
		</contour>
		<contour>
			<point x="700" y="0" type="curve" smooth="yes"/>
			<point x="756" y="0" type="line"/>
			<point x="756" y="12" type="line"/>
			<point x="700" y="12" type="line" smooth="yes"/>
			<point x="575" y="12"/>
			<point x="491" y="105"/>
			<point x="491" y="260" type="curve"/>
			<point x="479" y="260" type="line"/>
			<point x="480" y="93"/>
			<point x="572" y="0"/>
		</contour>
		<contour>
			<point x="617" y="200" type="line"/>
			<point x="801" y="200" type="line"/>
			<point x="801" y="212" type="line"/>
			<point x="617" y="212" type="line"/>
		</contour>
		<contour>
			<point x="789" y="200" type="line"/>
			<point x="801" y="200" type="line"/>
			<point x="801" y="520" type="line"/>
			<point x="789" y="520" type="line"/>
		</contour>
	</outline>
</glyph>
<glyph name="Tbar" format="2">
	<advance width="535"/>
	<unicode hex="0166"/>
	<anchor x="268" y="0" name="bottom"/>
	<anchor x="268" y="325" name="center"/>
	<anchor x="268" y="650" name="top"/>
	<outline>
		<contour>
			<point x="113" y="282" type="line"/>
			<point x="113" y="270" type="line"/>
			<point x="423" y="270" type="line"/>
			<point x="423" y="282" type="line"/>
		</contour>
		<contour>
			<point x="50" y="638" type="line"/>
			<point x="485" y="638" type="line"/>
			<point x="485" y="650" type="line"/>
			<point x="50" y="650" type="line"/>
		</contour>
		<contour>
			<point x="262" y="0" type="line"/>
			<point x="274" y="0" type="line"/>
			<point x="274" y="650" type="line"/>
			<point x="262" y="650" type="line"/>
		</contour>
	</outline>
</glyph>
<glyph name="tbar" format="2">
	<advance width="500"/>
	<unicode hex="0167"/>
	<outline>
		<contour>
			<point x="400" y="301" type="line"/>
			<point x="90" y="301" type="line"/>
			<point x="90" y="289" type="line"/>
			<point x="400" y="289" type="line"/>
		</contour>
		<component base="t"/>
	</outline>
</glyph>
<glyph name="uni0237" format="2">
	<advance width="290"/>
	<unicode hex="0237"/>
	<anchor x="144" y="-200" name="bottom"/>
	<anchor x="144" y="510" name="top"/>
	<outline>
		<contour>
			<point x="138" y="-200" type="line"/>
			<point x="150" y="-200" type="line"/>
			<point x="150" y="510" type="line"/>
			<point x="138" y="510" type="line"/>
		</contour>
		<contour>
			<point x="-16" y="-188" type="line"/>
			<point x="-16" y="-200" type="line"/>
			<point x="150" y="-200" type="line"/>
			<point x="150" y="-188" type="line"/>
		</contour>
	</outline>
</glyph>
<glyph name="uni02BC" format="2">
	<advance width="321"/>
	<unicode hex="02BC"/>
	<outline>
		<contour>
			<point x="103" y="419" type="line"/>
			<point x="116" y="419" type="line"/>
			<point x="217" y="649" type="line"/>
			<point x="204" y="649" type="line"/>
		</contour>
	</outline>
</glyph>
<glyph name="caron" format="2">
	<advance width="450"/>
	<unicode hex="02C7"/>
	<anchor x="225" y="650" name="_top"/>
	<anchor x="225" y="800" name="top"/>
	<outline>
		<contour>
			<point x="350" y="800" type="line"/>
			<point x="332" y="800" type="line"/>
			<point x="225" y="709" type="line"/>
			<point x="118" y="800" type="line"/>
			<point x="100" y="800" type="line"/>
			<point x="216" y="701" type="line"/>
			<point x="234" y="701" type="line"/>
		</contour>
	</outline>
</glyph>
<glyph name="dotaccent" format="2">
	<advance width="300"/>
	<unicode hex="02D9"/>
	<anchor x="150" y="649" name="_top"/>
	<outline>
		<contour>
			<point x="150" y="740" type="curve" smooth="yes"/>
			<point x="162" y="740"/>
			<point x="171" y="749"/>
			<point x="171" y="761" type="curve" smooth="yes"/>
			<point x="171" y="773"/>
			<point x="162" y="782"/>
			<point x="150" y="782" type="curve" smooth="yes"/>
			<point x="138" y="782"/>
			<point x="129" y="773"/>
			<point x="129" y="761" type="curve" smooth="yes"/>
			<point x="129" y="749"/>
			<point x="138" y="740"/>
		</contour>
	</outline>
</glyph>
<glyph name="ring" format="2">
	<advance width="372"/>
	<unicode hex="02DA"/>
	<anchor x="175" y="650" name="_top"/>
	<anchor x="175" y="849" name="top"/>
	<outline>
		<contour>
			<point x="175" y="699" type="curve" smooth="yes"/>
			<point x="216" y="699"/>
			<point x="250" y="732"/>
			<point x="250" y="774" type="curve" smooth="yes"/>
			<point x="250" y="816"/>
			<point x="216" y="849"/>
			<point x="175" y="849" type="curve" smooth="yes"/>
			<point x="132" y="849"/>
			<point x="100" y="816"/>
			<point x="100" y="774" type="curve" smooth="yes"/>
			<point x="100" y="732"/>
			<point x="132" y="699"/>
		</contour>
		<contour>
			<point x="175" y="710" type="curve" smooth="yes"/>
			<point x="140" y="710"/>
			<point x="112" y="738"/>
			<point x="111" y="774" type="curve" smooth="yes"/>
			<point x="112" y="810"/>
			<point x="140" y="838"/>
			<point x="175" y="838" type="curve" smooth="yes"/>
			<point x="211" y="838"/>
			<point x="239" y="810"/>
			<point x="238" y="774" type="curve" smooth="yes"/>
			<point x="239" y="738"/>
			<point x="211" y="710"/>
		</contour>
	</outline>
</glyph>
<glyph name="ogonek" format="2">
	<advance width="440"/>
	<unicode hex="02DB"/>
	<anchor x="236" y="0" name="_ogonek"/>
	<outline>
		<contour>
			<point x="136" y="-200" type="line"/>
			<point x="149" y="-200" type="line"/>
			<point x="243" y="0" type="line"/>
			<point x="232" y="4" type="line"/>
		</contour>
		<contour>
			<point x="146" y="-200" type="line"/>
			<point x="340" y="-200" type="line"/>
			<point x="340" y="-188" type="line"/>
			<point x="146" y="-188" type="line"/>
		</contour>
	</outline>
</glyph>
<glyph name="tilde" format="2">
	<advance width="484"/>
	<unicode hex="02DC"/>
	<anchor x="242" y="650" name="_top"/>
	<anchor x="242" y="800" name="top"/>
	<outline>
		<contour>
			<point x="100" y="701" type="curve"/>
			<point x="112" y="701" type="line"/>
			<point x="112" y="758"/>
			<point x="135" y="793"/>
			<point x="168" y="793" type="curve" smooth="yes"/>
			<point x="222" y="793"/>
			<point x="264" y="698"/>
			<point x="322" y="698" type="curve" smooth="yes"/>
			<point x="357" y="698"/>
			<point x="389" y="732"/>
			<point x="389" y="800" type="curve"/>
			<point x="377" y="800" type="line"/>
			<point x="377" y="740"/>
			<point x="350" y="710"/>
			<point x="321" y="710" type="curve" smooth="yes"/>
			<point x="269" y="710"/>
			<point x="232" y="805"/>
			<point x="168" y="805" type="curve" smooth="yes"/>
			<point x="129" y="805"/>
			<point x="100" y="767"/>
		</contour>
	</outline>
</glyph>
<glyph name="hungarumlaut" format="2">
	<advance width="530"/>
	<unicode hex="02DD"/>
	<anchor x="225" y="649" name="_top"/>
	<anchor x="225" y="880" name="top"/>
	<outline>
		<contour>
			<point x="311" y="700" type="line"/>
			<point x="324" y="700" type="line"/>
			<point x="380" y="880" type="line"/>
			<point x="367" y="880" type="line"/>
		</contour>
		<contour>
			<point x="130" y="700" type="line"/>
			<point x="143" y="700" type="line"/>
			<point x="199" y="880" type="line"/>
			<point x="186" y="880" type="line"/>
		</contour>
	</outline>
</glyph>
<glyph name="gravecomb" format="2">
	<advance width="0"/>
	<unicode hex="0300"/>
	<anchor x="205" y="649" name="_top"/>
	<anchor x="205" y="800" name="top"/>
	<outline>
		<contour>
			<point x="210" y="700" type="line"/>
			<point x="154" y="800" type="line"/>
			<point x="140" y="800" type="line"/>
			<point x="196" y="700" type="line"/>
		</contour>
	</outline>
</glyph>
<glyph name="uni0302" format="2">
	<advance width="0"/>
	<unicode hex="0302"/>
	<anchor x="225" y="649" name="_top"/>
	<anchor x="225" y="800" name="top"/>
	<outline>
		<contour>
			<point x="100" y="701" type="line"/>
			<point x="118" y="701" type="line"/>
			<point x="225" y="792" type="line"/>
			<point x="332" y="701" type="line"/>
			<point x="350" y="701" type="line"/>
			<point x="234" y="800" type="line"/>
			<point x="216" y="800" type="line"/>
		</contour>
	</outline>
</glyph>
<glyph name="uni0304" format="2">
	<advance width="0"/>
	<unicode hex="0304"/>
	<anchor x="265" y="650" name="_top"/>
	<anchor x="265" y="766" name="top"/>
	<outline>
		<contour>
			<point x="100" y="754" type="line"/>
			<point x="430" y="754" type="line"/>
			<point x="430" y="766" type="line"/>
			<point x="100" y="766" type="line"/>
		</contour>
	</outline>
</glyph>
<glyph name="uni0306" format="2">
	<advance width="0"/>
	<unicode hex="0306"/>
	<anchor x="199" y="650" name="_top"/>
	<anchor x="199" y="800" name="top"/>
	<outline>
		<contour>
			<point x="112" y="800" type="curve"/>
			<point x="100" y="800" type="line"/>
			<point x="100" y="739"/>
			<point x="140" y="699"/>
			<point x="199" y="699" type="curve" smooth="yes"/>
			<point x="258" y="699"/>
			<point x="298" y="739"/>
			<point x="298" y="800" type="curve"/>
			<point x="286" y="800" type="line"/>
			<point x="286" y="746"/>
			<point x="252" y="711"/>
			<point x="199" y="711" type="curve" smooth="yes"/>
			<point x="146" y="711"/>
			<point x="112" y="746"/>
		</contour>
	</outline>
</glyph>
<glyph name="uni0307" format="2">
	<advance width="0"/>
	<unicode hex="0307"/>
	<anchor x="121" y="649" name="_top"/>
	<outline>
		<contour>
			<point x="121" y="740" type="curve" smooth="yes"/>
			<point x="133" y="740"/>
			<point x="142" y="749"/>
			<point x="142" y="761" type="curve" smooth="yes"/>
			<point x="142" y="773"/>
			<point x="133" y="782"/>
			<point x="121" y="782" type="curve" smooth="yes"/>
			<point x="109" y="782"/>
			<point x="100" y="773"/>
			<point x="100" y="761" type="curve" smooth="yes"/>
			<point x="100" y="749"/>
			<point x="109" y="740"/>
		</contour>
	</outline>
</glyph>
<glyph name="uni0308" format="2">
	<advance width="0"/>
	<unicode hex="0308"/>
	<guideline x="72" y="734" angle="0"/>
	<anchor x="230" y="649" name="_top"/>
	<anchor x="230" y="821" name="top"/>
	<outline>
		<contour>
			<point x="310" y="740" type="curve" smooth="yes"/>
			<point x="322" y="740"/>
			<point x="331" y="749"/>
			<point x="331" y="761" type="curve" smooth="yes"/>
			<point x="331" y="773"/>
			<point x="322" y="782"/>
			<point x="310" y="782" type="curve" smooth="yes"/>
			<point x="298" y="782"/>
			<point x="289" y="773"/>
			<point x="289" y="761" type="curve" smooth="yes"/>
			<point x="289" y="749"/>
			<point x="298" y="740"/>
		</contour>
		<contour>
			<point x="150" y="740" type="curve" smooth="yes"/>
			<point x="162" y="740"/>
			<point x="171" y="749"/>
			<point x="171" y="761" type="curve" smooth="yes"/>
			<point x="171" y="773"/>
			<point x="162" y="782"/>
			<point x="150" y="782" type="curve" smooth="yes"/>
			<point x="138" y="782"/>
			<point x="129" y="773"/>
			<point x="129" y="761" type="curve" smooth="yes"/>
			<point x="129" y="749"/>
			<point x="138" y="740"/>
		</contour>
	</outline>
</glyph>
<glyph name="uni030B" format="2">
	<advance width="0"/>
	<unicode hex="030B"/>
	<anchor x="225" y="649" name="_top"/>
	<anchor x="225" y="880" name="top"/>
	<outline>
		<contour>
			<point x="311" y="700" type="line"/>
			<point x="324" y="700" type="line"/>
			<point x="380" y="880" type="line"/>
			<point x="367" y="880" type="line"/>
		</contour>
		<contour>
			<point x="130" y="700" type="line"/>
			<point x="143" y="700" type="line"/>
			<point x="199" y="880" type="line"/>
			<point x="186" y="880" type="line"/>
		</contour>
	</outline>
</glyph>
<glyph name="uni030C" format="2">
	<advance width="0"/>
	<unicode hex="030C"/>
	<anchor x="225" y="650" name="_top"/>
	<anchor x="225" y="800" name="top"/>
	<outline>
		<contour>
			<point x="350" y="800" type="line"/>
			<point x="332" y="800" type="line"/>
			<point x="225" y="709" type="line"/>
			<point x="118" y="800" type="line"/>
			<point x="100" y="800" type="line"/>
			<point x="216" y="701" type="line"/>
			<point x="234" y="701" type="line"/>
		</contour>
	</outline>
</glyph>
<glyph name="uni0312" format="2">
	<advance width="0"/>
	<unicode hex="0312"/>
	<anchor x="150" y="650" name="_top"/>
	<anchor x="178" y="930" name="top"/>
	<outline>
		<contour>
			<point x="199" y="930" type="line"/>
			<point x="144" y="820" type="line"/>
			<point x="144" y="716" type="line"/>
			<point x="156" y="716" type="line"/>
			<point x="156" y="820" type="line"/>
			<point x="211" y="930" type="line"/>
		</contour>
	</outline>
</glyph>
<glyph name="uni0326" format="2">
	<advance width="0"/>
	<unicode hex="0326"/>
	<anchor x="218" y="0" name="_bottom"/>
	<anchor x="178" y="-200" name="bottom"/>
	<outline>
		<contour>
			<point x="139" y="-200" type="line"/>
			<point x="152" y="-200" type="line"/>
			<point x="224" y="-46" type="line"/>
			<point x="211" y="-46" type="line"/>
		</contour>
	</outline>
</glyph>
<glyph name="uni0327" format="2">
	<advance width="0"/>
	<unicode hex="0327"/>
	<anchor x="151" y="0" name="_bottom"/>
	<anchor x="130" y="-229" name="bottom"/>
	<outline>
		<contour>
			<point x="130" y="-217" type="curve"/>
			<point x="130" y="-229" type="line"/>
			<point x="191" y="-229"/>
			<point x="231" y="-189"/>
			<point x="231" y="-130" type="curve" smooth="yes"/>
			<point x="231" y="-71"/>
			<point x="191" y="-31"/>
			<point x="130" y="-31" type="curve"/>
			<point x="130" y="-43" type="line"/>
			<point x="184" y="-43"/>
			<point x="219" y="-77"/>
			<point x="219" y="-130" type="curve" smooth="yes"/>
			<point x="219" y="-183"/>
			<point x="184" y="-217"/>
		</contour>
	</outline>
</glyph>
<glyph name="uni0404" format="2">
	<advance width="809"/>
	<unicode hex="0404"/>
	<outline>
		<contour>
			<point x="725" y="138" type="curve"/>
			<point x="711" y="138" type="line"/>
			<point x="652" y="52"/>
			<point x="553" y="-4"/>
			<point x="440" y="-4" type="curve" smooth="yes"/>
			<point x="261" y="-4"/>
			<point x="112" y="142"/>
			<point x="112" y="324" type="curve" smooth="yes"/>
			<point x="112" y="506"/>
			<point x="258" y="652"/>
			<point x="440" y="652" type="curve" smooth="yes"/>
			<point x="553" y="652"/>
			<point x="652" y="596"/>
			<point x="711" y="510" type="curve"/>
			<point x="725" y="510" type="line"/>
			<point x="664" y="603"/>
			<point x="559" y="664"/>
			<point x="440" y="664" type="curve" smooth="yes"/>
			<point x="252" y="664"/>
			<point x="100" y="512"/>
			<point x="100" y="324" type="curve" smooth="yes"/>
			<point x="100" y="136"/>
			<point x="252" y="-16"/>
			<point x="440" y="-16" type="curve" smooth="yes"/>
			<point x="559" y="-16"/>
			<point x="664" y="45"/>
		</contour>
		<contour>
			<point x="529" y="318" type="line"/>
			<point x="529" y="330" type="line"/>
			<point x="106" y="330" type="line"/>
			<point x="106" y="318" type="line"/>
		</contour>
	</outline>
</glyph>
<glyph name="uni0406" format="2">
	<advance width="300"/>
	<unicode hex="0406"/>
	<anchor x="150" y="650" name="top"/>
	<outline>
		<contour>
			<point x="144" y="0" type="line"/>
			<point x="156" y="0" type="line"/>
			<point x="156" y="650" type="line"/>
			<point x="144" y="650" type="line"/>
		</contour>
	</outline>
</glyph>
<glyph name="uni0410" format="2">
	<advance width="640"/>
	<unicode hex="0410"/>
	<anchor x="320" y="0" name="bottom"/>
	<anchor x="584" y="10" name="ogonek"/>
	<anchor x="320" y="650" name="top"/>
	<outline>
		<contour>
			<point x="135" y="210" type="line"/>
			<point x="505" y="210" type="line"/>
			<point x="505" y="222" type="line"/>
			<point x="135" y="222" type="line"/>
		</contour>
		<contour>
			<point x="590" y="0" type="line"/>
			<point x="360" y="650" type="line"/>
			<point x="280" y="650" type="line"/>
			<point x="50" y="0" type="line"/>
			<point x="63" y="0" type="line"/>
			<point x="289" y="638" type="line"/>
			<point x="352" y="638" type="line"/>
			<point x="577" y="0" type="line"/>
		</contour>
	</outline>
</glyph>
<glyph name="uni0411" format="2">
	<advance width="627"/>
	<unicode hex="0411"/>
	<outline>
		<contour>
			<point x="120" y="638" type="line"/>
			<point x="490" y="638" type="line"/>
			<point x="490" y="650" type="line"/>
			<point x="120" y="650" type="line"/>
		</contour>
		<contour>
			<point x="120" y="0" type="line"/>
			<point x="320" y="0" type="line" smooth="yes"/>
			<point x="448" y="0"/>
			<point x="537" y="93"/>
			<point x="537" y="218" type="curve"/>
			<point x="525" y="218" type="line"/>
			<point x="525" y="100"/>
			<point x="441" y="12"/>
			<point x="320" y="12" type="curve" smooth="yes"/>
			<point x="120" y="12" type="line"/>
		</contour>
		<contour>
			<point x="320" y="436" type="curve" smooth="yes"/>
			<point x="120" y="436" type="line"/>
			<point x="120" y="424" type="line"/>
			<point x="320" y="424" type="line" smooth="yes"/>
			<point x="441" y="424"/>
			<point x="525" y="336"/>
			<point x="525" y="218" type="curve"/>
			<point x="537" y="218" type="line"/>
			<point x="537" y="343"/>
			<point x="448" y="436"/>
		</contour>
		<contour>
			<point x="120" y="0" type="line"/>
			<point x="132" y="0" type="line"/>
			<point x="132" y="650" type="line"/>
			<point x="120" y="650" type="line"/>
		</contour>
	</outline>
</glyph>
<glyph name="uni0412" format="2">
	<advance width="592"/>
	<unicode hex="0412"/>
	<anchor x="328" y="0" name="bottom"/>
	<anchor x="125" y="0" name="ogonek"/>
	<anchor x="328" y="649" name="top"/>
	<anchor x="-14" y="649" name="topleft"/>
	<outline>
		<contour>
			<point x="130" y="0" type="line"/>
			<point x="325" y="0" type="line" smooth="yes"/>
			<point x="453" y="0"/>
			<point x="542" y="93"/>
			<point x="542" y="218" type="curve" smooth="yes"/>
			<point x="542" y="297"/>
			<point x="505" y="375"/>
			<point x="429" y="413" type="curve"/>
			<point x="428" y="400" type="line"/>
			<point x="483" y="372"/>
			<point x="530" y="306"/>
			<point x="530" y="218" type="curve" smooth="yes"/>
			<point x="530" y="100"/>
			<point x="446" y="12"/>
			<point x="325" y="12" type="curve" smooth="yes"/>
			<point x="130" y="12" type="line"/>
		</contour>
		<contour>
			<point x="130" y="220" type="line"/>
			<point x="225" y="220" type="line" smooth="yes"/>
			<point x="354" y="220"/>
			<point x="440" y="306"/>
			<point x="440" y="435" type="curve" smooth="yes"/>
			<point x="440" y="564"/>
			<point x="354" y="650"/>
			<point x="225" y="650" type="curve" smooth="yes"/>
			<point x="130" y="650" type="line"/>
			<point x="130" y="638" type="line"/>
			<point x="225" y="638" type="line" smooth="yes"/>
			<point x="348" y="638"/>
			<point x="428" y="558"/>
			<point x="428" y="435" type="curve" smooth="yes"/>
			<point x="428" y="312"/>
			<point x="348" y="232"/>
			<point x="225" y="232" type="curve" smooth="yes"/>
			<point x="130" y="232" type="line"/>
		</contour>
		<contour>
			<point x="130" y="0" type="line"/>
			<point x="142" y="0" type="line"/>
			<point x="142" y="650" type="line"/>
			<point x="130" y="650" type="line"/>
		</contour>
	</outline>
</glyph>
<glyph name="uni0413" format="2">
	<advance width="540"/>
	<unicode hex="0413"/>
	<anchor x="126" y="0" name="bottom"/>
	<anchor x="125" y="0" name="ogonek"/>
	<anchor x="126" y="649" name="top"/>
	<anchor x="-14" y="649" name="topleft"/>
	<outline>
		<contour>
			<point x="120" y="638" type="line"/>
			<point x="490" y="638" type="line"/>
			<point x="490" y="650" type="line"/>
			<point x="120" y="650" type="line"/>
		</contour>
		<contour>
			<point x="120" y="0" type="line"/>
			<point x="132" y="0" type="line"/>
			<point x="132" y="650" type="line"/>
			<point x="120" y="650" type="line"/>
		</contour>
	</outline>
</glyph>
<glyph name="uni0414" format="2">
	<advance width="780"/>
	<unicode hex="0414"/>
	<anchor x="654" y="0" name="bottom"/>
	<anchor x="653" y="0" name="ogonek"/>
	<anchor x="654" y="649" name="top"/>
	<anchor x="514" y="649" name="topleft"/>
	<outline>
		<contour>
			<point x="112" y="12" type="line"/>
			<point x="100" y="12" type="line"/>
			<point x="100" y="-100" type="line"/>
			<point x="112" y="-100" type="line"/>
		</contour>
		<contour>
			<point x="243" y="650" type="line"/>
			<point x="243" y="638" type="line"/>
			<point x="600" y="638" type="line"/>
			<point x="600" y="650" type="line"/>
		</contour>
		<contour>
			<point x="100" y="12" type="line"/>
			<point x="100" y="0" type="line"/>
			<point x="680" y="0" type="line"/>
			<point x="680" y="12" type="line"/>
		</contour>
		<contour>
			<point x="668" y="12" type="line"/>
			<point x="668" y="-100" type="line"/>
			<point x="680" y="-100" type="line"/>
			<point x="680" y="12" type="line"/>
		</contour>
		<contour>
			<point x="588" y="0" type="line"/>
			<point x="600" y="0" type="line"/>
			<point x="600" y="650" type="line"/>
			<point x="588" y="650" type="line"/>
		</contour>
		<contour>
			<point x="166" y="0" type="curve"/>
			<point x="178" y="0" type="line"/>
			<point x="194" y="30"/>
			<point x="203" y="59"/>
			<point x="207" y="110" type="curve" smooth="yes"/>
			<point x="248" y="650" type="line"/>
			<point x="236" y="650" type="line"/>
			<point x="195" y="111" type="line" smooth="yes"/>
			<point x="191" y="60"/>
			<point x="182" y="30"/>
		</contour>
	</outline>
</glyph>
<glyph name="uni0415" format="2">
	<advance width="520"/>
	<unicode hex="0415"/>
	<anchor x="275" y="0" name="bottom"/>
	<anchor x="403" y="0" name="ogonek"/>
	<anchor x="237" y="712" name="placement accent"/>
	<anchor x="275" y="650" name="top"/>
	<anchor x="40" y="650" name="topleft"/>
	<outline>
		<contour>
			<point x="120" y="638" type="line"/>
			<point x="420" y="638" type="line"/>
			<point x="420" y="650" type="line"/>
			<point x="120" y="650" type="line"/>
		</contour>
		<contour>
			<point x="120" y="0" type="line"/>
			<point x="420" y="0" type="line"/>
			<point x="420" y="12" type="line"/>
			<point x="120" y="12" type="line"/>
		</contour>
		<contour>
			<point x="120" y="318" type="line"/>
			<point x="370" y="318" type="line"/>
			<point x="370" y="330" type="line"/>
			<point x="120" y="330" type="line"/>
		</contour>
		<contour>
			<point x="120" y="0" type="line"/>
			<point x="132" y="0" type="line"/>
			<point x="132" y="650" type="line"/>
			<point x="120" y="650" type="line"/>
		</contour>
	</outline>
</glyph>
<glyph name="uni0416" format="2">
	<advance width="860"/>
	<unicode hex="0416"/>
	<outline>
		<contour>
			<point x="200" y="376" type="line"/>
			<point x="660" y="376" type="line"/>
			<point x="660" y="388" type="line"/>
			<point x="200" y="388" type="line"/>
		</contour>
		<contour>
			<point x="217" y="376" type="line"/>
			<point x="86" y="649" type="line"/>
			<point x="73" y="649" type="line"/>
			<point x="204" y="376" type="line"/>
		</contour>
		<contour>
			<point x="62" y="0" type="line"/>
			<point x="211" y="388" type="line"/>
			<point x="200" y="396" type="line"/>
			<point x="50" y="0" type="line"/>
		</contour>
		<contour>
			<point x="798" y="0" type="line"/>
			<point x="810" y="0" type="line"/>
			<point x="660" y="396" type="line"/>
			<point x="649" y="388" type="line"/>
		</contour>
		<contour>
			<point x="643" y="376" type="line"/>
			<point x="656" y="376" type="line"/>
			<point x="787" y="649" type="line"/>
			<point x="774" y="649" type="line"/>
		</contour>
		<contour>
			<point x="424" y="0" type="line"/>
			<point x="436" y="0" type="line"/>
			<point x="436" y="650" type="line"/>
			<point x="424" y="650" type="line"/>
		</contour>
	</outline>
</glyph>
<glyph name="uni0417" format="2">
	<advance width="650"/>
	<unicode hex="0417"/>
	<guideline x="385" y="218" angle="0"/>
	<outline>
		<contour>
			<point x="295" y="0" type="curve" smooth="yes"/>
			<point x="345" y="0" type="line" smooth="yes"/>
			<point x="475" y="0"/>
			<point x="540" y="73"/>
			<point x="540" y="164" type="curve" smooth="yes"/>
			<point x="540" y="257"/>
			<point x="472" y="332"/>
			<point x="335" y="332" type="curve" smooth="yes"/>
			<point x="230" y="332" type="line"/>
			<point x="230" y="320" type="line"/>
			<point x="335" y="320" type="line" smooth="yes"/>
			<point x="464" y="320"/>
			<point x="528" y="251"/>
			<point x="528" y="164" type="curve" smooth="yes"/>
			<point x="528" y="79"/>
			<point x="466" y="12"/>
			<point x="345" y="12" type="curve" smooth="yes"/>
			<point x="295" y="12" type="line" smooth="yes"/>
			<point x="181" y="12"/>
			<point x="102" y="61"/>
			<point x="102" y="175" type="curve"/>
			<point x="90" y="175" type="line"/>
			<point x="90" y="55"/>
			<point x="175" y="0"/>
		</contour>
		<contour>
			<point x="345" y="650" type="curve" smooth="yes"/>
			<point x="295" y="650" type="line"/>
			<point x="175" y="650"/>
			<point x="90" y="605"/>
			<point x="90" y="483" type="curve"/>
			<point x="102" y="483" type="line"/>
			<point x="102" y="598"/>
			<point x="181" y="638"/>
			<point x="295" y="638" type="curve" smooth="yes"/>
			<point x="345" y="638" type="line" smooth="yes"/>
			<point x="466" y="638"/>
			<point x="528" y="573"/>
			<point x="528" y="487" type="curve" smooth="yes"/>
			<point x="528" y="400"/>
			<point x="464" y="332"/>
			<point x="335" y="332" type="curve" smooth="yes"/>
			<point x="230" y="332" type="line"/>
			<point x="230" y="320" type="line"/>
			<point x="335" y="320" type="line" smooth="yes"/>
			<point x="472" y="320"/>
			<point x="540" y="394"/>
			<point x="540" y="487" type="curve" smooth="yes"/>
			<point x="540" y="579"/>
			<point x="474" y="650"/>
		</contour>
	</outline>
</glyph>
<glyph name="uni0418" format="2">
	<advance width="635"/>
	<unicode hex="0418"/>
	<anchor x="615" y="0" name="bottomright"/>
	<anchor x="318" y="650" name="top"/>
	<outline>
		<contour>
			<point x="515" y="0" type="line"/>
			<point x="515" y="650" type="line"/>
			<point x="503" y="650" type="line"/>
			<point x="503" y="0" type="line"/>
		</contour>
		<contour>
			<point x="132" y="0" type="line"/>
			<point x="132" y="650" type="line"/>
			<point x="120" y="650" type="line"/>
			<point x="120" y="0" type="line"/>
		</contour>
		<contour>
			<point x="200" y="311" type="line"/>
			<point x="441" y="638" type="line"/>
			<point x="515" y="638" type="line"/>
			<point x="515" y="650" type="line"/>
			<point x="435" y="650" type="line"/>
			<point x="194" y="323" type="line"/>
			<point x="120" y="323" type="line"/>
			<point x="120" y="311" type="line"/>
		</contour>
	</outline>
</glyph>
<glyph name="uni041A" format="2">
	<advance width="620"/>
	<unicode hex="041A"/>
	<outline>
		<contour>
			<point x="130" y="376" type="line"/>
			<point x="380" y="376" type="line"/>
			<point x="380" y="388" type="line"/>
			<point x="130" y="388" type="line"/>
		</contour>
		<contour>
			<point x="362" y="376" type="line"/>
			<point x="375" y="376" type="line"/>
			<point x="507" y="649" type="line"/>
			<point x="494" y="649" type="line"/>
		</contour>
		<contour>
			<point x="519" y="0" type="line"/>
			<point x="530" y="0" type="line"/>
			<point x="380" y="396" type="line"/>
			<point x="370" y="388" type="line"/>
		</contour>
		<contour>
			<point x="120" y="0" type="line"/>
			<point x="132" y="0" type="line"/>
			<point x="132" y="650" type="line"/>
			<point x="120" y="650" type="line"/>
		</contour>
	</outline>
</glyph>
<glyph name="uni041B" format="2">
	<advance width="710"/>
	<unicode hex="041B"/>
	<anchor x="594" y="0" name="bottom"/>
	<anchor x="593" y="0" name="ogonek"/>
	<anchor x="594" y="649" name="top"/>
	<anchor x="454" y="649" name="topleft"/>
	<outline>
		<contour>
			<point x="208" y="649" type="line"/>
			<point x="208" y="637" type="line"/>
			<point x="580" y="637" type="line"/>
			<point x="580" y="649" type="line"/>
		</contour>
		<contour>
			<point x="60" y="0" type="line"/>
			<point x="75" y="0" type="line" smooth="yes"/>
			<point x="172" y="0"/>
			<point x="195" y="53"/>
			<point x="200" y="188" type="curve" smooth="yes"/>
			<point x="216" y="649" type="line"/>
			<point x="204" y="649" type="line"/>
			<point x="188" y="188" type="line" smooth="yes"/>
			<point x="183" y="51"/>
			<point x="161" y="12"/>
			<point x="71" y="12" type="curve" smooth="yes"/>
			<point x="60" y="12" type="line"/>
		</contour>
		<contour>
			<point x="578" y="0" type="line"/>
			<point x="590" y="0" type="line"/>
			<point x="590" y="650" type="line"/>
			<point x="578" y="650" type="line"/>
		</contour>
	</outline>
</glyph>
<glyph name="uni041E" format="2">
	<advance width="840"/>
	<unicode hex="041E"/>
	<anchor x="420" y="0" name="bottom"/>
	<anchor x="420" y="324" name="center"/>
	<anchor x="746" y="10" name="ogonek"/>
	<anchor x="420" y="648" name="top"/>
	<anchor x="33" y="649" name="topleft"/>
	<anchor x="807" y="649" name="topright"/>
	<outline>
		<contour>
			<point x="420" y="-16" type="curve" smooth="yes"/>
			<point x="608" y="-16"/>
			<point x="760" y="136"/>
			<point x="760" y="324" type="curve" smooth="yes"/>
			<point x="760" y="512"/>
			<point x="608" y="664"/>
			<point x="420" y="664" type="curve" smooth="yes"/>
			<point x="232" y="664"/>
			<point x="80" y="512"/>
			<point x="80" y="324" type="curve" smooth="yes"/>
			<point x="80" y="136"/>
			<point x="232" y="-16"/>
		</contour>
		<contour>
			<point x="420" y="-4" type="curve" smooth="yes"/>
			<point x="238" y="-4"/>
			<point x="92" y="142"/>
			<point x="92" y="324" type="curve" smooth="yes"/>
			<point x="92" y="506"/>
			<point x="238" y="652"/>
			<point x="420" y="652" type="curve" smooth="yes"/>
			<point x="602" y="652"/>
			<point x="748" y="506"/>
			<point x="748" y="324" type="curve" smooth="yes"/>
			<point x="748" y="142"/>
			<point x="599" y="-4"/>
		</contour>
	</outline>
</glyph>
<glyph name="uni041F" format="2">
	<advance width="630"/>
	<unicode hex="041F"/>
	<anchor x="610" y="0" name="bottomright"/>
	<outline>
		<contour>
			<point x="120" y="638" type="line"/>
			<point x="510" y="638" type="line"/>
			<point x="510" y="650" type="line"/>
			<point x="120" y="650" type="line"/>
		</contour>
		<contour>
			<point x="120" y="0" type="line"/>
			<point x="132" y="0" type="line"/>
			<point x="132" y="650" type="line"/>
			<point x="120" y="650" type="line"/>
		</contour>
		<contour>
			<point x="498" y="0" type="line"/>
			<point x="510" y="0" type="line"/>
			<point x="510" y="650" type="line"/>
			<point x="498" y="650" type="line"/>
		</contour>
	</outline>
</glyph>
<glyph name="uni0420" format="2">
	<advance width="605"/>
	<unicode hex="0420"/>
	<anchor x="313" y="0" name="bottom"/>
	<anchor x="313" y="650" name="top"/>
	<outline>
		<contour>
			<point x="120" y="214" type="line"/>
			<point x="320" y="214" type="line" smooth="yes"/>
			<point x="449" y="214"/>
			<point x="535" y="301"/>
			<point x="535" y="432" type="curve" smooth="yes"/>
			<point x="535" y="563"/>
			<point x="449" y="650"/>
			<point x="320" y="650" type="curve" smooth="yes"/>
			<point x="120" y="650" type="line"/>
			<point x="120" y="638" type="line"/>
			<point x="320" y="638" type="line" smooth="yes"/>
			<point x="443" y="638"/>
			<point x="523" y="557"/>
			<point x="523" y="432" type="curve" smooth="yes"/>
			<point x="523" y="307"/>
			<point x="443" y="226"/>
			<point x="320" y="226" type="curve" smooth="yes"/>
			<point x="120" y="226" type="line"/>
		</contour>
		<contour>
			<point x="120" y="0" type="line"/>
			<point x="132" y="0" type="line"/>
			<point x="132" y="650" type="line"/>
			<point x="120" y="650" type="line"/>
		</contour>
	</outline>
</glyph>
<glyph name="uni0421" format="2">
	<advance width="615"/>
	<unicode hex="0421"/>
	<anchor x="410" y="0" name="bottom"/>
	<anchor x="410" y="650" name="top"/>
	<outline>
		<contour>
			<point x="395" y="0" type="curve" smooth="yes"/>
			<point x="515" y="0" type="line"/>
			<point x="515" y="12" type="line"/>
			<point x="395" y="12" type="line" smooth="yes"/>
			<point x="213" y="12"/>
			<point x="92" y="137"/>
			<point x="92" y="325" type="curve"/>
			<point x="80" y="325" type="line"/>
			<point x="80" y="130"/>
			<point x="206" y="0"/>
		</contour>
		<contour>
			<point x="80" y="325" type="curve"/>
			<point x="92" y="325" type="line"/>
			<point x="92" y="515"/>
			<point x="214" y="638"/>
			<point x="395" y="638" type="curve" smooth="yes"/>
			<point x="515" y="638" type="line"/>
			<point x="515" y="650" type="line"/>
			<point x="395" y="650" type="line" smooth="yes"/>
			<point x="206" y="650"/>
			<point x="80" y="519"/>
		</contour>
	</outline>
</glyph>
<glyph name="uni0422" format="2">
	<advance width="535"/>
	<unicode hex="0422"/>
	<anchor x="268" y="0" name="bottom"/>
	<anchor x="268" y="325" name="center"/>
	<anchor x="268" y="650" name="top"/>
	<outline>
		<contour>
			<point x="50" y="638" type="line"/>
			<point x="485" y="638" type="line"/>
			<point x="485" y="650" type="line"/>
			<point x="50" y="650" type="line"/>
		</contour>
		<contour>
			<point x="262" y="0" type="line"/>
			<point x="274" y="0" type="line"/>
			<point x="274" y="650" type="line"/>
			<point x="262" y="650" type="line"/>
		</contour>
	</outline>
</glyph>
<glyph name="uni0423" format="2">
	<advance width="690"/>
	<unicode hex="0423"/>
	<anchor x="345" y="650" name="top"/>
	<outline>
		<contour>
			<point x="305" y="181" type="line"/>
			<point x="63" y="649" type="line"/>
			<point x="50" y="649" type="line"/>
			<point x="292" y="181" type="line"/>
		</contour>
		<contour>
			<point x="292" y="193" type="line"/>
			<point x="292" y="181" type="line"/>
			<point x="372" y="181" type="line"/>
			<point x="372" y="193" type="line"/>
		</contour>
		<contour>
			<point x="152" y="0" type="line"/>
			<point x="177" y="0" type="line" smooth="yes"/>
			<point x="242" y="0"/>
			<point x="289" y="36"/>
			<point x="372" y="181" type="curve" smooth="yes"/>
			<point x="640" y="649" type="line"/>
			<point x="627" y="649" type="line"/>
			<point x="359" y="182" type="line" smooth="yes"/>
			<point x="281" y="46"/>
			<point x="236" y="12"/>
			<point x="177" y="12" type="curve" smooth="yes"/>
			<point x="152" y="12" type="line"/>
		</contour>
	</outline>
</glyph>
<glyph name="uni0424" format="2">
	<advance width="840"/>
	<unicode hex="0424"/>
	<anchor x="420" y="0" name="bottom"/>
	<anchor x="419" y="0" name="ogonek"/>
	<anchor x="420" y="649" name="top"/>
	<anchor x="280" y="649" name="topleft"/>
	<outline>
		<contour>
			<point x="760" y="326" type="curve" smooth="yes"/>
			<point x="760" y="476"/>
			<point x="648" y="594"/>
			<point x="505" y="594" type="curve" smooth="yes"/>
			<point x="420" y="594" type="line"/>
			<point x="420" y="582" type="line"/>
			<point x="505" y="582" type="line" smooth="yes"/>
			<point x="641" y="582"/>
			<point x="748" y="469"/>
			<point x="748" y="326" type="curve" smooth="yes"/>
			<point x="748" y="183"/>
			<point x="641" y="70"/>
			<point x="505" y="70" type="curve" smooth="yes"/>
			<point x="420" y="70" type="line"/>
			<point x="420" y="58" type="line"/>
			<point x="505" y="58" type="line" smooth="yes"/>
			<point x="648" y="58"/>
			<point x="760" y="176"/>
		</contour>
		<contour>
			<point x="92" y="326" type="curve" smooth="yes"/>
			<point x="92" y="469"/>
			<point x="199" y="582"/>
			<point x="335" y="582" type="curve" smooth="yes"/>
			<point x="420" y="582" type="line"/>
			<point x="420" y="594" type="line"/>
			<point x="335" y="594" type="line" smooth="yes"/>
			<point x="192" y="594"/>
			<point x="80" y="476"/>
			<point x="80" y="326" type="curve" smooth="yes"/>
			<point x="80" y="176"/>
			<point x="192" y="58"/>
			<point x="335" y="58" type="curve" smooth="yes"/>
			<point x="420" y="58" type="line"/>
			<point x="420" y="70" type="line"/>
			<point x="335" y="70" type="line" smooth="yes"/>
			<point x="199" y="70"/>
			<point x="92" y="183"/>
		</contour>
		<contour>
			<point x="424" y="0" type="line"/>
			<point x="436" y="0" type="line"/>
			<point x="436" y="650" type="line"/>
			<point x="424" y="650" type="line"/>
		</contour>
	</outline>
</glyph>
<glyph name="uni0425" format="2">
	<advance width="538"/>
	<unicode hex="0425"/>
	<anchor x="269" y="0" name="bottom"/>
	<anchor x="269" y="650" name="top"/>
	<outline>
		<contour>
			<point x="276" y="325" type="line"/>
			<point x="64" y="650" type="line"/>
			<point x="50" y="650" type="line"/>
			<point x="262" y="325" type="line"/>
		</contour>
		<contour>
			<point x="262" y="325" type="line"/>
			<point x="276" y="325" type="line"/>
			<point x="488" y="650" type="line"/>
			<point x="474" y="650" type="line"/>
		</contour>
		<contour>
			<point x="276" y="325" type="line"/>
			<point x="262" y="325" type="line"/>
			<point x="50" y="0" type="line"/>
			<point x="64" y="0" type="line"/>
		</contour>
		<contour>
			<point x="262" y="325" type="line"/>
			<point x="474" y="0" type="line"/>
			<point x="488" y="0" type="line"/>
			<point x="276" y="325" type="line"/>
		</contour>
	</outline>
</glyph>
<glyph name="uni0426" format="2">
	<advance width="690"/>
	<unicode hex="0426"/>
	<anchor x="514" y="649" name="top"/>
	<anchor x="374" y="649" name="topleft"/>
	<outline>
		<contour>
			<point x="125" y="12" type="line"/>
			<point x="125" y="0" type="line"/>
			<point x="600" y="0" type="line"/>
			<point x="600" y="12" type="line"/>
		</contour>
		<contour>
			<point x="588" y="12" type="line"/>
			<point x="588" y="-100" type="line"/>
			<point x="600" y="-100" type="line"/>
			<point x="600" y="12" type="line"/>
		</contour>
		<contour>
			<point x="120" y="0" type="line"/>
			<point x="132" y="0" type="line"/>
			<point x="132" y="650" type="line"/>
			<point x="120" y="650" type="line"/>
		</contour>
		<contour>
			<point x="498" y="0" type="line"/>
			<point x="510" y="0" type="line"/>
			<point x="510" y="650" type="line"/>
			<point x="498" y="650" type="line"/>
		</contour>
	</outline>
</glyph>
<glyph name="uni0427" format="2">
	<advance width="597"/>
	<unicode hex="0427"/>
	<anchor x="461" y="0" name="bottom"/>
	<anchor x="460" y="0" name="ogonek"/>
	<anchor x="461" y="649" name="top"/>
	<anchor x="321" y="649" name="topleft"/>
	<outline>
		<contour>
			<point x="477" y="278" type="line"/>
			<point x="221" y="278" type="line" smooth="yes"/>
			<point x="132" y="278"/>
			<point x="62" y="347"/>
			<point x="62" y="435" type="curve" smooth="yes"/>
			<point x="62" y="649" type="line"/>
			<point x="50" y="649" type="line"/>
			<point x="50" y="435" type="line" smooth="yes"/>
			<point x="50" y="340"/>
			<point x="125" y="266"/>
			<point x="221" y="266" type="curve" smooth="yes"/>
			<point x="477" y="266" type="line"/>
		</contour>
		<contour>
			<point x="465" y="0" type="line"/>
			<point x="477" y="0" type="line"/>
			<point x="477" y="650" type="line"/>
			<point x="465" y="650" type="line"/>
		</contour>
	</outline>
</glyph>
<glyph name="uni0428" format="2">
	<advance width="884"/>
	<unicode hex="0428"/>
	<outline>
		<contour>
			<point x="127" y="0" type="line"/>
			<point x="764" y="0" type="line"/>
			<point x="764" y="12" type="line"/>
			<point x="127" y="12" type="line"/>
		</contour>
		<contour>
			<point x="120" y="0" type="line"/>
			<point x="132" y="0" type="line"/>
			<point x="132" y="650" type="line"/>
			<point x="120" y="650" type="line"/>
		</contour>
		<contour>
			<point x="436" y="0" type="line"/>
			<point x="448" y="0" type="line"/>
			<point x="448" y="650" type="line"/>
			<point x="436" y="650" type="line"/>
		</contour>
		<contour>
			<point x="752" y="0" type="line"/>
			<point x="764" y="0" type="line"/>
			<point x="764" y="650" type="line"/>
			<point x="752" y="650" type="line"/>
		</contour>
	</outline>
</glyph>
<glyph name="uni0429" format="2">
	<advance width="954"/>
	<unicode hex="0429"/>
	<outline>
		<contour>
			<point x="120" y="0" type="line"/>
			<point x="864" y="0" type="line"/>
			<point x="864" y="12" type="line"/>
			<point x="120" y="12" type="line"/>
		</contour>
		<contour>
			<point x="852" y="12" type="line"/>
			<point x="852" y="-100" type="line"/>
			<point x="864" y="-100" type="line"/>
			<point x="864" y="12" type="line"/>
		</contour>
		<contour>
			<point x="120" y="0" type="line"/>
			<point x="132" y="0" type="line"/>
			<point x="132" y="650" type="line"/>
			<point x="120" y="650" type="line"/>
		</contour>
		<contour>
			<point x="436" y="0" type="line"/>
			<point x="448" y="0" type="line"/>
			<point x="448" y="650" type="line"/>
			<point x="436" y="650" type="line"/>
		</contour>
		<contour>
			<point x="752" y="0" type="line"/>
			<point x="764" y="0" type="line"/>
			<point x="764" y="650" type="line"/>
			<point x="752" y="650" type="line"/>
		</contour>
	</outline>
</glyph>
<glyph name="uni042A" format="2">
	<advance width="712"/>
	<unicode hex="042A"/>
	<anchor x="356" y="650" name="top"/>
	<outline>
		<contour>
			<point x="90" y="638" type="line"/>
			<point x="217" y="638" type="line"/>
			<point x="217" y="650" type="line"/>
			<point x="90" y="650" type="line"/>
		</contour>
		<contour>
			<point x="205" y="0" type="line"/>
			<point x="405" y="0" type="line" smooth="yes"/>
			<point x="533" y="0"/>
			<point x="622" y="93"/>
			<point x="622" y="218" type="curve"/>
			<point x="610" y="218" type="line"/>
			<point x="610" y="100"/>
			<point x="526" y="12"/>
			<point x="405" y="12" type="curve" smooth="yes"/>
			<point x="205" y="12" type="line"/>
		</contour>
		<contour>
			<point x="405" y="436" type="curve" smooth="yes"/>
			<point x="205" y="436" type="line"/>
			<point x="205" y="424" type="line"/>
			<point x="405" y="424" type="line" smooth="yes"/>
			<point x="526" y="424"/>
			<point x="610" y="336"/>
			<point x="610" y="218" type="curve"/>
			<point x="622" y="218" type="line"/>
			<point x="622" y="343"/>
			<point x="533" y="436"/>
		</contour>
		<contour>
			<point x="205" y="0" type="line"/>
			<point x="217" y="0" type="line"/>
			<point x="217" y="650" type="line"/>
			<point x="205" y="650" type="line"/>
		</contour>
	</outline>
</glyph>
<glyph name="uni042B" format="2">
	<advance width="847"/>
	<unicode hex="042B"/>
	<anchor x="424" y="650" name="top"/>
	<outline>
		<contour>
			<point x="120" y="0" type="line"/>
			<point x="320" y="0" type="line" smooth="yes"/>
			<point x="448" y="0"/>
			<point x="537" y="93"/>
			<point x="537" y="218" type="curve"/>
			<point x="525" y="218" type="line"/>
			<point x="525" y="100"/>
			<point x="441" y="12"/>
			<point x="320" y="12" type="curve" smooth="yes"/>
			<point x="120" y="12" type="line"/>
		</contour>
		<contour>
			<point x="320" y="436" type="curve" smooth="yes"/>
			<point x="120" y="436" type="line"/>
			<point x="120" y="424" type="line"/>
			<point x="320" y="424" type="line" smooth="yes"/>
			<point x="441" y="424"/>
			<point x="525" y="336"/>
			<point x="525" y="218" type="curve"/>
			<point x="537" y="218" type="line"/>
			<point x="537" y="343"/>
			<point x="448" y="436"/>
		</contour>
		<contour>
			<point x="120" y="0" type="line"/>
			<point x="132" y="0" type="line"/>
			<point x="132" y="650" type="line"/>
			<point x="120" y="650" type="line"/>
		</contour>
		<contour>
			<point x="715" y="0" type="line"/>
			<point x="727" y="0" type="line"/>
			<point x="727" y="650" type="line"/>
			<point x="715" y="650" type="line"/>
		</contour>
	</outline>
</glyph>
<glyph name="uni042D" format="2">
	<advance width="809"/>
	<unicode hex="042D"/>
	<outline>
		<contour>
			<point x="98" y="138" type="curve"/>
			<point x="84" y="138" type="line"/>
			<point x="145" y="45"/>
			<point x="250" y="-16"/>
			<point x="369" y="-16" type="curve" smooth="yes"/>
			<point x="557" y="-16"/>
			<point x="709" y="136"/>
			<point x="709" y="324" type="curve" smooth="yes"/>
			<point x="709" y="512"/>
			<point x="557" y="664"/>
			<point x="369" y="664" type="curve" smooth="yes"/>
			<point x="250" y="664"/>
			<point x="145" y="603"/>
			<point x="84" y="510" type="curve"/>
			<point x="98" y="510" type="line"/>
			<point x="157" y="596"/>
			<point x="256" y="652"/>
			<point x="369" y="652" type="curve" smooth="yes"/>
			<point x="551" y="652"/>
			<point x="697" y="506"/>
			<point x="697" y="324" type="curve" smooth="yes"/>
			<point x="697" y="142"/>
			<point x="548" y="-4"/>
			<point x="369" y="-4" type="curve" smooth="yes"/>
			<point x="256" y="-4"/>
			<point x="157" y="52"/>
		</contour>
		<contour>
			<point x="280" y="318" type="line"/>
			<point x="703" y="318" type="line"/>
			<point x="703" y="330" type="line"/>
			<point x="280" y="330" type="line"/>
		</contour>
	</outline>
</glyph>
<glyph name="uni042E" format="2">
	<advance width="1000"/>
	<unicode hex="042E"/>
	<outline>
		<contour>
			<point x="630" y="-16" type="curve" smooth="yes"/>
			<point x="809" y="-16"/>
			<point x="950" y="134"/>
			<point x="950" y="324" type="curve" smooth="yes"/>
			<point x="950" y="514"/>
			<point x="809" y="664"/>
			<point x="630" y="664" type="curve" smooth="yes"/>
			<point x="451" y="664"/>
			<point x="310" y="514"/>
			<point x="310" y="324" type="curve" smooth="yes"/>
			<point x="310" y="134"/>
			<point x="452" y="-16"/>
		</contour>
		<contour>
			<point x="630" y="-4" type="curve" smooth="yes"/>
			<point x="458" y="-4"/>
			<point x="322" y="140"/>
			<point x="322" y="324" type="curve" smooth="yes"/>
			<point x="322" y="508"/>
			<point x="458" y="652"/>
			<point x="630" y="652" type="curve" smooth="yes"/>
			<point x="802" y="652"/>
			<point x="938" y="508"/>
			<point x="938" y="324" type="curve" smooth="yes"/>
			<point x="938" y="140"/>
			<point x="802" y="-4"/>
		</contour>
		<contour>
			<point x="127" y="331" type="line"/>
			<point x="127" y="319" type="line"/>
			<point x="314" y="319" type="line"/>
			<point x="314" y="331" type="line"/>
		</contour>
		<contour>
			<point x="120" y="0" type="line"/>
			<point x="132" y="0" type="line"/>
			<point x="132" y="650" type="line"/>
			<point x="120" y="650" type="line"/>
		</contour>
	</outline>
</glyph>
<glyph name="uni042F" format="2">
	<advance width="642"/>
	<unicode hex="042F"/>
	<outline>
		<contour>
			<point x="315" y="214" type="curve" smooth="yes"/>
			<point x="522" y="214" type="line"/>
			<point x="522" y="226" type="line"/>
			<point x="315" y="226" type="line" smooth="yes"/>
			<point x="192" y="226"/>
			<point x="112" y="307"/>
			<point x="112" y="432" type="curve" smooth="yes"/>
			<point x="112" y="557"/>
			<point x="192" y="638"/>
			<point x="315" y="638" type="curve" smooth="yes"/>
			<point x="522" y="638" type="line"/>
			<point x="522" y="650" type="line"/>
			<point x="315" y="650" type="line" smooth="yes"/>
			<point x="186" y="650"/>
			<point x="100" y="563"/>
			<point x="100" y="432" type="curve" smooth="yes"/>
			<point x="100" y="301"/>
			<point x="186" y="214"/>
		</contour>
		<contour>
			<point x="182" y="0" type="line"/>
			<point x="291" y="221" type="line"/>
			<point x="278" y="221" type="line"/>
			<point x="169" y="0" type="line"/>
		</contour>
		<contour>
			<point x="510" y="0" type="line"/>
			<point x="522" y="0" type="line"/>
			<point x="522" y="650" type="line"/>
			<point x="510" y="650" type="line"/>
		</contour>
	</outline>
</glyph>
<glyph name="uni0430" format="2">
	<advance width="540"/>
	<unicode hex="0430"/>
	<anchor x="270" y="0" name="bottom"/>
	<anchor x="453" y="0" name="ogonek"/>
	<anchor x="239" y="520" name="top"/>
	<outline>
		<contour>
			<point x="448" y="260" type="curve"/>
			<point x="460" y="260" type="line"/>
			<point x="459" y="427"/>
			<point x="367" y="520"/>
			<point x="239" y="520" type="curve" smooth="yes"/>
			<point x="80" y="520" type="line"/>
			<point x="80" y="508" type="line"/>
			<point x="239" y="508" type="line" smooth="yes"/>
			<point x="364" y="508"/>
			<point x="448" y="415"/>
		</contour>
		<contour>
			<point x="80" y="0" type="line"/>
			<point x="92" y="0" type="line"/>
			<point x="92" y="320" type="line"/>
			<point x="80" y="320" type="line"/>
		</contour>
		<contour>
			<point x="80" y="0" type="line"/>
			<point x="460" y="0" type="line"/>
			<point x="460" y="12" type="line"/>
			<point x="80" y="12" type="line"/>
		</contour>
		<contour>
			<point x="80" y="308" type="line"/>
			<point x="322" y="308" type="line"/>
			<point x="322" y="320" type="line"/>
			<point x="80" y="320" type="line"/>
		</contour>
		<contour>
			<point x="448" y="0" type="line"/>
			<point x="460" y="0" type="line"/>
			<point x="460" y="260" type="line"/>
			<point x="448" y="260" type="line"/>
		</contour>
	</outline>
</glyph>
<glyph name="uni0431" format="2">
	<advance width="650"/>
	<unicode hex="0431"/>
	<guideline x="402" y="794" angle="0"/>
	<outline>
		<contour>
			<point x="60" y="425" type="curve" smooth="yes"/>
			<point x="60" y="245" type="line"/>
			<point x="72" y="245" type="line"/>
			<point x="72" y="425" type="line" smooth="yes"/>
			<point x="72" y="577"/>
			<point x="139" y="632"/>
			<point x="265" y="648" type="curve" smooth="yes"/>
			<point x="410" y="667" type="line" smooth="yes"/>
			<point x="501" y="679"/>
			<point x="547" y="712"/>
			<point x="547" y="774" type="curve" smooth="yes"/>
			<point x="547" y="794" type="line"/>
			<point x="535" y="794" type="line"/>
			<point x="535" y="774" type="line" smooth="yes"/>
			<point x="535" y="718"/>
			<point x="493" y="690"/>
			<point x="409" y="679" type="curve" smooth="yes"/>
			<point x="265" y="660" type="line" smooth="yes"/>
			<point x="141" y="644"/>
			<point x="60" y="591"/>
		</contour>
		<contour>
			<point x="72" y="245" type="curve" smooth="yes"/>
			<point x="72" y="378"/>
			<point x="183" y="483"/>
			<point x="325" y="483" type="curve" smooth="yes"/>
			<point x="467" y="483"/>
			<point x="578" y="378"/>
			<point x="578" y="245" type="curve" smooth="yes"/>
			<point x="578" y="112"/>
			<point x="467" y="7"/>
			<point x="325" y="7" type="curve" smooth="yes"/>
			<point x="183" y="7"/>
			<point x="72" y="112"/>
		</contour>
		<contour>
			<point x="60" y="255" type="curve"/>
			<point x="60" y="245" type="line"/>
			<point x="61" y="106"/>
			<point x="178" y="-5"/>
			<point x="325" y="-5" type="curve" smooth="yes"/>
			<point x="473" y="-5"/>
			<point x="590" y="105"/>
			<point x="590" y="245" type="curve" smooth="yes"/>
			<point x="590" y="385"/>
			<point x="473" y="495"/>
			<point x="325" y="495" type="curve" smooth="yes"/>
			<point x="179" y="495"/>
			<point x="60" y="395"/>
		</contour>
	</outline>
</glyph>
<glyph name="uni0432" format="2">
	<advance width="595"/>
	<unicode hex="0432"/>
	<outline>
		<contour>
			<point x="435" y="350" type="curve"/>
			<point x="423" y="350" type="line"/>
			<point x="423" y="262"/>
			<point x="354" y="192"/>
			<point x="267" y="192" type="curve" smooth="yes"/>
			<point x="91" y="192" type="line"/>
			<point x="91" y="180" type="line"/>
			<point x="267" y="180" type="line" smooth="yes"/>
			<point x="361" y="180"/>
			<point x="435" y="255"/>
		</contour>
		<contour>
			<point x="423" y="350" type="curve"/>
			<point x="435" y="350" type="line"/>
			<point x="435" y="445"/>
			<point x="361" y="520"/>
			<point x="267" y="520" type="curve" smooth="yes"/>
			<point x="90" y="520" type="line"/>
			<point x="90" y="508" type="line"/>
			<point x="267" y="508" type="line" smooth="yes"/>
			<point x="354" y="508"/>
			<point x="423" y="438"/>
		</contour>
		<contour>
			<point x="424" y="316" type="curve"/>
			<point x="420" y="304" type="line"/>
			<point x="468" y="278"/>
			<point x="503" y="231"/>
			<point x="503" y="170" type="curve"/>
			<point x="515" y="170" type="line"/>
			<point x="515" y="239"/>
			<point x="473" y="289"/>
		</contour>
		<contour>
			<point x="515" y="170" type="curve"/>
			<point x="503" y="170" type="line"/>
			<point x="503" y="82"/>
			<point x="430" y="12"/>
			<point x="337" y="12" type="curve" smooth="yes"/>
			<point x="90" y="12" type="line"/>
			<point x="90" y="0" type="line"/>
			<point x="337" y="0" type="line" smooth="yes"/>
			<point x="437" y="0"/>
			<point x="515" y="75"/>
		</contour>
		<contour>
			<point x="90" y="0" type="line"/>
			<point x="102" y="0" type="line"/>
			<point x="102" y="520" type="line"/>
			<point x="90" y="520" type="line"/>
		</contour>
	</outline>
</glyph>
<glyph name="uni0434" format="2">
	<advance width="715"/>
	<unicode hex="0434"/>
	<outline>
		<contour>
			<point x="655" y="12" type="line"/>
			<point x="60" y="12" type="line"/>
			<point x="60" y="0" type="line"/>
			<point x="655" y="0" type="line"/>
		</contour>
		<contour>
			<point x="643" y="-100" type="line"/>
			<point x="655" y="-100" type="line"/>
			<point x="655" y="12" type="line"/>
			<point x="643" y="12" type="line"/>
		</contour>
		<contour>
			<point x="549" y="508" type="line"/>
			<point x="549" y="520" type="line"/>
			<point x="202" y="520" type="line"/>
			<point x="202" y="508" type="line"/>
		</contour>
		<contour>
			<point x="60" y="-100" type="line"/>
			<point x="72" y="-100" type="line"/>
			<point x="72" y="7" type="line"/>
			<point x="60" y="7" type="line"/>
		</contour>
		<contour>
			<point x="537" y="0" type="line"/>
			<point x="549" y="0" type="line"/>
			<point x="549" y="520" type="line"/>
			<point x="537" y="520" type="line"/>
		</contour>
		<contour>
			<point x="136" y="0" type="curve"/>
			<point x="148" y="0" type="line"/>
			<point x="164" y="30"/>
			<point x="173" y="59"/>
			<point x="177" y="110" type="curve" smooth="yes"/>
			<point x="208" y="520" type="line"/>
			<point x="196" y="520" type="line"/>
			<point x="165" y="111" type="line" smooth="yes"/>
			<point x="161" y="60"/>
			<point x="152" y="30"/>
		</contour>
	</outline>
</glyph>
<glyph name="uni0435" format="2">
	<advance width="545"/>
	<unicode hex="0435"/>
	<anchor x="330" y="0" name="bottom"/>
	<anchor x="383" y="0" name="ogonek"/>
	<anchor x="330" y="520" name="top"/>
	<outline>
		<contour>
			<point x="70" y="260" type="curve"/>
			<point x="82" y="260" type="line"/>
			<point x="82" y="415"/>
			<point x="166" y="508"/>
			<point x="291" y="508" type="curve" smooth="yes"/>
			<point x="465" y="508" type="line"/>
			<point x="465" y="520" type="line"/>
			<point x="291" y="520" type="line" smooth="yes"/>
			<point x="163" y="520"/>
			<point x="71" y="427"/>
		</contour>
		<contour>
			<point x="291" y="0" type="curve" smooth="yes"/>
			<point x="406" y="0" type="line"/>
			<point x="406" y="12" type="line"/>
			<point x="291" y="12" type="line" smooth="yes"/>
			<point x="166" y="12"/>
			<point x="82" y="105"/>
			<point x="82" y="260" type="curve"/>
			<point x="70" y="260" type="line"/>
			<point x="71" y="93"/>
			<point x="163" y="0"/>
		</contour>
		<contour>
			<point x="208" y="200" type="line"/>
			<point x="465" y="200" type="line"/>
			<point x="465" y="212" type="line"/>
			<point x="208" y="212" type="line"/>
		</contour>
		<contour>
			<point x="453" y="200" type="line"/>
			<point x="465" y="200" type="line"/>
			<point x="465" y="520" type="line"/>
			<point x="453" y="520" type="line"/>
		</contour>
	</outline>
</glyph>
<glyph name="uni0436" format="2">
	<advance width="855"/>
	<unicode hex="0436"/>
	<outline>
		<contour>
			<point x="102" y="520" type="line"/>
			<point x="89" y="520" type="line"/>
			<point x="187" y="254" type="line"/>
			<point x="200" y="254" type="line"/>
		</contour>
		<contour>
			<point x="91" y="0" type="line"/>
			<point x="197" y="261" type="line"/>
			<point x="185" y="261" type="line"/>
			<point x="76" y="0" type="line"/>
		</contour>
		<contour>
			<point x="189" y="249" type="line"/>
			<point x="666" y="249" type="line"/>
			<point x="666" y="261" type="line"/>
			<point x="189" y="261" type="line"/>
		</contour>
		<contour>
			<point x="753" y="520" type="line"/>
			<point x="655" y="254" type="line"/>
			<point x="668" y="254" type="line"/>
			<point x="766" y="520" type="line"/>
		</contour>
		<contour>
			<point x="764" y="0" type="line"/>
			<point x="779" y="0" type="line"/>
			<point x="670" y="261" type="line"/>
			<point x="658" y="261" type="line"/>
		</contour>
		<contour>
			<point x="433" y="0" type="line"/>
			<point x="433" y="520" type="line"/>
			<point x="421" y="520" type="line"/>
			<point x="421" y="0" type="line"/>
		</contour>
	</outline>
</glyph>
<glyph name="uni0437" format="2">
	<advance width="568"/>
	<unicode hex="0437"/>
	<outline>
		<contour>
			<point x="331" y="520" type="curve" smooth="yes"/>
			<point x="246" y="520" type="line"/>
			<point x="123" y="520"/>
			<point x="60" y="464"/>
			<point x="60" y="355" type="curve"/>
			<point x="72" y="355" type="line"/>
			<point x="72" y="457"/>
			<point x="130" y="508"/>
			<point x="246" y="508" type="curve" smooth="yes"/>
			<point x="331" y="508" type="line" smooth="yes"/>
			<point x="435" y="508"/>
			<point x="496" y="454"/>
			<point x="496" y="379" type="curve" smooth="yes"/>
			<point x="496" y="302"/>
			<point x="431" y="266"/>
			<point x="321" y="266" type="curve" smooth="yes"/>
			<point x="216" y="266" type="line"/>
			<point x="216" y="254" type="line"/>
			<point x="321" y="254" type="line" smooth="yes"/>
			<point x="439" y="254"/>
			<point x="508" y="294"/>
			<point x="508" y="379" type="curve" smooth="yes"/>
			<point x="508" y="461"/>
			<point x="442" y="520"/>
		</contour>
		<contour>
			<point x="246" y="0" type="curve" smooth="yes"/>
			<point x="331" y="0" type="line" smooth="yes"/>
			<point x="442" y="0"/>
			<point x="508" y="59"/>
			<point x="508" y="141" type="curve" smooth="yes"/>
			<point x="508" y="226"/>
			<point x="439" y="266"/>
			<point x="321" y="266" type="curve" smooth="yes"/>
			<point x="275" y="266" type="line"/>
			<point x="275" y="254" type="line"/>
			<point x="321" y="254" type="line" smooth="yes"/>
			<point x="431" y="254"/>
			<point x="496" y="218"/>
			<point x="496" y="141" type="curve" smooth="yes"/>
			<point x="496" y="66"/>
			<point x="435" y="12"/>
			<point x="331" y="12" type="curve" smooth="yes"/>
			<point x="246" y="12" type="line" smooth="yes"/>
			<point x="132" y="12"/>
			<point x="72" y="63"/>
			<point x="72" y="165" type="curve"/>
			<point x="60" y="165" type="line"/>
			<point x="60" y="56"/>
			<point x="125" y="0"/>
		</contour>
	</outline>
</glyph>
<glyph name="uni0438" format="2">
	<advance width="580"/>
	<unicode hex="0438"/>
	<anchor x="560" y="0" name="bottomright"/>
	<anchor x="290" y="520" name="top"/>
	<outline>
		<contour>
			<point x="172" y="181" type="line"/>
			<point x="413" y="508" type="line"/>
			<point x="490" y="508" type="line"/>
			<point x="490" y="520" type="line"/>
			<point x="407" y="520" type="line"/>
			<point x="166" y="193" type="line"/>
			<point x="90" y="193" type="line"/>
			<point x="90" y="181" type="line"/>
		</contour>
		<contour>
			<point x="90" y="0" type="line"/>
			<point x="102" y="0" type="line"/>
			<point x="102" y="520" type="line"/>
			<point x="90" y="520" type="line"/>
		</contour>
		<contour>
			<point x="478" y="0" type="line"/>
			<point x="490" y="0" type="line"/>
			<point x="490" y="520" type="line"/>
			<point x="478" y="520" type="line"/>
		</contour>
	</outline>
</glyph>
<glyph name="uni043A" format="2">
	<advance width="565"/>
	<unicode hex="043A"/>
	<outline>
		<contour>
			<point x="372" y="249" type="line"/>
			<point x="372" y="261" type="line"/>
			<point x="115" y="261" type="line"/>
			<point x="115" y="249" type="line"/>
		</contour>
		<contour>
			<point x="492" y="520" type="line"/>
			<point x="362" y="249" type="line"/>
			<point x="375" y="249" type="line"/>
			<point x="505" y="520" type="line"/>
		</contour>
		<contour>
			<point x="492" y="0" type="line"/>
			<point x="505" y="0" type="line"/>
			<point x="377" y="266" type="line"/>
			<point x="372" y="250" type="line"/>
		</contour>
		<contour>
			<point x="110" y="0" type="line"/>
			<point x="122" y="0" type="line"/>
			<point x="122" y="520" type="line"/>
			<point x="110" y="520" type="line"/>
		</contour>
	</outline>
</glyph>
<glyph name="uni043B" format="2">
	<advance width="665"/>
	<unicode hex="043B"/>
	<outline>
		<contour>
			<point x="575" y="508" type="line"/>
			<point x="575" y="520" type="line"/>
			<point x="230" y="520" type="line"/>
			<point x="230" y="508" type="line"/>
		</contour>
		<contour>
			<point x="70" y="0" type="line"/>
			<point x="95" y="0" type="line" smooth="yes"/>
			<point x="193" y="0"/>
			<point x="220" y="49"/>
			<point x="227" y="256" type="curve" smooth="yes"/>
			<point x="236" y="520" type="line"/>
			<point x="224" y="520" type="line"/>
			<point x="215" y="256" type="line" smooth="yes"/>
			<point x="208" y="61"/>
			<point x="188" y="12"/>
			<point x="95" y="12" type="curve" smooth="yes"/>
			<point x="70" y="12" type="line"/>
		</contour>
		<contour>
			<point x="563" y="0" type="line"/>
			<point x="575" y="0" type="line"/>
			<point x="575" y="520" type="line"/>
			<point x="563" y="520" type="line"/>
		</contour>
	</outline>
</glyph>
<glyph name="uni043C" format="2">
	<advance width="750"/>
	<unicode hex="043C"/>
	<outline>
		<contour>
			<point x="335" y="0" type="line"/>
			<point x="390" y="0" type="line"/>
			<point x="390" y="12" type="line"/>
			<point x="344" y="12" type="line"/>
			<point x="173" y="520" type="line"/>
			<point x="90" y="520" type="line"/>
			<point x="90" y="508" type="line"/>
			<point x="164" y="508" type="line"/>
		</contour>
		<contour>
			<point x="415" y="0" type="line"/>
			<point x="586" y="508" type="line"/>
			<point x="660" y="508" type="line"/>
			<point x="660" y="520" type="line"/>
			<point x="577" y="520" type="line"/>
			<point x="406" y="12" type="line"/>
			<point x="360" y="12" type="line"/>
			<point x="360" y="0" type="line"/>
		</contour>
		<contour>
			<point x="90" y="0" type="line"/>
			<point x="102" y="0" type="line"/>
			<point x="102" y="520" type="line"/>
			<point x="90" y="520" type="line"/>
		</contour>
		<contour>
			<point x="648" y="0" type="line"/>
			<point x="660" y="0" type="line"/>
			<point x="660" y="520" type="line"/>
			<point x="648" y="520" type="line"/>
		</contour>
	</outline>
</glyph>
<glyph name="uni043D" format="2">
	<advance width="580"/>
	<unicode hex="043D"/>
	<outline>
		<contour>
			<point x="490" y="259" type="line"/>
			<point x="490" y="271" type="line"/>
			<point x="90" y="271" type="line"/>
			<point x="90" y="259" type="line"/>
		</contour>
		<contour>
			<point x="90" y="0" type="line"/>
			<point x="102" y="0" type="line"/>
			<point x="102" y="520" type="line"/>
			<point x="90" y="520" type="line"/>
		</contour>
		<contour>
			<point x="478" y="0" type="line"/>
			<point x="490" y="0" type="line"/>
			<point x="490" y="520" type="line"/>
			<point x="478" y="520" type="line"/>
		</contour>
	</outline>
</glyph>
<glyph name="uni043F" format="2">
	<advance width="600"/>
	<unicode hex="043F"/>
	<outline>
		<contour>
			<point x="510" y="508" type="line"/>
			<point x="510" y="520" type="line"/>
			<point x="90" y="520" type="line"/>
			<point x="90" y="508" type="line"/>
		</contour>
		<contour>
			<point x="90" y="0" type="line"/>
			<point x="102" y="0" type="line"/>
			<point x="102" y="520" type="line"/>
			<point x="90" y="520" type="line"/>
		</contour>
		<contour>
			<point x="498" y="0" type="line"/>
			<point x="510" y="0" type="line"/>
			<point x="510" y="520" type="line"/>
			<point x="498" y="520" type="line"/>
		</contour>
	</outline>
</glyph>
<glyph name="uni0440" format="2">
	<advance width="570"/>
	<unicode hex="0440"/>
	<outline>
		<contour>
			<point x="279" y="12" type="curve" smooth="yes"/>
			<point x="90" y="12" type="line"/>
			<point x="90" y="0" type="line"/>
			<point x="279" y="0" type="line" smooth="yes"/>
			<point x="407" y="0"/>
			<point x="499" y="93"/>
			<point x="500" y="260" type="curve"/>
			<point x="488" y="260" type="line"/>
			<point x="488" y="104"/>
			<point x="404" y="12"/>
		</contour>
		<contour>
			<point x="90" y="508" type="line"/>
			<point x="279" y="508" type="line" smooth="yes"/>
			<point x="404" y="508"/>
			<point x="488" y="415"/>
			<point x="488" y="260" type="curve"/>
			<point x="500" y="260" type="line"/>
			<point x="499" y="427"/>
			<point x="407" y="520"/>
			<point x="279" y="520" type="curve" smooth="yes"/>
			<point x="90" y="520" type="line"/>
		</contour>
		<contour>
			<point x="90" y="-200" type="line"/>
			<point x="102" y="-200" type="line"/>
			<point x="102" y="520" type="line"/>
			<point x="90" y="520" type="line"/>
		</contour>
	</outline>
</glyph>
<glyph name="uni0441" format="2">
	<advance width="460"/>
	<unicode hex="0441"/>
	<anchor x="291" y="0" name="bottom"/>
	<anchor x="291" y="520" name="top"/>
	<outline>
		<contour>
			<point x="390" y="12" type="line"/>
			<point x="291" y="12" type="line" smooth="yes"/>
			<point x="166" y="12"/>
			<point x="82" y="105"/>
			<point x="82" y="260" type="curve"/>
			<point x="70" y="260" type="line"/>
			<point x="71" y="93"/>
			<point x="163" y="0"/>
			<point x="291" y="0" type="curve" smooth="yes"/>
			<point x="390" y="0" type="line"/>
		</contour>
		<contour>
			<point x="291" y="508" type="curve" smooth="yes"/>
			<point x="390" y="508" type="line"/>
			<point x="390" y="520" type="line"/>
			<point x="291" y="520" type="line" smooth="yes"/>
			<point x="163" y="520"/>
			<point x="71" y="427"/>
			<point x="70" y="260" type="curve"/>
			<point x="82" y="260" type="line"/>
			<point x="82" y="415"/>
			<point x="166" y="508"/>
		</contour>
	</outline>
</glyph>
<glyph name="uni0442" format="2">
	<advance width="590"/>
	<unicode hex="0442"/>
	<outline>
		<contour>
			<point x="510" y="508" type="line"/>
			<point x="510" y="520" type="line"/>
			<point x="80" y="520" type="line"/>
			<point x="80" y="508" type="line"/>
		</contour>
		<contour>
			<point x="289" y="0" type="line"/>
			<point x="301" y="0" type="line"/>
			<point x="301" y="520" type="line"/>
			<point x="289" y="520" type="line"/>
		</contour>
	</outline>
</glyph>
<glyph name="uni0443" format="2">
	<advance width="618"/>
	<unicode hex="0443"/>
	<anchor x="311" y="-200" name="bottom"/>
	<anchor x="309" y="520" name="top"/>
	<outline>
		<contour>
			<point x="526" y="520" type="line"/>
			<point x="303" y="2" type="line"/>
			<point x="307" y="2" type="line"/>
			<point x="92" y="520" type="line"/>
			<point x="80" y="520" type="line"/>
			<point x="299" y="-10" type="line"/>
			<point x="311" y="-10" type="line"/>
			<point x="538" y="520" type="line"/>
		</contour>
		<contour>
			<point x="311" y="0" type="line"/>
			<point x="299" y="0" type="line"/>
			<point x="299" y="-200" type="line"/>
			<point x="311" y="-200" type="line"/>
		</contour>
		<contour>
			<point x="144" y="-188" type="line"/>
			<point x="144" y="-200" type="line"/>
			<point x="311" y="-200" type="line"/>
			<point x="311" y="-188" type="line"/>
		</contour>
	</outline>
</glyph>
<glyph name="uni0444" format="2">
	<advance width="775"/>
	<unicode hex="0444"/>
	<outline>
		<contour>
			<point x="382" y="-200" type="line"/>
			<point x="394" y="-200" type="line"/>
			<point x="394" y="710" type="line"/>
			<point x="382" y="710" type="line"/>
		</contour>
		<contour>
			<point x="494" y="12" type="curve" smooth="yes"/>
			<point x="390" y="12" type="line"/>
			<point x="390" y="0" type="line"/>
			<point x="494" y="0" type="line" smooth="yes"/>
			<point x="622" y="0"/>
			<point x="714" y="93"/>
			<point x="715" y="260" type="curve"/>
			<point x="703" y="260" type="line"/>
			<point x="703" y="105"/>
			<point x="619" y="12"/>
		</contour>
		<contour>
			<point x="390" y="508" type="line"/>
			<point x="494" y="508" type="line" smooth="yes"/>
			<point x="619" y="508"/>
			<point x="703" y="415"/>
			<point x="703" y="260" type="curve"/>
			<point x="715" y="260" type="line"/>
			<point x="714" y="427"/>
			<point x="622" y="520"/>
			<point x="494" y="520" type="curve" smooth="yes"/>
			<point x="390" y="520" type="line"/>
		</contour>
		<contour>
			<point x="385" y="12" type="line"/>
			<point x="281" y="12" type="line" smooth="yes"/>
			<point x="156" y="12"/>
			<point x="72" y="104"/>
			<point x="72" y="260" type="curve"/>
			<point x="60" y="260" type="line"/>
			<point x="61" y="93"/>
			<point x="153" y="0"/>
			<point x="281" y="0" type="curve" smooth="yes"/>
			<point x="385" y="0" type="line"/>
		</contour>
		<contour>
			<point x="281" y="508" type="curve" smooth="yes"/>
			<point x="385" y="508" type="line"/>
			<point x="385" y="520" type="line"/>
			<point x="281" y="520" type="line" smooth="yes"/>
			<point x="153" y="520"/>
			<point x="61" y="427"/>
			<point x="60" y="260" type="curve"/>
			<point x="72" y="260" type="line"/>
			<point x="72" y="415"/>
			<point x="156" y="508"/>
		</contour>
	</outline>
</glyph>
<glyph name="uni0445" format="2">
	<advance width="554"/>
	<unicode hex="0445"/>
	<outline>
		<contour>
			<point x="463" y="520" type="line"/>
			<point x="270" y="260" type="line"/>
			<point x="285" y="260" type="line"/>
			<point x="478" y="520" type="line"/>
		</contour>
		<contour>
			<point x="91" y="520" type="line"/>
			<point x="76" y="520" type="line"/>
			<point x="269" y="260" type="line"/>
			<point x="284" y="260" type="line"/>
		</contour>
		<contour>
			<point x="463" y="0" type="line"/>
			<point x="478" y="0" type="line"/>
			<point x="285" y="260" type="line"/>
			<point x="270" y="260" type="line"/>
		</contour>
		<contour>
			<point x="91" y="0" type="line"/>
			<point x="284" y="260" type="line"/>
			<point x="269" y="260" type="line"/>
			<point x="76" y="0" type="line"/>
		</contour>
	</outline>
</glyph>
<glyph name="uni0446" format="2">
	<advance width="665"/>
	<unicode hex="0446"/>
	<outline>
		<contour>
			<point x="605" y="12" type="line"/>
			<point x="90" y="12" type="line"/>
			<point x="90" y="0" type="line"/>
			<point x="605" y="0" type="line"/>
		</contour>
		<contour>
			<point x="593" y="-100" type="line"/>
			<point x="605" y="-100" type="line"/>
			<point x="605" y="12" type="line"/>
			<point x="593" y="12" type="line"/>
		</contour>
		<contour>
			<point x="90" y="0" type="line"/>
			<point x="102" y="0" type="line"/>
			<point x="102" y="520" type="line"/>
			<point x="90" y="520" type="line"/>
		</contour>
		<contour>
			<point x="504" y="0" type="line"/>
			<point x="516" y="0" type="line"/>
			<point x="516" y="520" type="line"/>
			<point x="504" y="520" type="line"/>
		</contour>
	</outline>
</glyph>
<glyph name="uni0447" format="2">
	<advance width="530"/>
	<unicode hex="0447"/>
	<guideline x="572" y="129" angle="0"/>
	<outline>
		<contour>
			<point x="440" y="193" type="line"/>
			<point x="241" y="193" type="line" smooth="yes"/>
			<point x="152" y="193"/>
			<point x="82" y="262"/>
			<point x="82" y="350" type="curve" smooth="yes"/>
			<point x="82" y="520" type="line"/>
			<point x="70" y="520" type="line"/>
			<point x="70" y="350" type="line" smooth="yes"/>
			<point x="70" y="255"/>
			<point x="145" y="181"/>
			<point x="241" y="181" type="curve" smooth="yes"/>
			<point x="440" y="181" type="line"/>
		</contour>
		<contour>
			<point x="428" y="0" type="line"/>
			<point x="440" y="0" type="line"/>
			<point x="440" y="520" type="line"/>
			<point x="428" y="520" type="line"/>
		</contour>
	</outline>
</glyph>
<glyph name="uni0448" format="2">
	<advance width="824"/>
	<unicode hex="0448"/>
	<outline>
		<contour>
			<point x="734" y="0" type="line"/>
			<point x="734" y="12" type="line"/>
			<point x="90" y="12" type="line"/>
			<point x="90" y="0" type="line"/>
		</contour>
		<contour>
			<point x="90" y="0" type="line"/>
			<point x="102" y="0" type="line"/>
			<point x="102" y="520" type="line"/>
			<point x="90" y="520" type="line"/>
		</contour>
		<contour>
			<point x="406" y="0" type="line"/>
			<point x="418" y="0" type="line"/>
			<point x="418" y="520" type="line"/>
			<point x="406" y="520" type="line"/>
		</contour>
		<contour>
			<point x="722" y="0" type="line"/>
			<point x="734" y="0" type="line"/>
			<point x="734" y="520" type="line"/>
			<point x="722" y="520" type="line"/>
		</contour>
	</outline>
</glyph>
<glyph name="uni0449" format="2">
	<advance width="890"/>
	<unicode hex="0449"/>
	<outline>
		<contour>
			<point x="830" y="0" type="line"/>
			<point x="830" y="12" type="line"/>
			<point x="90" y="12" type="line"/>
			<point x="90" y="0" type="line"/>
		</contour>
		<contour>
			<point x="818" y="-100" type="line"/>
			<point x="830" y="-100" type="line"/>
			<point x="830" y="12" type="line"/>
			<point x="818" y="12" type="line"/>
		</contour>
		<contour>
			<point x="90" y="0" type="line"/>
			<point x="102" y="0" type="line"/>
			<point x="102" y="520" type="line"/>
			<point x="90" y="520" type="line"/>
		</contour>
		<contour>
			<point x="410" y="0" type="line"/>
			<point x="422" y="0" type="line"/>
			<point x="422" y="520" type="line"/>
			<point x="410" y="520" type="line"/>
		</contour>
		<contour>
			<point x="730" y="0" type="line"/>
			<point x="742" y="0" type="line"/>
			<point x="742" y="520" type="line"/>
			<point x="730" y="520" type="line"/>
		</contour>
	</outline>
</glyph>
<glyph name="uni044A" format="2">
	<advance width="585"/>
	<unicode hex="044A"/>
	<outline>
		<contour>
			<point x="172" y="508" type="line"/>
			<point x="172" y="520" type="line"/>
			<point x="50" y="520" type="line"/>
			<point x="50" y="508" type="line"/>
		</contour>
		<contour>
			<point x="513" y="180" type="curve"/>
			<point x="525" y="180" type="line"/>
			<point x="525" y="281"/>
			<point x="444" y="360"/>
			<point x="342" y="360" type="curve" smooth="yes"/>
			<point x="160" y="360" type="line"/>
			<point x="160" y="348" type="line"/>
			<point x="342" y="348" type="line" smooth="yes"/>
			<point x="438" y="348"/>
			<point x="513" y="274"/>
		</contour>
		<contour>
			<point x="525" y="180" type="curve"/>
			<point x="513" y="180" type="line"/>
			<point x="513" y="86"/>
			<point x="438" y="12"/>
			<point x="342" y="12" type="curve" smooth="yes"/>
			<point x="160" y="12" type="line"/>
			<point x="160" y="0" type="line"/>
			<point x="342" y="0" type="line" smooth="yes"/>
			<point x="444" y="0"/>
			<point x="525" y="79"/>
		</contour>
		<contour>
			<point x="160" y="520" type="line"/>
			<point x="160" y="0" type="line"/>
			<point x="172" y="0" type="line"/>
			<point x="172" y="520" type="line"/>
		</contour>
	</outline>
</glyph>
<glyph name="uni044B" format="2">
	<advance width="735"/>
	<unicode hex="044B"/>
	<outline>
		<contour>
			<point x="478" y="180" type="curve"/>
			<point x="490" y="180" type="line"/>
			<point x="490" y="281"/>
			<point x="409" y="360"/>
			<point x="307" y="360" type="curve" smooth="yes"/>
			<point x="90" y="360" type="line"/>
			<point x="90" y="348" type="line"/>
			<point x="307" y="348" type="line" smooth="yes"/>
			<point x="403" y="348"/>
			<point x="478" y="274"/>
		</contour>
		<contour>
			<point x="490" y="180" type="curve"/>
			<point x="478" y="180" type="line"/>
			<point x="478" y="86"/>
			<point x="403" y="12"/>
			<point x="307" y="12" type="curve" smooth="yes"/>
			<point x="90" y="12" type="line"/>
			<point x="90" y="0" type="line"/>
			<point x="307" y="0" type="line" smooth="yes"/>
			<point x="409" y="0"/>
			<point x="490" y="79"/>
		</contour>
		<contour>
			<point x="90" y="520" type="line"/>
			<point x="90" y="0" type="line"/>
			<point x="102" y="0" type="line"/>
			<point x="102" y="520" type="line"/>
		</contour>
		<contour>
			<point x="633" y="520" type="line"/>
			<point x="633" y="0" type="line"/>
			<point x="645" y="0" type="line"/>
			<point x="645" y="520" type="line"/>
		</contour>
	</outline>
</glyph>
<glyph name="uni044C" format="2">
	<advance width="535"/>
	<unicode hex="044C"/>
	<outline>
		<contour>
			<point x="443" y="180" type="curve"/>
			<point x="455" y="180" type="line"/>
			<point x="455" y="281"/>
			<point x="374" y="360"/>
			<point x="272" y="360" type="curve" smooth="yes"/>
			<point x="90" y="360" type="line"/>
			<point x="90" y="348" type="line"/>
			<point x="272" y="348" type="line" smooth="yes"/>
			<point x="368" y="348"/>
			<point x="443" y="274"/>
		</contour>
		<contour>
			<point x="455" y="180" type="curve"/>
			<point x="443" y="180" type="line"/>
			<point x="443" y="86"/>
			<point x="368" y="12"/>
			<point x="272" y="12" type="curve" smooth="yes"/>
			<point x="90" y="12" type="line"/>
			<point x="90" y="0" type="line"/>
			<point x="272" y="0" type="line" smooth="yes"/>
			<point x="374" y="0"/>
			<point x="455" y="79"/>
		</contour>
		<contour>
			<point x="90" y="520" type="line"/>
			<point x="90" y="0" type="line"/>
			<point x="102" y="0" type="line"/>
			<point x="102" y="520" type="line"/>
		</contour>
	</outline>
</glyph>
<glyph name="uni044D" format="2">
	<advance width="634"/>
	<unicode hex="044D"/>
	<outline>
		<contour>
			<point x="569" y="254" type="line"/>
			<point x="569" y="266" type="line"/>
			<point x="208" y="266" type="line"/>
			<point x="208" y="254" type="line"/>
		</contour>
		<contour>
			<point x="574" y="260" type="curve" smooth="yes"/>
			<point x="574" y="406"/>
			<point x="455" y="525"/>
			<point x="309" y="525" type="curve" smooth="yes"/>
			<point x="195" y="525"/>
			<point x="97" y="452"/>
			<point x="60" y="350" type="curve"/>
			<point x="72" y="350" type="line"/>
			<point x="121" y="471"/>
			<point x="230" y="513"/>
			<point x="309" y="513" type="curve" smooth="yes"/>
			<point x="449" y="513"/>
			<point x="562" y="400"/>
			<point x="562" y="260" type="curve" smooth="yes"/>
			<point x="562" y="120"/>
			<point x="449" y="7"/>
			<point x="309" y="7" type="curve" smooth="yes"/>
			<point x="230" y="7"/>
			<point x="121" y="49"/>
			<point x="72" y="170" type="curve"/>
			<point x="60" y="170" type="line"/>
			<point x="97" y="68"/>
			<point x="195" y="-5"/>
			<point x="309" y="-5" type="curve" smooth="yes"/>
			<point x="455" y="-5"/>
			<point x="574" y="114"/>
		</contour>
	</outline>
</glyph>
<glyph name="uni044E" format="2">
	<advance width="860"/>
	<unicode hex="044E"/>
	<outline>
		<contour>
			<point x="305" y="259" type="line"/>
			<point x="305" y="271" type="line"/>
			<point x="80" y="271" type="line"/>
			<point x="80" y="259" type="line"/>
		</contour>
		<contour>
			<point x="550" y="7" type="curve" smooth="yes"/>
			<point x="417" y="7"/>
			<point x="312" y="118"/>
			<point x="312" y="260" type="curve" smooth="yes"/>
			<point x="312" y="402"/>
			<point x="417" y="513"/>
			<point x="550" y="513" type="curve" smooth="yes"/>
			<point x="683" y="513"/>
			<point x="788" y="402"/>
			<point x="788" y="260" type="curve" smooth="yes"/>
			<point x="788" y="118"/>
			<point x="683" y="7"/>
		</contour>
		<contour>
			<point x="550" y="-5" type="curve" smooth="yes"/>
			<point x="690" y="-5"/>
			<point x="800" y="112"/>
			<point x="800" y="260" type="curve" smooth="yes"/>
			<point x="800" y="408"/>
			<point x="690" y="525"/>
			<point x="550" y="525" type="curve" smooth="yes"/>
			<point x="410" y="525"/>
			<point x="300" y="408"/>
			<point x="300" y="260" type="curve" smooth="yes"/>
			<point x="300" y="112"/>
			<point x="410" y="-5"/>
		</contour>
		<contour>
			<point x="80" y="520" type="line"/>
			<point x="80" y="0" type="line"/>
			<point x="92" y="0" type="line"/>
			<point x="92" y="520" type="line"/>
		</contour>
	</outline>
</glyph>
<glyph name="uni044F" format="2">
	<advance width="534"/>
	<unicode hex="044F"/>
	<outline>
		<contour>
			<point x="70" y="340" type="curve"/>
			<point x="82" y="340" type="line"/>
			<point x="82" y="434"/>
			<point x="157" y="508"/>
			<point x="253" y="508" type="curve" smooth="yes"/>
			<point x="454" y="508" type="line"/>
			<point x="454" y="520" type="line"/>
			<point x="253" y="520" type="line" smooth="yes"/>
			<point x="151" y="520"/>
			<point x="70" y="441"/>
		</contour>
		<contour>
			<point x="82" y="340" type="curve"/>
			<point x="70" y="340" type="line"/>
			<point x="70" y="239"/>
			<point x="151" y="160"/>
			<point x="253" y="160" type="curve" smooth="yes"/>
			<point x="454" y="160" type="line"/>
			<point x="454" y="172" type="line"/>
			<point x="253" y="172" type="line" smooth="yes"/>
			<point x="157" y="172"/>
			<point x="82" y="246"/>
		</contour>
		<contour>
			<point x="133" y="0" type="line"/>
			<point x="212" y="170" type="line"/>
			<point x="200" y="172" type="line"/>
			<point x="120" y="0" type="line"/>
		</contour>
		<contour>
			<point x="442" y="0" type="line"/>
			<point x="454" y="0" type="line"/>
			<point x="454" y="520" type="line"/>
			<point x="442" y="520" type="line"/>
		</contour>
	</outline>
</glyph>
<glyph name="uni0454" format="2">
	<advance width="634"/>
	<unicode hex="0454"/>
	<outline>
		<contour>
			<point x="65" y="254" type="line"/>
			<point x="426" y="254" type="line"/>
			<point x="426" y="266" type="line"/>
			<point x="65" y="266" type="line"/>
		</contour>
		<contour>
			<point x="60" y="260" type="curve" smooth="yes"/>
			<point x="60" y="114"/>
			<point x="179" y="-5"/>
			<point x="325" y="-5" type="curve" smooth="yes"/>
			<point x="439" y="-5"/>
			<point x="537" y="68"/>
			<point x="574" y="170" type="curve"/>
			<point x="562" y="170" type="line"/>
			<point x="513" y="49"/>
			<point x="404" y="7"/>
			<point x="325" y="7" type="curve" smooth="yes"/>
			<point x="185" y="7"/>
			<point x="72" y="120"/>
			<point x="72" y="260" type="curve" smooth="yes"/>
			<point x="72" y="400"/>
			<point x="185" y="513"/>
			<point x="325" y="513" type="curve" smooth="yes"/>
			<point x="404" y="513"/>
			<point x="513" y="471"/>
			<point x="562" y="350" type="curve"/>
			<point x="574" y="350" type="line"/>
			<point x="537" y="452"/>
			<point x="439" y="525"/>
			<point x="325" y="525" type="curve" smooth="yes"/>
			<point x="179" y="525"/>
			<point x="60" y="406"/>
		</contour>
	</outline>
</glyph>
<glyph name="uni0456" format="2">
	<advance width="295"/>
	<unicode hex="0456"/>
	<anchor x="147" y="0" name="bottom"/>
	<anchor x="146" y="0" name="ogonek"/>
	<anchor x="147" y="520" name="top"/>
	<outline>
		<contour>
			<point x="141" y="0" type="line"/>
			<point x="153" y="0" type="line"/>
			<point x="153" y="520" type="line"/>
			<point x="141" y="520" type="line"/>
		</contour>
		<contour>
			<point x="147" y="611" type="curve" smooth="yes"/>
			<point x="159" y="611"/>
			<point x="168" y="620"/>
			<point x="168" y="632" type="curve" smooth="yes"/>
			<point x="168" y="644"/>
			<point x="159" y="653"/>
			<point x="147" y="653" type="curve" smooth="yes"/>
			<point x="135" y="653"/>
			<point x="126" y="644"/>
			<point x="126" y="632" type="curve" smooth="yes"/>
			<point x="126" y="620"/>
			<point x="135" y="611"/>
		</contour>
	</outline>
</glyph>
<glyph name="uni0490" format="2">
	<advance width="530"/>
	<unicode hex="0490"/>
	<outline>
		<contour>
			<point x="120" y="638" type="line"/>
			<point x="480" y="638" type="line"/>
			<point x="480" y="650" type="line"/>
			<point x="120" y="650" type="line"/>
		</contour>
		<contour>
			<point x="468" y="750" type="line"/>
			<point x="468" y="638" type="line"/>
			<point x="480" y="638" type="line"/>
			<point x="480" y="750" type="line"/>
		</contour>
		<contour>
			<point x="120" y="0" type="line"/>
			<point x="132" y="0" type="line"/>
			<point x="132" y="650" type="line"/>
			<point x="120" y="650" type="line"/>
		</contour>
	</outline>
</glyph>
<glyph name="uni0491" format="2">
	<advance width="505"/>
	<unicode hex="0491"/>
	<outline>
		<contour>
			<point x="425" y="508" type="line"/>
			<point x="425" y="520" type="line"/>
			<point x="90" y="520" type="line"/>
			<point x="90" y="508" type="line"/>
		</contour>
		<contour>
			<point x="413" y="508" type="line"/>
			<point x="425" y="508" type="line"/>
			<point x="425" y="620" type="line"/>
			<point x="413" y="620" type="line"/>
		</contour>
		<contour>
			<point x="90" y="0" type="line"/>
			<point x="102" y="0" type="line"/>
			<point x="102" y="520" type="line"/>
			<point x="90" y="520" type="line"/>
		</contour>
	</outline>
</glyph>
<glyph name="uni1E9E" format="2">
	<advance width="615"/>
	<unicode hex="1E9E"/>
	<outline>
		<contour>
			<point x="274" y="638" type="line"/>
			<point x="442" y="638" type="line"/>
			<point x="442" y="650" type="line"/>
			<point x="274" y="650" type="line"/>
		</contour>
		<contour>
			<point x="274" y="638" type="curve"/>
			<point x="274" y="650" type="line"/>
			<point x="180" y="650"/>
			<point x="120" y="581"/>
			<point x="120" y="475" type="curve"/>
			<point x="132" y="475" type="line"/>
			<point x="132" y="575"/>
			<point x="189" y="640"/>
		</contour>
		<contour>
			<point x="120" y="475" type="line"/>
			<point x="120" y="0" type="line"/>
			<point x="132" y="0" type="line"/>
			<point x="132" y="475" type="line"/>
		</contour>
		<contour>
			<point x="290" y="0" type="line"/>
			<point x="349" y="0" type="line" smooth="yes"/>
			<point x="470" y="0"/>
			<point x="565" y="96"/>
			<point x="565" y="218" type="curve" smooth="yes"/>
			<point x="565" y="338"/>
			<point x="475" y="434"/>
			<point x="352" y="436" type="curve"/>
			<point x="352" y="424" type="line"/>
			<point x="467" y="420"/>
			<point x="553" y="336"/>
			<point x="553" y="218" type="curve" smooth="yes"/>
			<point x="553" y="103"/>
			<point x="463" y="12"/>
			<point x="349" y="12" type="curve" smooth="yes"/>
			<point x="290" y="12" type="line"/>
		</contour>
		<contour>
			<point x="356" y="424" type="line"/>
			<point x="451" y="650" type="line"/>
			<point x="438" y="650" type="line"/>
			<point x="343" y="424" type="line"/>
		</contour>
	</outline>
</glyph>
<glyph name="endash" format="2">
	<advance width="635"/>
	<unicode hex="2013"/>
	<outline>
		<contour>
			<point x="100" y="274" type="line"/>
			<point x="535" y="274" type="line"/>
			<point x="535" y="286" type="line"/>
			<point x="100" y="286" type="line"/>
		</contour>
	</outline>
</glyph>
<glyph name="quoteleft" format="2">
	<advance width="321"/>
	<unicode hex="2018"/>
	<outline>
		<contour>
			<point x="95" y="419" type="line"/>
			<point x="108" y="419" type="line"/>
			<point x="209" y="649" type="line"/>
			<point x="196" y="649" type="line"/>
		</contour>
	</outline>
</glyph>
